<mxfile host="Electron" agent="Mozilla/5.0 (Windows NT 10.0; Win64; x64) AppleWebKit/537.36 (KHTML, like Gecko) draw.io/24.7.17 Chrome/128.0.6613.36 Electron/32.0.1 Safari/537.36" version="24.7.17">
  <diagram id="WI9T0HZ2pTsCkuznbFz-" name="Page-1">
    <mxGraphModel dx="1690" dy="1522" grid="0" gridSize="10" guides="1" tooltips="1" connect="1" arrows="1" fold="1" page="0" pageScale="1" pageWidth="1169" pageHeight="827" math="0" shadow="0">
      <root>
        <mxCell id="0" />
        <mxCell id="1" parent="0" />
        <mxCell id="r8kyTGd4MDTlxssYAJR3-8" value="" style="rounded=0;whiteSpace=wrap;html=1;" parent="1" vertex="1">
          <mxGeometry x="288" y="-833" width="157" height="255" as="geometry" />
        </mxCell>
        <mxCell id="ZLGVQ2rk_Wr_WkTqdJoq-90" value="" style="rounded=0;whiteSpace=wrap;html=1;" parent="1" vertex="1">
          <mxGeometry x="715.59" y="-794.5" width="144" height="111.5" as="geometry" />
        </mxCell>
        <mxCell id="VHQm3ld0HByzxrR_ddXe-34" value="" style="edgeStyle=orthogonalEdgeStyle;rounded=0;orthogonalLoop=1;jettySize=auto;html=1;strokeColor=#009900;" parent="1" source="k0CTzh7-vUOgCoUulJSG-58" target="VHQm3ld0HByzxrR_ddXe-35" edge="1">
          <mxGeometry relative="1" as="geometry">
            <mxPoint x="572.77" y="528" as="targetPoint" />
            <Array as="points">
              <mxPoint x="-274" y="342" />
            </Array>
          </mxGeometry>
        </mxCell>
        <mxCell id="VHQm3ld0HByzxrR_ddXe-91" value="" style="edgeStyle=orthogonalEdgeStyle;rounded=0;orthogonalLoop=1;jettySize=auto;html=1;strokeColor=#FF8000;" parent="1" target="VHQm3ld0HByzxrR_ddXe-69" edge="1">
          <mxGeometry relative="1" as="geometry">
            <mxPoint x="-247.5" y="-488" as="targetPoint" />
            <Array as="points">
              <mxPoint x="340" y="-386" />
              <mxPoint x="340" y="-386" />
            </Array>
            <mxPoint x="-166.99999999999818" y="-385.99999999999955" as="sourcePoint" />
          </mxGeometry>
        </mxCell>
        <mxCell id="k0CTzh7-vUOgCoUulJSG-58" value="" style="rounded=0;whiteSpace=wrap;html=1;fillColor=#E6E6E6;" parent="1" vertex="1">
          <mxGeometry x="-550" y="-618" width="521" height="565" as="geometry" />
        </mxCell>
        <mxCell id="k0CTzh7-vUOgCoUulJSG-6" value="" style="rounded=0;whiteSpace=wrap;html=1;" parent="1" vertex="1">
          <mxGeometry x="-532" y="-995" width="262" height="192" as="geometry" />
        </mxCell>
        <mxCell id="x5Qx7wWfgq4q1o_DWIzA-21" value="" style="edgeStyle=orthogonalEdgeStyle;rounded=0;orthogonalLoop=1;jettySize=auto;html=1;strokeColor=#007FFF;" parent="1" source="k0CTzh7-vUOgCoUulJSG-6" target="x5Qx7wWfgq4q1o_DWIzA-1" edge="1">
          <mxGeometry relative="1" as="geometry">
            <Array as="points">
              <mxPoint x="-422" y="-789" />
              <mxPoint x="-422" y="-789" />
            </Array>
            <mxPoint x="-298" y="-722.4285714285713" as="targetPoint" />
            <mxPoint x="-420" y="-810" as="sourcePoint" />
          </mxGeometry>
        </mxCell>
        <mxCell id="N_ae5W9qRV80UMjD5rNb-32" value="" style="edgeStyle=orthogonalEdgeStyle;rounded=0;orthogonalLoop=1;jettySize=auto;html=1;strokeColor=#007FFF;" parent="1" source="x5Qx7wWfgq4q1o_DWIzA-1" edge="1">
          <mxGeometry relative="1" as="geometry">
            <Array as="points">
              <mxPoint x="-422" y="-682" />
              <mxPoint x="-422" y="-682" />
            </Array>
            <mxPoint x="646" y="-559" as="sourcePoint" />
            <mxPoint x="-422" y="-617.9999999999998" as="targetPoint" />
          </mxGeometry>
        </mxCell>
        <mxCell id="x5Qx7wWfgq4q1o_DWIzA-1" value="" style="shape=image;verticalLabelPosition=bottom;labelBackgroundColor=default;verticalAlign=top;aspect=fixed;imageAspect=0;image=https://cdn.freebiesupply.com/logos/large/2x/git-icon-logo-png-transparent.png;fillColor=default;" parent="1" vertex="1">
          <mxGeometry x="-440" y="-739" width="36" height="36" as="geometry" />
        </mxCell>
        <mxCell id="x5Qx7wWfgq4q1o_DWIzA-3" value="" style="shape=image;verticalLabelPosition=bottom;labelBackgroundColor=default;verticalAlign=top;aspect=fixed;imageAspect=0;image=https://wiki.videolan.org/images/Windows_logo.png;" parent="1" vertex="1">
          <mxGeometry x="-511" y="-979" width="23" height="23" as="geometry" />
        </mxCell>
        <mxCell id="KN40ahXa2vFHUUqI6EMj-15" value="" style="edgeStyle=orthogonalEdgeStyle;rounded=0;orthogonalLoop=1;jettySize=auto;html=1;strokeColor=#FF3333;" parent="1" source="ZLGVQ2rk_Wr_WkTqdJoq-13" target="k0CTzh7-vUOgCoUulJSG-6" edge="1">
          <mxGeometry relative="1" as="geometry">
            <mxPoint x="-226.82999999999993" y="-859" as="targetPoint" />
            <Array as="points">
              <mxPoint x="-25" y="-862" />
              <mxPoint x="-25" y="-862" />
            </Array>
          </mxGeometry>
        </mxCell>
        <mxCell id="ZLGVQ2rk_Wr_WkTqdJoq-13" value="" style="shape=image;verticalLabelPosition=bottom;labelBackgroundColor=default;verticalAlign=top;aspect=fixed;imageAspect=0;image=https://cdn.freelogovectors.net/wp-content/uploads/2019/09/zabbix-logo.png;" parent="1" vertex="1">
          <mxGeometry x="756" y="-869.9999999999999" width="63" height="16.54" as="geometry" />
        </mxCell>
        <mxCell id="L2kyQzQ1MUWYTu39AAr5-78" value="" style="edgeStyle=orthogonalEdgeStyle;rounded=0;orthogonalLoop=1;jettySize=auto;html=1;strokeColor=#FF0000;" parent="1" source="VHQm3ld0HByzxrR_ddXe-69" target="8N1gZI2geE5Co_WE50Yg-59" edge="1">
          <mxGeometry relative="1" as="geometry">
            <mxPoint x="854.1000000000004" y="-384" as="sourcePoint" />
          </mxGeometry>
        </mxCell>
        <mxCell id="ZLGVQ2rk_Wr_WkTqdJoq-98" value="" style="shape=image;verticalLabelPosition=bottom;labelBackgroundColor=default;verticalAlign=top;aspect=fixed;imageAspect=0;image=https://sigops.org/s/conferences/hotos/2021/img/vmware.jpeg;" parent="1" vertex="1">
          <mxGeometry x="739.59" y="-773.5" width="103.51" height="18" as="geometry" />
        </mxCell>
        <mxCell id="hKqQR7SNl7emJNjIKAzz-3" value="" style="edgeStyle=orthogonalEdgeStyle;rounded=0;orthogonalLoop=1;jettySize=auto;html=1;strokeColor=#009900;" parent="1" source="r8kyTGd4MDTlxssYAJR3-8" target="ZLGVQ2rk_Wr_WkTqdJoq-90" edge="1">
          <mxGeometry relative="1" as="geometry">
            <Array as="points">
              <mxPoint x="550" y="-747" />
              <mxPoint x="550" y="-747" />
            </Array>
          </mxGeometry>
        </mxCell>
        <mxCell id="N_ae5W9qRV80UMjD5rNb-125" value="" style="shape=image;verticalLabelPosition=bottom;labelBackgroundColor=default;verticalAlign=top;aspect=fixed;imageAspect=0;image=https://static-00.iconduck.com/assets.00/harbor-icon-2034x2048-hl34ycc9.png;clipPath=inset(0% 0% 0% 0.34% round 49%);" parent="1" vertex="1">
          <mxGeometry x="804" y="-732.23" width="29.7" height="30" as="geometry" />
        </mxCell>
        <mxCell id="8N1gZI2geE5Co_WE50Yg-55" value="" style="edgeStyle=orthogonalEdgeStyle;rounded=0;orthogonalLoop=1;jettySize=auto;html=1;strokeColor=#6600CC;" parent="1" source="A0nYaDOjtjgqWgvlFO7J-40" target="k0CTzh7-vUOgCoUulJSG-6" edge="1">
          <mxGeometry relative="1" as="geometry">
            <mxPoint x="-550" y="-908" as="targetPoint" />
            <Array as="points">
              <mxPoint x="-602" y="124" />
              <mxPoint x="-602" y="-908" />
            </Array>
            <mxPoint x="375" y="-6.947368421052488" as="sourcePoint" />
          </mxGeometry>
        </mxCell>
        <mxCell id="8N1gZI2geE5Co_WE50Yg-59" value="" style="shape=image;verticalLabelPosition=bottom;labelBackgroundColor=default;verticalAlign=top;aspect=fixed;imageAspect=0;image=https://forwardsecurity.com/wp-content/uploads/2021/01/owasp-zap-logo.png;clipPath=inset(0% 15% 0% 17% round 49%);" parent="1" vertex="1">
          <mxGeometry x="626.0000000000001" y="-305" width="40.32" height="34" as="geometry" />
        </mxCell>
        <mxCell id="M3g-iL46mZoVw6gJNN7h-11" value="" style="edgeStyle=orthogonalEdgeStyle;rounded=0;orthogonalLoop=1;jettySize=auto;html=1;exitX=0.5;exitY=1;exitDx=0;exitDy=0;strokeColor=#FF0000;" parent="1" edge="1">
          <mxGeometry relative="1" as="geometry">
            <mxPoint x="-889.5" y="-12" as="sourcePoint" />
            <Array as="points">
              <mxPoint x="-890" y="7" />
              <mxPoint x="-1274" y="7" />
              <mxPoint x="-1274" y="-85" />
            </Array>
          </mxGeometry>
        </mxCell>
        <mxCell id="M3g-iL46mZoVw6gJNN7h-13" value="" style="edgeStyle=orthogonalEdgeStyle;rounded=0;orthogonalLoop=1;jettySize=auto;html=1;strokeColor=#009900;" parent="1" edge="1">
          <mxGeometry relative="1" as="geometry">
            <Array as="points">
              <mxPoint x="-1112" y="-109" />
              <mxPoint x="-1300" y="-109" />
              <mxPoint x="-1300" y="25" />
              <mxPoint x="-788" y="25" />
            </Array>
            <mxPoint x="-788" y="-60.17000000000007" as="targetPoint" />
          </mxGeometry>
        </mxCell>
        <mxCell id="A0nYaDOjtjgqWgvlFO7J-14" value="" style="rounded=0;whiteSpace=wrap;html=1;fillColor=#FFFFFF;" parent="1" vertex="1">
          <mxGeometry x="89" y="-348" width="306" height="411" as="geometry" />
        </mxCell>
        <mxCell id="A0nYaDOjtjgqWgvlFO7J-16" value="&lt;b&gt;Container&lt;/b&gt;" style="image;sketch=0;aspect=fixed;html=1;points=[];align=center;fontSize=12;image=img/lib/mscae/Docker.svg;clipPath=inset(0% 0% 30.95% 0%);" parent="1" vertex="1">
          <mxGeometry x="120" y="-324" width="29.31" height="17" as="geometry" />
        </mxCell>
        <mxCell id="jJeJy1seHARlF9KhycA6-19" value="" style="edgeStyle=orthogonalEdgeStyle;rounded=0;orthogonalLoop=1;jettySize=auto;html=1;strokeColor=#009900;" parent="1" source="A0nYaDOjtjgqWgvlFO7J-26" edge="1">
          <mxGeometry relative="1" as="geometry">
            <mxPoint x="445" y="-193.49999999999977" as="targetPoint" />
            <Array as="points">
              <mxPoint x="433" y="-194" />
            </Array>
            <mxPoint x="363.4599999999996" y="-193.46153846153857" as="sourcePoint" />
          </mxGeometry>
        </mxCell>
        <mxCell id="A0nYaDOjtjgqWgvlFO7J-18" value="" style="edgeStyle=orthogonalEdgeStyle;rounded=0;orthogonalLoop=1;jettySize=auto;html=1;strokeColor=#6600CC;" parent="1" source="A0nYaDOjtjgqWgvlFO7J-48" target="A0nYaDOjtjgqWgvlFO7J-20" edge="1">
          <mxGeometry relative="1" as="geometry">
            <Array as="points" />
            <mxPoint x="142.28571428571422" y="-275.40999999999985" as="sourcePoint" />
            <mxPoint x="53.90943999999945" y="-141.23999999999978" as="targetPoint" />
          </mxGeometry>
        </mxCell>
        <mxCell id="A0nYaDOjtjgqWgvlFO7J-19" value="" style="edgeStyle=orthogonalEdgeStyle;rounded=0;orthogonalLoop=1;jettySize=auto;html=1;strokeColor=#009900;" parent="1" source="A0nYaDOjtjgqWgvlFO7J-20" edge="1">
          <mxGeometry relative="1" as="geometry">
            <mxPoint x="247.0434782608695" y="-240" as="targetPoint" />
            <Array as="points">
              <mxPoint x="247" y="-270" />
              <mxPoint x="247" y="-270" />
            </Array>
            <mxPoint x="127.14000000000124" y="-104" as="sourcePoint" />
          </mxGeometry>
        </mxCell>
        <mxCell id="A0nYaDOjtjgqWgvlFO7J-20" value="" style="shape=image;verticalLabelPosition=bottom;labelBackgroundColor=default;verticalAlign=top;aspect=fixed;imageAspect=0;image=https://logos-download.com/wp-content/uploads/2016/02/Ubuntu.png;clipPath=inset(2.67% 2.67% 3.33% 3% round 49%);" parent="1" vertex="1">
          <mxGeometry x="236" y="-322" width="22.08" height="22" as="geometry" />
        </mxCell>
        <mxCell id="A0nYaDOjtjgqWgvlFO7J-24" value="" style="shape=image;verticalLabelPosition=bottom;labelBackgroundColor=default;verticalAlign=top;aspect=fixed;imageAspect=0;image=https://servervds.com/mag/wp-content/uploads/2020/09/apache.jpg;clipPath=inset(6.67% 6.67% 31.67% 6.33%);" parent="1" vertex="1">
          <mxGeometry x="312" y="-318.88" width="52.7" height="22.41" as="geometry" />
        </mxCell>
        <mxCell id="A0nYaDOjtjgqWgvlFO7J-26" value="" style="rounded=0;whiteSpace=wrap;html=1;fillColor=#FFFFFF;" parent="1" vertex="1">
          <mxGeometry x="178" y="-240" width="138" height="279" as="geometry" />
        </mxCell>
        <mxCell id="A0nYaDOjtjgqWgvlFO7J-28" value="" style="shape=image;verticalLabelPosition=bottom;labelBackgroundColor=default;verticalAlign=top;aspect=fixed;imageAspect=0;image=https://logodownload.org/wp-content/uploads/2018/03/nginx-logo-1.png;" parent="1" vertex="1">
          <mxGeometry x="236" y="-223" width="28.57" height="32.78" as="geometry" />
        </mxCell>
        <mxCell id="A0nYaDOjtjgqWgvlFO7J-33" value="" style="shape=image;verticalLabelPosition=bottom;labelBackgroundColor=default;verticalAlign=top;aspect=fixed;imageAspect=0;image=https://seeklogo.com/images/R/rabbitmq-logo-25641A76DE-seeklogo.com.png;fontStyle=1" parent="1" vertex="1">
          <mxGeometry x="239.85000000000002" y="-165.91000000000003" width="27.45" height="29" as="geometry" />
        </mxCell>
        <mxCell id="A0nYaDOjtjgqWgvlFO7J-39" value="" style="edgeStyle=orthogonalEdgeStyle;rounded=0;orthogonalLoop=1;jettySize=auto;html=1;strokeColor=#009900;" parent="1" source="A0nYaDOjtjgqWgvlFO7J-26" target="A0nYaDOjtjgqWgvlFO7J-40" edge="1">
          <mxGeometry relative="1" as="geometry">
            <mxPoint x="501" y="-191" as="sourcePoint" />
            <mxPoint x="247" y="138" as="targetPoint" />
            <Array as="points" />
          </mxGeometry>
        </mxCell>
        <mxCell id="A0nYaDOjtjgqWgvlFO7J-40" value="" style="shape=image;verticalLabelPosition=bottom;labelBackgroundColor=default;verticalAlign=top;aspect=fixed;imageAspect=0;image=https://res.cloudinary.com/lumigo-production/w_190,h_190,c_fit/dpr_auto,w_auto,q_auto:eco/wp-website/2024/01/zipkin-logo.png;" parent="1" vertex="1">
          <mxGeometry x="222" y="98.99999999999997" width="49" height="49" as="geometry" />
        </mxCell>
        <mxCell id="jJeJy1seHARlF9KhycA6-27" value="" style="edgeStyle=orthogonalEdgeStyle;rounded=0;orthogonalLoop=1;jettySize=auto;html=1;strokeColor=#FF0000;" parent="1" source="A0nYaDOjtjgqWgvlFO7J-42" target="A0nYaDOjtjgqWgvlFO7J-26" edge="1">
          <mxGeometry relative="1" as="geometry">
            <mxPoint x="354" y="-146" as="sourcePoint" />
            <mxPoint x="257" y="-145.97142857142853" as="targetPoint" />
            <Array as="points">
              <mxPoint x="324" y="-151" />
              <mxPoint x="336" y="-151" />
            </Array>
          </mxGeometry>
        </mxCell>
        <mxCell id="A0nYaDOjtjgqWgvlFO7J-42" value="" style="shape=image;verticalLabelPosition=bottom;labelBackgroundColor=default;verticalAlign=top;aspect=fixed;imageAspect=0;image=https://iexcel-technologies.com/wp-content/uploads/2023/07/Jmeter.jpg;clipPath=inset(13.33% 11.67% 13.33% 14%);" parent="1" vertex="1">
          <mxGeometry x="344" y="-165.47000000000003" width="28.5" height="28.12" as="geometry" />
        </mxCell>
        <mxCell id="A0nYaDOjtjgqWgvlFO7J-48" value="" style="shape=image;verticalLabelPosition=bottom;labelBackgroundColor=default;verticalAlign=top;aspect=fixed;imageAspect=0;image=https://www.docker.com/wp-content/uploads/2023/10/home-hero-scout.png;clipPath=inset(5.91% 10% 7.35% 10.33%);" parent="1" vertex="1">
          <mxGeometry x="183" y="-324" width="26.52" height="26.85" as="geometry" />
        </mxCell>
        <mxCell id="A0nYaDOjtjgqWgvlFO7J-55" value="" style="edgeStyle=orthogonalEdgeStyle;rounded=0;orthogonalLoop=1;jettySize=auto;html=1;strokeColor=#FF0000;entryX=0;entryY=0.5;entryDx=0;entryDy=0;" parent="1" source="A0nYaDOjtjgqWgvlFO7J-14" target="jJeJy1seHARlF9KhycA6-10" edge="1">
          <mxGeometry relative="1" as="geometry">
            <mxPoint x="600" y="-81.94736842105249" as="targetPoint" />
            <Array as="points">
              <mxPoint x="423" y="-68" />
              <mxPoint x="423" y="-68" />
            </Array>
            <mxPoint x="394" y="-81.94736842105249" as="sourcePoint" />
          </mxGeometry>
        </mxCell>
        <mxCell id="A0nYaDOjtjgqWgvlFO7J-74" value="" style="rounded=0;whiteSpace=wrap;html=1;" parent="1" vertex="1">
          <mxGeometry x="445.39" y="63" width="170" height="67" as="geometry" />
        </mxCell>
        <mxCell id="A0nYaDOjtjgqWgvlFO7J-75" value="" style="shape=image;verticalLabelPosition=bottom;labelBackgroundColor=default;verticalAlign=top;aspect=fixed;imageAspect=0;image=https://blog.myetv.tv/wp-content/uploads/2021/02/1200px-Grafana_logo.svg-1004x1024.png;fontStyle=1;clipPath=inset(0.33% 13.61% 22.67% 12.93%);" parent="1" vertex="1">
          <mxGeometry x="466.39" y="84" width="33.66" height="36" as="geometry" />
        </mxCell>
        <mxCell id="A0nYaDOjtjgqWgvlFO7J-76" value="" style="shape=image;verticalLabelPosition=bottom;labelBackgroundColor=default;verticalAlign=top;aspect=fixed;imageAspect=0;image=https://creazilla-store.fra1.digitaloceanspaces.com/icons/3254231/prometheus-icon-md.png;clipPath=inset(0% 0% 0% 0.17% round 49%);" parent="1" vertex="1">
          <mxGeometry x="518.39" y="86" width="33.83" height="34" as="geometry" />
        </mxCell>
        <mxCell id="A0nYaDOjtjgqWgvlFO7J-77" value="" style="shape=image;verticalLabelPosition=bottom;labelBackgroundColor=default;verticalAlign=top;aspect=fixed;imageAspect=0;image=data:image/png,iVBORw0KGgoAAAANSUhEUgAAACgAAAAzCAYAAADl70o1AAAAAXNSR0IArs4c6QAAAARnQU1BAACxjwv8YQUAAAAJcEhZcwAADsMAAA7DAcdvqGQAAApPSURBVGhDzZhZjJ11Gcbf851tzjbnzNZZ2umUTpkKilpFAVNQQ7jRC72ziRcQExMvBLfIBXEP0RgvJNxUMEYL2siaiEtCjEpKiAIpW0uBbtOh0+l09pmz7/ye7zvjKdNpxLQf039y5jvzbf/n/77P87zv/wSaDFsdjYZZgGPA8f6/AkYbSW7J7MBjZoeeNSvmWic3frQBVktmR18wexaQy3Nm5wV2I0cbYDJjNjRqNv2G2eKU2fhrZjOnzWrV1g0bM9oAg2GzeMKsQvSmj5s9dDcp32+WJ/UbOBxr1M3KRYSBOuJps3DILJE0qy+TaiJZq7Ru3Zjh2MG/m/3lAbOVeS/FPXxOvARoAAqcFrB2uPx8fzjq2BvPmT2z12x2wqxryKx7wOzUfzhejXDgXxbg9Zp3d7lg9uLT3P9Hs/lp75zPw7GRD/IXWxk/6J2JxuHdGbOdnzQrAW7mhKdwiaWYNTvzJgD3saBx736fh+N6XijoAVRKE6i5uWKWgo/ls/jjjBfBh79n9tt7APgW54h2Nd96hb8DgHDNoYLkFz2+bdtlFkMkU4dRNBFrALrJ9Z03Apj/54hcfYHFsLD1+HmZh2OTR0hrP5MCpALHNpPy1CZSeBSgvV6FKQNm6zXcDsCoVD5sNokViZ8+D8fmSdnYzUSpDKiTAMALwxEu8f+WD3lAs+c8bgYAOrjNrBeAbx0wW8DIfR6OlYnQNbcAEE5NIwBZSKzPM+5UN/ZzCnFwj0CnABYBqIO/Z/HIiv88dCyCQGqotEoFKcIt8W3sNoRDKhcBV0EoDa5HOsy2o+wVollUreZcnSjrfh+HY11bMWaaBCNCshNNumM3EZNwiFK402yJowQxMMa5SbM0EY4BeB5KFFG8j8Nx03j2VbN+xJEnMivYSieiCSKYRMqrLBP/NitwrYP0GqofvZ50w9XTLCw3673Jp0GKY0SBSbZ+lMkg/TIfh/SGiVK8iy6nB2t5Hc0ALMq9Efwxgg0F8cYC6a5Sx30cjnVD/ACTGzZTxTZcA6ZxGL6JtKp6ENEKnwapTw+iYpQ9g5gqXAvA3wZAfewdHRvFgBWZc/SB8sIqqW0y6TCCqKJeicEB8Ao8lAX1YDNzmHga7obgbRYRSWQ+DccGMeAoAPJMlCaai1QKGXMKHjaJbN92vtNEnH6eqMmo4WENtY9+ChoQuVnAlpQBf4ZjcUQSxtdkK307iSSCKVH2QqhUkesEXAwlK2plFKsoqnardzT+L9LVSPk+DcdCUdL2Eb4BMgigUmvCDkD1wLcSaa4ROX2a8K6fiGdGMHUthEga9uPWZH946Jg66as/D+HxvSweVyd6agRUMTZdxzlSLtUqmmq/MtAgvRmhvMJ5VK5OR0B9ahy8PcnwDQAkagEi1EHKZ7AVt/XCaspEdDO+F0UQM2ykmgCRNSmiWkAF0MvqcPxJswdQ3YuDvSQB1Ik6J/5JVMRDgBgK7fsAoIjgMo1FDZW7DQU8TBDBGgZelg0RSR+GBzDMhGqhgkRJYslRwuoYcBIlpwBcQOF19X+cUwQ3E/E4aV/CD1XDxU2farIH0CEaQ/hhBbuo8qkzaZ2IprbAOfYmcy8DnkVoVEltP6KKIyLxMwhQqbvKAnwYHkAJZROKrcA3qTfE6aVjTE7L1UEacwDp+xhRgpcr7FGU+hDPaIvaRQOxTM+ofYwPwwOo0haj5qon7L3WE8o0OzuVvRAgm0Stj2bCiFKOFkyVJsI9URYjHy2xmIo/TUMLIENWEsacJYAgkSlgOW79pZJE6WpkyDXS7/IQvg3QhbuNBvepsqgj94GHbYAxItGNWvN0MwFMV0BUm7uxkjh75QV4qEhrE1VH2QM0EzJ2RS7EotTZiMOXebQBRildEkQejqV3cIXJCzQIHaReLVaJ7500CmWAqNqIEmq54myskih9jp5RXL0sQ1XJq0xtgEFKngRRJSJDnyYq3LDUMmbVXm1NBbyMGErYjn7kDPOMzFzRz9MNVQD//w61dDk4PPEbs8Pf4vNt9t6PMI/H6TZA9XbimgMwbZoCKmFESh6XRjiq2TXVZZky6VdT2/1xoivVa3FE1OF4weB98lRRocTi8njs7L/Mjv3c7NWvmr1yh9kRQE3spVH5E9eegk7PAJC5GYF3/QQ896LZoXtpEihtZ/8KAI7XftcTyJGfesoVP6+6nXvwzfzbAJb/QQdFOoWgIgCtUoUK+vVBokI8RYBlD3nR1/81fFNUkejUbPC4O9wjfzLwe9s3mP/mNQBLROe1H/FC+CYPzHyYnRxgwnBwCsAy6xjtl4CEoYNUq2jq/ixVRZUoQ1RXADP1KOdlSWSghl1J6XXKpPHMfwHxRd9XgQVxhRjv7rkVW/sC9BlbA1B8mFdjSiWJQH51KwmEIWOWQgOkVZHKw5kEL1Lqzj4JV4l8CfV30IaNsnJFb+J+7gP06lgF435v/QlnEBhB6NzFXPQDqkpRjh3af2vjFlsDUEMWojInM9alMLzUyqb/BjcOAJQoi8A7f8jLsJ9xgMxwrQ4/E/SKYz9mQTxzEkoso2zx0uF5dyPGgpPYVhLTF12C3BdhnxOB87quORVhYZAIAX0hwAr8Ofdn0oTvVeHKwBepLp+BvP9g0l+QNkiuCFz3IGUOs576Par7Hc+R5gQTb78HUVEWz+wjgkewIbatMbIgMAIeYVHaa4saEp0bEOYpjfM5znfaNwUowS6zd886ANU6vU6altjzitDDqGzkax7h30RtOfglgCPcMwQ/C/jmAqrUJFH8sPc2D5QUK84pakqvfqHQItQV6eflEgKrQIs6ZbQhjhIY/WqmXzEknAzvGfzOhQCboA+8/CVIr8rBpfQnzHaQNnHy5M+8NMSJSCcKT7Pz09N6ub4olSEEFaRkFuBplkUKlK4LYJXFN7VrVNTUvgHM4L3Sque1EA0dEsw78M11IigRHMafcuw5oig2s5uV7PF4kqdhFQip2lHvSKpkpSXUmnuJI9GMQvDMZwEEmKn7OA9IKVlA9G7ZlAtGR551cIsA75IPi4cRthMxlVeEk7xpHYAai4hBHhXG01xFicSQXemQl5VJTVm/0QA+Qs848wfU/zigUG8Kfxz8OkBR9Nvfhyrw2QXDEIigjJ20S7HuYhFJVLYFN3UuJPfgnTpyfX2A6vtUulT2lAZFJcaWtEjaZhFFgT1LgxT1E+muz6HwXwFwPwsglTEajoG7AA+HplDyClVBwgihWgcflWoF3gWgzgmr0XeJaDWS542LA5yAdwVqsYSSoJkdupMUEqHJn3DE3/SybsxUYBafAODDAESZcdLT9xUiifLz+t2biuFGByCu3RCl1ei5YNrVdr1xEYBw5eiX4Q8+JkVpgtFfcx4eTVFDi1IyL04qnXezCBRcFGj4JA5F6bLDGK7LPV6v8wYYVwQtIbzHsT5AjdM/IDIUb71U6Rn5JZPCxWVZCnbgsG+OkKoEnqeIqOwJyJoUXeq4OMACUSqhWq1YYJLs5MQTCUXRC+inEdL8P1J0qePiAK+Q4e/yL3mYvQP/7yXLnTgGlAAAAABJRU5ErkJggg==;" parent="1" vertex="1">
          <mxGeometry x="570.39" y="87" width="25.88" height="33" as="geometry" />
        </mxCell>
        <mxCell id="A0nYaDOjtjgqWgvlFO7J-78" value="" style="edgeStyle=orthogonalEdgeStyle;rounded=0;orthogonalLoop=1;jettySize=auto;html=1;strokeColor=#6600CC;" parent="1" source="A0nYaDOjtjgqWgvlFO7J-79" target="A0nYaDOjtjgqWgvlFO7J-74" edge="1">
          <mxGeometry relative="1" as="geometry">
            <Array as="points">
              <mxPoint x="534" y="70" />
              <mxPoint x="534" y="70" />
            </Array>
          </mxGeometry>
        </mxCell>
        <mxCell id="A0nYaDOjtjgqWgvlFO7J-79" value="" style="rounded=0;whiteSpace=wrap;html=1;" parent="1" vertex="1">
          <mxGeometry x="445" y="-28" width="170" height="62" as="geometry" />
        </mxCell>
        <mxCell id="A0nYaDOjtjgqWgvlFO7J-85" value="" style="edgeStyle=orthogonalEdgeStyle;rounded=0;orthogonalLoop=1;jettySize=auto;html=1;strokeColor=#6600CC;" parent="1" source="A0nYaDOjtjgqWgvlFO7J-79" edge="1">
          <mxGeometry relative="1" as="geometry">
            <mxPoint x="394" y="-7.999999999999773" as="targetPoint" />
            <Array as="points">
              <mxPoint x="426" y="-8" />
              <mxPoint x="426" y="-8" />
            </Array>
            <mxPoint x="538" y="-21" as="sourcePoint" />
          </mxGeometry>
        </mxCell>
        <mxCell id="A0nYaDOjtjgqWgvlFO7J-86" value="" style="edgeStyle=orthogonalEdgeStyle;rounded=0;orthogonalLoop=1;jettySize=auto;html=1;strokeColor=#FF0000;" parent="1" source="A0nYaDOjtjgqWgvlFO7J-14" target="A0nYaDOjtjgqWgvlFO7J-79" edge="1">
          <mxGeometry relative="1" as="geometry">
            <mxPoint x="394" y="19" as="sourcePoint" />
            <Array as="points">
              <mxPoint x="423" y="9" />
              <mxPoint x="423" y="9" />
            </Array>
            <mxPoint x="523" y="6" as="targetPoint" />
          </mxGeometry>
        </mxCell>
        <mxCell id="A0nYaDOjtjgqWgvlFO7J-87" style="edgeStyle=orthogonalEdgeStyle;rounded=0;orthogonalLoop=1;jettySize=auto;html=1;strokeColor=#6600CC;" parent="1" source="A0nYaDOjtjgqWgvlFO7J-74" target="A0nYaDOjtjgqWgvlFO7J-14" edge="1">
          <mxGeometry relative="1" as="geometry">
            <mxPoint x="444" y="91" as="sourcePoint" />
            <mxPoint x="394" y="70.05263157894751" as="targetPoint" />
            <Array as="points">
              <mxPoint x="337" y="84" />
            </Array>
          </mxGeometry>
        </mxCell>
        <mxCell id="A0nYaDOjtjgqWgvlFO7J-88" value="" style="edgeStyle=orthogonalEdgeStyle;rounded=0;orthogonalLoop=1;jettySize=auto;html=1;strokeColor=#009900;" parent="1" source="A0nYaDOjtjgqWgvlFO7J-14" target="A0nYaDOjtjgqWgvlFO7J-74" edge="1">
          <mxGeometry relative="1" as="geometry">
            <mxPoint x="394" y="99" as="sourcePoint" />
            <mxPoint x="842" y="47" as="targetPoint" />
            <Array as="points">
              <mxPoint x="292" y="105" />
            </Array>
          </mxGeometry>
        </mxCell>
        <mxCell id="A0nYaDOjtjgqWgvlFO7J-137" value="" style="edgeStyle=orthogonalEdgeStyle;rounded=0;orthogonalLoop=1;jettySize=auto;html=1;strokeColor=#009900;" parent="1" source="ZLGVQ2rk_Wr_WkTqdJoq-90" target="ZLGVQ2rk_Wr_WkTqdJoq-13" edge="1">
          <mxGeometry relative="1" as="geometry">
            <Array as="points">
              <mxPoint x="792" y="-810" />
              <mxPoint x="792" y="-810" />
            </Array>
            <mxPoint x="191" y="-872" as="targetPoint" />
            <mxPoint x="254" y="-868" as="sourcePoint" />
          </mxGeometry>
        </mxCell>
        <mxCell id="A0nYaDOjtjgqWgvlFO7J-140" value="" style="edgeStyle=orthogonalEdgeStyle;rounded=0;orthogonalLoop=1;jettySize=auto;html=1;strokeColor=#009900;" parent="1" source="A0nYaDOjtjgqWgvlFO7J-142" target="A0nYaDOjtjgqWgvlFO7J-141" edge="1">
          <mxGeometry relative="1" as="geometry" />
        </mxCell>
        <mxCell id="A0nYaDOjtjgqWgvlFO7J-141" value="SRE" style="shape=image;verticalLabelPosition=bottom;labelBackgroundColor=none;verticalAlign=top;aspect=fixed;imageAspect=0;image=data:image/svg+xml,PHN2ZyB4bWxuczpjYz0iaHR0cDovL2NyZWF0aXZlY29tbW9ucy5vcmcvbnMjIiB4bWxuczpkYz0iaHR0cDovL3B1cmwub3JnL2RjL2VsZW1lbnRzLzEuMS8iIHhtbG5zOmlua3NjYXBlPSJodHRwOi8vd3d3Lmlua3NjYXBlLm9yZy9uYW1lc3BhY2VzL2lua3NjYXBlIiB4bWxuczpyZGY9Imh0dHA6Ly93d3cudzMub3JnLzE5OTkvMDIvMjItcmRmLXN5bnRheC1ucyMiIHhtbG5zOnNvZGlwb2RpPSJodHRwOi8vc29kaXBvZGkuc291cmNlZm9yZ2UubmV0L0RURC9zb2RpcG9kaS0wLmR0ZCIgeG1sbnM6c3ZnPSJodHRwOi8vd3d3LnczLm9yZy8yMDAwL3N2ZyIgeG1sbnM9Imh0dHA6Ly93d3cudzMub3JnLzIwMDAvc3ZnIiB4bWxuczp4bGluaz0iaHR0cDovL3d3dy53My5vcmcvMTk5OS94bGluayIgdmVyc2lvbj0iMS4xIiBpZD0ic3ZnMzExODM2IiBpbmtzY2FwZTp2ZXJzaW9uPSIwLjkyLjMgKDI0MDU1NDYsIDIwMTgtMDMtMTEpIiBzb2RpcG9kaTpkb2NuYW1lPSJkZXZlbG9wZXJfNS5zdmciIHg9IjBweCIgeT0iMHB4IiB2aWV3Qm94PSIwIDAgMTkuMjkgNDguMDciIHN0eWxlPSJlbmFibGUtYmFja2dyb3VuZDpuZXcgMCAwIDE5LjI5IDQ4LjA3OyIgeG1sOnNwYWNlPSJwcmVzZXJ2ZSI+JiN4YTs8c29kaXBvZGk6bmFtZWR2aWV3IGJvcmRlcmNvbG9yPSIjNjY2NjY2IiBib3JkZXJvcGFjaXR5PSIxIiBmaXQtbWFyZ2luLWJvdHRvbT0iMCIgZml0LW1hcmdpbi1sZWZ0PSIwIiBmaXQtbWFyZ2luLXJpZ2h0PSIwIiBmaXQtbWFyZ2luLXRvcD0iMCIgZ3JpZHRvbGVyYW5jZT0iMTAiIGd1aWRldG9sZXJhbmNlPSIxMCIgaWQ9Im5hbWVkdmlldzMxMTgzOCIgaW5rc2NhcGU6Y3VycmVudC1sYXllcj0ic3ZnMzExODM2IiBpbmtzY2FwZTpjeD0iMTIuODYzMjIyIiBpbmtzY2FwZTpjeT0iMzIuMDQ4MDkyIiBpbmtzY2FwZTpwYWdlb3BhY2l0eT0iMCIgaW5rc2NhcGU6cGFnZXNoYWRvdz0iMiIgaW5rc2NhcGU6d2luZG93LWhlaWdodD0iMTAxNyIgaW5rc2NhcGU6d2luZG93LW1heGltaXplZD0iMSIgaW5rc2NhcGU6d2luZG93LXdpZHRoPSIxOTIwIiBpbmtzY2FwZTp3aW5kb3cteD0iLTgiIGlua3NjYXBlOndpbmRvdy15PSItOCIgaW5rc2NhcGU6em9vbT0iMTMuNTI3NzczIiBvYmplY3R0b2xlcmFuY2U9IjEwIiBwYWdlY29sb3I9IiNmZmZmZmYiIHNob3dncmlkPSJmYWxzZSI+JiN4YTsJPC9zb2RpcG9kaTpuYW1lZHZpZXc+JiN4YTs8ZyBpZD0iZzMxMTgzNCIgdHJhbnNmb3JtPSJ0cmFuc2xhdGUoLTAuMDAxNzcxNzcsMC4wMDM0KSI+JiN4YTsJPHRpdGxlIGlkPSJ0aXRsZTMxMTYyOSI+UGFnZS0xPC90aXRsZT4mI3hhOwk8ZyBpZD0iZ3JvdXA3MDY1LTEiPiYjeGE7CQk8dGl0bGUgaWQ9InRpdGxlMzExNjMxIj5EZXZlbG9wZXIgIzU8L3RpdGxlPiYjeGE7CQk8ZyBpZD0ic2hhcGU3MDY2LTIiIHRyYW5zZm9ybT0idHJhbnNsYXRlKDExLjQ3MzcsLTEuMzYyMjQpIj4mI3hhOwkJCTx0aXRsZSBpZD0idGl0bGUzMTE2MzMiPlNoZWV0LjcwNjY8L3RpdGxlPiYjeGE7CQkJPHBhdGggaWQ9InBhdGgzMTE2MzUiIGlua3NjYXBlOmNvbm5lY3Rvci1jdXJ2YXR1cmU9IjAiIGQ9Ik0wLDQ3Ljk3bDIuMzEsMC4xbDAuMDItMi45MmgtMi4xTDAsNDcuOTd6Ii8+JiN4YTsJCTwvZz4mI3hhOwkJPGcgaWQ9InNoYXBlNzA2Ny00IiB0cmFuc2Zvcm09InRyYW5zbGF0ZSgxMC44OTA0KSI+JiN4YTsJCQk8dGl0bGUgaWQ9InRpdGxlMzExNjM4Ij5TaGVldC43MDY3PC90aXRsZT4mI3hhOwkJCTxwYXRoIGlkPSJwYXRoMzExNjQwIiBpbmtzY2FwZTpjb25uZWN0b3ItY3VydmF0dXJlPSIwIiBzdHlsZT0iZmlsbDojNUMyRDkxOyIgZD0iTTAsNDcuODZjMi4xNiwwLjExLDIuMTYsMC4xMSwyLjE2LDAuMTEgICAgIGMwLjEyLTAuMzMsMC4xMi0wLjMzLDAuMTItMC4zM2MwLjcxLDAuMTEsMi4xNiwwLjMzLDIuOTgsMC40M2MwLjU2LDAsMS4zNCwwLDEuNzktMC4yMWMwLDAsMC4xNC0wLjExLDAuMTQtMC4yMiAgICAgYzAtMC44Ni0zLjQyLTEuMzItNC4zMS0yLjNjLTAuMTIsMC0wLjEyLDAtMC4xMiwwQzIuNSw0NS41NiwyLjI4LDQ2LDEuNzMsNDZjLTAuNTYsMC0xLjAxLTAuNTUtMS4yNC0wLjY2ICAgICBDMC4xMiw0NS41NiwwLDQ3Ljc1LDAsNDcuODZ6Ii8+JiN4YTsJCTwvZz4mI3hhOwkJPGcgaWQ9InNoYXBlNzA2OC02IiB0cmFuc2Zvcm09InRyYW5zbGF0ZSgzLjExMjg1LC0wLjM4OTIxMykiPiYjeGE7CQkJPHRpdGxlIGlkPSJ0aXRsZTMxMTY0MyI+U2hlZXQuNzA2ODwvdGl0bGU+JiN4YTsJCQk8cGF0aCBpZD0icGF0aDMxMTY0NSIgaW5rc2NhcGU6Y29ubmVjdG9yLWN1cnZhdHVyZT0iMCIgc3R5bGU9ImZpbGw6IzVDMkQ5MTsiIGQ9Ik0xLjE1LDQ1LjM0YzAsMC40OCwwLDAuNDgsMCwwLjQ4ICAgICBDMCw0Ny4zNSwwLDQ3LjM1LDAsNDcuMzVjMCwwLjUxLDAsMC41MSwwLDAuNTFjMCwwLjExLDAuMTEsMC4yMSwwLjIyLDAuMjFjMi40NywwLDIuNDcsMCwyLjQ3LDBjMC4yNSwwLDAuNDItMC4yMSwwLjQyLTAuNDMgICAgIGMwLTEuNDksMC0xLjQ5LDAtMS40OWMwLTAuNDgsMC0wLjQ4LDAtMC40OGMwLTAuMzMsMC0wLjMzLDAtMC4zM0wxLjE1LDQ1LjM0eiIvPiYjeGE7CQk8L2c+JiN4YTsJCTxnIGlkPSJzaGFwZTcwNjktOCIgdHJhbnNmb3JtPSJ0cmFuc2xhdGUoNC4yNzk0OCwtMy4xMTM3KSI+JiN4YTsJCQk8dGl0bGUgaWQ9InRpdGxlMzExNjQ4Ij5TaGVldC43MDY5PC90aXRsZT4mI3hhOwkJCTxwYXRoIGlkPSJwYXRoMzExNjUwIiBpbmtzY2FwZTpjb25uZWN0b3ItY3VydmF0dXJlPSIwIiBzdHlsZT0iZmlsbDojMDA3OEQ3OyIgZD0iTTcuMyw0OC4wN2MtMC4xOC0xLjE3LDAuMjMtNi45NC0wLjAzLTExLjA4ICAgICBjLTAuMjYtNC4wNC0xLjI1LTUuNjktMS4yNS01LjY5cy0wLjMzLTAuMjItMC40MSwwLjFjLTAuMDMsMC4xNS0xLjg4LDUuMy0xLjg4LDUuM3MtMS4yMSw5LjM1LTEuNywxMS4zN2MtMi4wMywwLTIuMDMsMC0yLjAzLDAgICAgIGMwLjUyLTEyLjAxLDAuNTItMTIuMDEsMC41Mi0xMi4wMWMwLjg5LTguNjIsMC44OS04LjYyLDAuODktOC42MmM4LjM3LTMuMzEsOC4zNy0zLjMxLDguMzctMy4zMWMtMC4yMywxLjE4LDAuOTEsNy4yLDAuODgsMTIuNzUgICAgIGMtMC4wOCw0LjY5LTEuMTQsMTAuMzEtMS4xMSwxMS4xOUw3LjMsNDguMDd6Ii8+JiN4YTsJCTwvZz4mI3hhOwkJPGcgaWQ9InNoYXBlNzA3MC0xMCIgdHJhbnNmb3JtPSJ0cmFuc2xhdGUoMy44OTA2LC0yLjkxOTA5KSI+JiN4YTsJCQk8dGl0bGUgaWQ9InRpdGxlMzExNjUzIj5TaGVldC43MDcwPC90aXRsZT4mI3hhOwkJCTxwYXRoIGlkPSJwYXRoMzExNjU1IiBpbmtzY2FwZTpjb25uZWN0b3ItY3VydmF0dXJlPSIwIiBzdHlsZT0iZmlsbDojMDA3OEQ3OyIgZD0iTTIuNjEsNDguMDdjLTIuNjEsMC0yLjYxLDAtMi42MSwwICAgICBjMC41Ni0xMi4zNCwwLjU2LTEyLjM0LDAuNTYtMTIuMzRjMC44Ny04Ljc5LDAuODctOC43OSwwLjg3LTguNzljOS4wNS0zLjU5LDkuMDUtMy41OSw5LjA1LTMuNTljLTAuMTEsMC41Ni0wLjExLDAuNTYtMC4xMSwwLjU2ICAgICBjLTAuMDgsMC40OCwwLjA3LDEuOTQsMC4yNSwzLjYzYzAuMjksMi40NCwwLjY2LDUuODEsMC42Miw5LjAzYy0wLjA0LDMuMDgtMC41MSw2LjU2LTAuODQsOC44M2MtMC4xNCwxLjE3LTAuMjUsMi4wNS0wLjI1LDIuMzQgICAgIGMwLjAzLDAuMzMsMC4wMywwLjMzLDAuMDMsMC4zM2MtMi44MywwLTIuODMsMC0yLjgzLDBjLTAuMDctMC4yNi0wLjA3LTAuMjYtMC4wNy0wLjI2Yy0wLjA3LTAuNTQtMC4wNC0xLjkzLDAtMy43ICAgICBjMC4wNy0yLjI2LDAuMTEtNS4wOC0wLjA0LTcuNDNjLTAuMTgtMy4xOC0wLjg1LTQuODMtMS4wNy01LjM0Yy0wLjI5LDAuODEtMS41NCw0LjI5LTEuODMsNS4xMmMtMC4wNywwLjctMS4yMiw5LjM4LTEuNjksMTEuMzUgICAgIEwyLjYxLDQ4LjA3eiBNMC42Nyw0Ny40NWMxLjQzLDAsMS40MywwLDEuNDMsMGMwLjUxLTIuNDEsMS42Mi0xMS4wMiwxLjY2LTExLjFjMC0wLjA3LDAtMC4wNywwLTAuMDdjMC43Mi0yLDEuODMtNS4xMiwxLjg3LTUuMjYgICAgIGMwLjA3LTAuMjIsMC4yMi0wLjMsMC4yOS0wLjMzYzAuMjktMC4xMSwwLjU1LDAuMDMsMC41OSwwLjA3YzAuMDgsMC4wNCwwLjA4LDAuMDQsMC4wOCwwLjA0YzAuMDMsMC4wNywwLjAzLDAuMDcsMC4wMywwLjA3ICAgICBjMC4wNCwwLjA3LDAuOTksMS43NSwxLjI0LDUuNzhjMC4xNSwyLjM4LDAuMDgsNS4yLDAuMDQsNy40NmMtMC4wNCwxLjQ0LTAuMDcsMi43Mi0wLjA0LDMuMzRjMS42OSwwLDEuNjksMCwxLjY5LDAgICAgIGMwLTAuNDQsMC4xMS0xLjEzLDAuMjctMi4xMmMwLjI5LTIuMjcsMC43Ni01LjcyLDAuOC04Ljc2YzAuMDQtMy4xOC0wLjMzLTYuNTItMC41OC04Ljk2Yy0wLjE4LTEuNTEtMC4yOS0yLjYtMC4yOS0zLjMgICAgIGMtNy43MiwzLjA4LTcuNzIsMy4wOC03LjcyLDMuMDhjLTAuODUsOC4zOC0wLjg1LDguMzgtMC44NSw4LjM4TDAuNjcsNDcuNDV6Ii8+JiN4YTsJCTwvZz4mI3hhOwkJPGcgaWQ9InNoYXBlNzA3MS0xMiIgdHJhbnNmb3JtPSJ0cmFuc2xhdGUoNC44NjI3OSwtMjMuNzQyKSI+JiN4YTsJCQk8dGl0bGUgaWQ9InRpdGxlMzExNjU4Ij5TaGVldC43MDcxPC90aXRsZT4mI3hhOwkJCTxwYXRoIGlkPSJwYXRoMzExNjYwIiBpbmtzY2FwZTpjb25uZWN0b3ItY3VydmF0dXJlPSIwIiBzdHlsZT0iZmlsbDojRTZFN0U4OyIgZD0iTTcuNTgsNDguMDdIMC4zNmwtMC4xMy04Ljg4TDAsMzQuNTRsNi44OS0wLjQ4ICAgICBMNy41OCw0OC4wN3oiLz4mI3hhOwkJPC9nPiYjeGE7CQk8ZyBpZD0ic2hhcGU3MDcyLTE0IiB0cmFuc2Zvcm09InRyYW5zbGF0ZSg0Ljg2Mjc5LC0zNS44MDc2KSI+JiN4YTsJCQk8dGl0bGUgaWQ9InRpdGxlMzExNjYzIj5TaGVldC43MDcyPC90aXRsZT4mI3hhOwkJCTxwYXRoIGlkPSJwYXRoMzExNjY1IiBpbmtzY2FwZTpjb25uZWN0b3ItY3VydmF0dXJlPSIwIiBzdHlsZT0iZmlsbDojRTZFN0U4OyIgZD0iTTAuNjYsNDguMDdMMCw0NS4ybDQuNjQtMS4wMmwwLjYxLDIuODQgICAgIEwwLjY2LDQ4LjA3eiIvPiYjeGE7CQk8L2c+JiN4YTsJCTxnIGlkPSJzaGFwZTcwNzMtMTYiIHRyYW5zZm9ybT0idHJhbnNsYXRlKDkuOTE4MTgsLTIzLjc0MikiPiYjeGE7CQkJPHRpdGxlIGlkPSJ0aXRsZTMxMTY2OCI+U2hlZXQuNzA3MzwvdGl0bGU+JiN4YTsJCQk8cGF0aCBpZD0icGF0aDMxMTY3MCIgaW5rc2NhcGU6Y29ubmVjdG9yLWN1cnZhdHVyZT0iMCIgc3R5bGU9ImZpbGw6I0U2RTdFODsiIGQ9Ik0wLDQ4LjA3aDQuNjdsMC4xNy04Ljg0bDAuMjItNC42M0wwLDM0LjI1ICAgICBWNDguMDd6Ii8+JiN4YTsJCTwvZz4mI3hhOwkJPGcgaWQ9InNoYXBlNzA3NC0xOCIgdHJhbnNmb3JtPSJ0cmFuc2xhdGUoOS41MjkzMSwtMzUuODA3NikiPiYjeGE7CQkJPHRpdGxlIGlkPSJ0aXRsZTMxMTY3MyI+U2hlZXQuNzA3NDwvdGl0bGU+JiN4YTsJCQk8cGF0aCBpZD0icGF0aDMxMTY3NSIgaW5rc2NhcGU6Y29ubmVjdG9yLWN1cnZhdHVyZT0iMCIgc3R5bGU9ImZpbGw6I0U2RTdFODsiIGQ9Ik01LjA2LDQ4LjA3bC01LjA2LTFsMC42LTIuODlsNS4wNCwxLjA0ICAgICBMNS4wNiw0OC4wN3oiLz4mI3hhOwkJPC9nPiYjeGE7CQk8ZyBpZD0ic2hhcGU3MDc1LTIwIiB0cmFuc2Zvcm09InRyYW5zbGF0ZSg3LjE5NjA1LC0zMi4zMDQ2KSI+JiN4YTsJCQk8dGl0bGUgaWQ9InRpdGxlMzExNjc4Ij5TaGVldC43MDc1PC90aXRsZT4mI3hhOwkJCTxwYXRoIGlkPSJwYXRoMzExNjgwIiBpbmtzY2FwZTpjb25uZWN0b3ItY3VydmF0dXJlPSIwIiBzdHlsZT0iZmlsbDojMDBCMjk0OyIgZD0iTTQuNDEsNDYuMDJjLTAuMTgsMC0wLjM2LDAuMDQtMC41MiwwLjE1ICAgICBjMC0wLjExLTAuMDQtMC4xOC0wLjA3LTAuMjZjLTAuMDgtMC4xOC0wLjA4LTAuMTgtMC4wOC0wLjE4Yy0wLjAzLTAuMTgtMC4xMS0wLjMzLTAuMTEtMC40YzAuMDgtMC4xNCwwLjA4LTAuMTQsMC4wOC0wLjE0ICAgICBjMC0wLjA0LDAtMC4wNC0wLjA0LTAuMDhjLTAuMTEtMC4xMi0wLjExLTAuMTItMC4xMS0wLjEyYzAtMC4wNC0wLjA0LTAuMDQtMC4wNC0wLjA0Yy0wLjQxLDAtMC40MSwwLTAuNDEsMCAgICAgYy0wLjA0LDAtMC4wNywwLjA0LTAuMDcsMC4wOGMwLDAuMDUsMC4wMywwLjA4LDAuMDcsMC4wOGMwLjM4LDAsMC4zOCwwLDAuMzgsMGMwLjA3LDAuMDgsMC4wNywwLjA4LDAuMDcsMC4wOCAgICAgYy0wLjA3LDAuMTQtMC4wNywwLjE0LTAuMDcsMC4xNHMwLDAsMCwwLjA0YzAuMDMsMCwwLjA3LDAuMTQsMC4xNCwwLjMzYy0xLjUyLDAtMS41MiwwLTEuNTIsMGMtMC4wMy0wLjExLTAuMDMtMC4xMS0wLjAzLTAuMTEgICAgIGMwLjE0LTAuMDQsMC4zNC0wLjExLDAuNDEtMC4yMmMtMC45MywwLTAuOTMsMC0wLjkzLDBjMCwwLjE0LDAuMTUsMC4yNSwwLjM0LDAuMjVjMC4wMywwLDAuMDMsMCwwLjA3LDBsMCwwICAgICBjMC4wNCwwLjE1LDAuMDQsMC4xNSwwLjA0LDAuMTVjLTAuMzcsMC40NC0wLjM3LDAuNDQtMC4zNywwLjQ0Yy0wLjE5LTAuMTEtMC4zOC0wLjE5LTAuNTktMC4xOUMwLjQ5LDQ2LjAyLDAsNDYuNDYsMCw0Ny4wNSAgICAgYzAsMC41NCwwLjQ5LDEuMDIsMS4wNSwxLjAyYzAuNDcsMCwwLjg4LTAuMzMsMC45OS0wLjc3YzAuMjIsMC4wNCwwLjIyLDAuMDQsMC4yMiwwLjA0YzAsMC4wNywwLjA3LDAuMTgsMC4xNiwwLjIyICAgICBjLTAuMDQsMC4yMi0wLjA0LDAuMjItMC4wNCwwLjIyYy0wLjEyLDAtMC4xMiwwLTAuMTIsMGMtMC4wNCwwLTAuMDcsMC0wLjA3LDAuMDNjMCwwLjA0LDAuMDMsMC4wOCwwLjA3LDAuMDhjMC4zLDAsMC4zLDAsMC4zLDAgICAgIGMwLjA0LDAsMC4wNC0wLjA0LDAuMDQtMC4wOGMwLTAuMDMsMC0wLjAzLTAuMDQtMC4wM2MtMC4wNywwLTAuMDcsMC0wLjA3LDBjMC4wNC0wLjIyLDAuMDQtMC4yMiwwLjA0LTAuMjIgICAgIGMwLjE0LDAsMC4yNS0wLjExLDAuMjUtMC4yNmMwLTAuMDMtMC4wMy0wLjA3LTAuMDctMC4xMWMxLjAzLTEuMTMsMS4wMy0xLjEzLDEuMDMtMS4xM2MwLjA0LDAuMDQsMC4wNCwwLjExLDAuMDgsMC4xNSAgICAgYy0wLjI2LDAuMjItMC40NCwwLjQ3LTAuNDQsMC44NGMwLDAuNTQsMC40NCwxLjAyLDEuMDMsMS4wMmMwLjYsMCwxLjAzLTAuNDgsMS4wMy0xLjAyQzUuNDQsNDYuNDYsNS4wMSw0Ni4wMiw0LjQxLDQ2LjAyeiAgICAgIE0xLjA1LDQ3LjkyYy0wLjQ5LDAtMC44OS0wLjQtMC44OS0wLjg3YzAtMC40OCwwLjQtMC44OCwwLjg5LTAuODhjMC4xOCwwLDAuMzIsMC4wNywwLjQ3LDAuMTVjLTAuNDcsMC42Mi0wLjQ3LDAuNjItMC40NywwLjYyICAgICBsMCwwYy0wLjA0LDAtMC4xMSwwLjAzLTAuMTEsMC4xMWgwLjAzYy0wLjAzLDAuMDMtMC4wMywwLjAzLTAuMDMsMC4wM2MwLjA3LDAsMC4wNywwLDAuMDcsMGMwLDAuMDQsMCwwLjA4LDAuMDQsMC4wOCAgICAgYzAuMDMsMCwwLjAzLTAuMDQsMC4wMy0wLjA0YzAuODIsMC4xNSwwLjgyLDAuMTUsMC44MiwwLjE1QzEuNzksNDcuNjMsMS40NSw0Ny45MiwxLjA1LDQ3LjkyeiBNMS45Myw0Ny4wNWMwLDAuMDMsMCwwLjA3LDAsMC4xMSAgICAgYy0wLjc4LTAuMTUtMC43OC0wLjE1LTAuNzgtMC4xNWMwLjQ5LTAuNjIsMC40OS0wLjYyLDAuNDktMC42MkMxLjgyLDQ2LjU3LDEuOTMsNDYuNzksMS45Myw0Ny4wNXogTTEuNzUsNDYuMjggICAgIGMwLjI5LTAuNCwwLjI5LTAuNCwwLjI5LTAuNGMwLjM4LDEuMjQsMC4zOCwxLjI0LDAuMzgsMS4yNGMtMC4wOSwwLjA0LTAuMDksMC4wNC0wLjEyLDAuMTFjLTAuMjItMC4wNy0wLjIyLTAuMDctMC4yMi0wLjA3ICAgICBjMC0wLjA0LDAtMC4wOCwwLTAuMTFDMi4wOCw0Ni43MiwxLjk3LDQ2LjQ2LDEuNzUsNDYuMjh6IE0yLjY3LDQ3LjA1YzAuMDgtMC4yMiwwLjA4LTAuMjIsMC4wOC0wLjIyYzAuMDcsMCwwLjA3LDAsMC4wNywwICAgICBjMC4wNCwwLDAuMDctMC4wNCwwLjA3LTAuMDRjMC0wLjA0LTAuMDMtMC4wNy0wLjA3LTAuMDdjLTAuMjYsMC0wLjI2LDAtMC4yNiwwYy0wLjAzLDAtMC4wNywwLjAzLTAuMDcsMC4wNyAgICAgYzAsMCwwLjA0LDAuMDQsMC4wNywwLjA0YzAuMDQsMCwwLjA0LDAsMC4wNCwwYy0wLjA0LDAuMjUtMC4wNCwwLjI1LTAuMDQsMC4yNWMtMC4wMywwLTAuMDMsMC0wLjAzLDBsMCwwICAgICBjLTAuMzgtMS4yNy0wLjM4LTEuMjctMC4zOC0xLjI3YzEuNTIsMCwxLjUyLDAsMS41MiwwYzAsMC4wMywwLDAuMDcsMC4wNCwwLjFMMi42Nyw0Ny4wNXogTTQuNDEsNDcuOTIgICAgIGMtMC40NywwLTAuODktMC40LTAuODktMC44N2MwLTAuMywwLjE1LTAuNTEsMC4zMy0wLjY2YzAuMDQsMC4wNywwLjA5LDAuMTUsMC4wOSwwLjIyYzAuMTEsMC4xOCwwLjI5LDAuMzMsMC4zNiwwLjQ0bDAsMCAgICAgYzAsMC4wMywwLjA0LDAuMTEsMC4xMSwwLjExczAuMTEtMC4wOCwwLjExLTAuMTFjMC0wLjA4LTAuMDQtMC4xMS0wLjExLTAuMTFsMCwwYy0wLjExLTAuMDgtMC4yOS0wLjIyLTAuMzYtMC40ICAgICBjMC0wLjA0LTAuMDQtMC4xMS0wLjA4LTAuMjJjMC4xMS0wLjA4LDAuMjYtMC4xNSwwLjQ0LTAuMTVjMC40OSwwLDAuODksMC40LDAuODksMC44OEM1LjMsNDcuNTIsNC45LDQ3LjkyLDQuNDEsNDcuOTJ6Ii8+JiN4YTsJCTwvZz4mI3hhOwkJPGcgaWQ9InNoYXBlNzA3Ni0yMiIgdHJhbnNmb3JtPSJ0cmFuc2xhdGUoOS45MTgxOCwtMzguMzM3NCkiPiYjeGE7CQkJPHRpdGxlIGlkPSJ0aXRsZTMxMTY4MyI+U2hlZXQuNzA3NjwvdGl0bGU+JiN4YTsJCQk8cGF0aCBpZD0icGF0aDMxMTY4NSIgaW5rc2NhcGU6Y29ubmVjdG9yLWN1cnZhdHVyZT0iMCIgc3R5bGU9ImZpbGw6I0YyN0FCNDsiIGQ9Ik0wLjE5LDQ3Ljg3YzAsMC4xNC0wLjA5LDAuMi0wLjE0LDAuMiAgICAgYzAsMCwwLDAtMC4wNS0wLjA2QzAuMTksNDcuODcsMC4xOSw0Ny44NywwLjE5LDQ3Ljg3TDAuMTksNDcuODd6Ii8+JiN4YTsJCTwvZz4mI3hhOwkJPGcgaWQ9InNoYXBlNzA3Ny0yNCIgdHJhbnNmb3JtPSJ0cmFuc2xhdGUoOC4xNjgyNCwtMzcuNzUzNikiPiYjeGE7CQkJPHRpdGxlIGlkPSJ0aXRsZTMxMTY4OCI+U2hlZXQuNzA3NzwvdGl0bGU+JiN4YTsJCQk8cGF0aCBpZD0icGF0aDMxMTY5MCIgaW5rc2NhcGU6Y29ubmVjdG9yLWN1cnZhdHVyZT0iMCIgc3R5bGU9ImZpbGw6I0NFOUM1RTsiIGQ9Ik0xLjg1LDQ4LjA3QzAuODQsNDguMDcsMCw0Ny4zOSwwLDQ2LjMzICAgICBjMC0xLjM4LDAtMS4zOCwwLTEuMzhjMy42OSwwLDMuNjksMCwzLjY5LDBjMCwxLjM4LDAsMS4zOCwwLDEuMzhDMy42OSw0Ny4zOSwyLjg3LDQ4LjA3LDEuODUsNDguMDd6Ii8+JiN4YTsJCTwvZz4mI3hhOwkJPGcgaWQ9InNoYXBlNzA3OC0yNiIgdHJhbnNmb3JtPSJ0cmFuc2xhdGUoNy4wMDE2MSwtMzkuNjk5NykiPiYjeGE7CQkJPHRpdGxlIGlkPSJ0aXRsZTMxMTY5MyI+U2hlZXQuNzA3ODwvdGl0bGU+JiN4YTsJCQk8cGF0aCBpZD0icGF0aDMxMTY5NSIgaW5rc2NhcGU6Y29ubmVjdG9yLWN1cnZhdHVyZT0iMCIgc3R5bGU9ImZpbGw6I0NFOUM1RTsiIGQ9Ik01LjgzLDQ0LjE0YzAsMi4zMy0xLjI2LDMuOTMtMi45MywzLjkzICAgICBjLTEuNjYsMC0yLjktMS42LTIuOS0zLjkzYzAtMi4zNSwxLjI0LTQuMjUsMi45LTQuMjVDNS4wMSwzOS44OSw1LjgzLDQxLjc5LDUuODMsNDQuMTR6Ii8+JiN4YTsJCTwvZz4mI3hhOwkJPGcgaWQ9InNoYXBlNzA3OS0yOCIgdHJhbnNmb3JtPSJ0cmFuc2xhdGUoNi42MTI3MywtNDIuNDI0MikiPiYjeGE7CQkJPHRpdGxlIGlkPSJ0aXRsZTMxMTY5OCI+U2hlZXQuNzA3OTwvdGl0bGU+JiN4YTsJCQk8cGF0aCBpZD0icGF0aDMxMTcwMCIgaW5rc2NhcGU6Y29ubmVjdG9yLWN1cnZhdHVyZT0iMCIgc3R5bGU9ImZpbGw6I0NFOUM1RTsiIGQ9Ik0wLjU4LDQ2LjMyYy0wLjMyLDAtMC4zMiwwLTAuMzIsMCAgICAgQzAuMSw0Ni4zMiwwLDQ2LjQ2LDAsNDYuNjNjMCwxLjEzLDAsMS4xMywwLDEuMTNjMCwwLjE3LDAuMSwwLjMxLDAuMjYsMC4zMWMwLjIsMCwwLjIsMCwwLjIsMEwwLjU4LDQ2LjMyeiIvPiYjeGE7CQk8L2c+JiN4YTsJCTxnIGlkPSJzaGFwZTcwODAtMzAiIHRyYW5zZm9ybT0idHJhbnNsYXRlKDEyLjY0MDMsLTQyLjQyNDIpIj4mI3hhOwkJCTx0aXRsZSBpZD0idGl0bGUzMTE3MDMiPlNoZWV0LjcwODA8L3RpdGxlPiYjeGE7CQkJPHBhdGggaWQ9InBhdGgzMTE3MDUiIGlua3NjYXBlOmNvbm5lY3Rvci1jdXJ2YXR1cmU9IjAiIHN0eWxlPSJmaWxsOiNDRTlDNUU7IiBkPSJNMCw0Ni4zMmMwLjQ2LDAsMC40NiwwLDAuNDYsMCAgICAgYzAuMiwwLDAuMzIsMC4xNCwwLjMyLDAuMzFjMCwxLjEzLDAsMS4xMywwLDEuMTNjMCwwLjE3LTAuMTIsMC4zMS0wLjMyLDAuMzFjLTAuMjksMC0wLjI5LDAtMC4yOSwwTDAsNDYuMzJ6Ii8+JiN4YTsJCTwvZz4mI3hhOwkJPGcgaWQ9InNoYXBlNzA4MS0zMiIgdHJhbnNmb3JtPSJ0cmFuc2xhdGUoOC41NTcxMSwtNDMuNTkxOCkiPiYjeGE7CQkJPHRpdGxlIGlkPSJ0aXRsZTMxMTcwOCI+U2hlZXQuNzA4MTwvdGl0bGU+JiN4YTsJCQk8cGF0aCBpZD0icGF0aDMxMTcxMCIgaW5rc2NhcGU6Y29ubmVjdG9yLWN1cnZhdHVyZT0iMCIgc3R5bGU9ImZpbGw6IzIzMUYyMDsiIGQ9Ik0wLjE5LDQ4LjA3YzAuMSwwLDAuMi0wLjA5LDAuMi0wLjIxICAgICBjMC0wLjA4LTAuMS0wLjE4LTAuMi0wLjE4QzAuMDcsNDcuNjgsMCw0Ny43OCwwLDQ3LjlDMCw0Ny45OCwwLjEsNDguMDcsMC4xOSw0OC4wN3oiLz4mI3hhOwkJPC9nPiYjeGE7CQk8ZyBpZD0ic2hhcGU3MDgyLTM0IiB0cmFuc2Zvcm09InRyYW5zbGF0ZSgxMS4wODQ4LC00My4zOTcyKSI+JiN4YTsJCQk8dGl0bGUgaWQ9InRpdGxlMzExNzEzIj5TaGVldC43MDgyPC90aXRsZT4mI3hhOwkJCTxwYXRoIGlkPSJwYXRoMzExNzE1IiBpbmtzY2FwZTpjb25uZWN0b3ItY3VydmF0dXJlPSIwIiBzdHlsZT0iZmlsbDojMjMxRjIwOyIgZD0iTTAuMTksNDguMDdjMC4xLDAsMC4yLTAuMTQsMC4yLTAuMzEgICAgIGMwLTAuMTMtMC4xLTAuMjgtMC4yLTAuMjhDMC4xLDQ3LjQ4LDAsNDcuNjMsMCw0Ny44QzAsNDcuOTMsMC4xLDQ4LjA3LDAuMTksNDguMDd6Ii8+JiN4YTsJCTwvZz4mI3hhOwkJPGcgaWQ9InNoYXBlNzA4My0zNiIgdHJhbnNmb3JtPSJ0cmFuc2xhdGUoOC4xNjgyNCwtMzkuNTA1MSkiPiYjeGE7CQkJPHRpdGxlIGlkPSJ0aXRsZTMxMTcxOCI+U2hlZXQuNzA4MzwvdGl0bGU+JiN4YTsJCQk8cGF0aCBpZD0icGF0aDMxMTcyMCIgaW5rc2NhcGU6Y29ubmVjdG9yLWN1cnZhdHVyZT0iMCIgc3R5bGU9ImZpbGw6I0NFOUM1RTsiIGQ9Ik0wLDQ2LjcxYzMuNSwwLDMuNSwwLDMuNSwwICAgICBjLTAuNDQsMC44My0xLjAzLDEuMzYtMS43NSwxLjM2QzEuMDUsNDguMDcsMC40NSw0Ny41NCwwLDQ2LjcxeiIvPiYjeGE7CQk8L2c+JiN4YTsJCTxnIGlkPSJzaGFwZTcwODQtMzgiIHRyYW5zZm9ybT0idHJhbnNsYXRlKDguMTY4MjQsLTM5LjMxMDUpIj4mI3hhOwkJCTx0aXRsZSBpZD0idGl0bGUzMTE3MjMiPlNoZWV0LjcwODQ8L3RpdGxlPiYjeGE7CQkJPHBhdGggaWQ9InBhdGgzMTE3MjUiIGlua3NjYXBlOmNvbm5lY3Rvci1jdXJ2YXR1cmU9IjAiIHN0eWxlPSJmaWxsOiNCQThENTc7IiBkPSJNMy42OSw0Ni45YzAsMC4yOSwwLDAuMjksMCwwLjI5ICAgICBjMCwwLjI4LTEuMTksMC44OC0xLjg0LDAuODhDMS4yNCw0OC4wNywwLDQ3LjYyLDAsNDcuMTljMC0wLjI5LDAtMC4yOSwwLTAuMjljMC4yNiwwLjI2LDAuNTUsMC40NiwwLjg3LDAuNjEgICAgIGMwLjMsMC4yNCwwLjYyLDAuMzUsMC45OCwwLjM1czAuNjktMC4xMSwwLjk4LTAuMzVDMy4xNiw0Ny4zNiwzLjQ1LDQ3LjE2LDMuNjksNDYuOXoiLz4mI3hhOwkJPC9nPiYjeGE7CQk8ZyBpZD0ic2hhcGU3MDg1LTQwIiB0cmFuc2Zvcm09InRyYW5zbGF0ZSg4Ljc1MTU1LC00MS4wNjE5KSI+JiN4YTsJCQk8dGl0bGUgaWQ9InRpdGxlMzExNzI4Ij5TaGVldC43MDg1PC90aXRsZT4mI3hhOwkJCTxwYXRoIGlkPSJwYXRoMzExNzMwIiBpbmtzY2FwZTpjb25uZWN0b3ItY3VydmF0dXJlPSIwIiBzdHlsZT0iZmlsbDojRkZGRkZGOyIgZD0iTTEuMTcsNDguMDdjMC41NCwwLDAuOC0wLjEyLDEuMTYtMC4yICAgICBjLTAuMTgsMC4wNC0wLjYyLDAuMDgtMS4xNiwwLjA4Yy0wLjU5LDAtMC45OS0wLjA0LTEuMTctMC4wOEMwLjM2LDQ3Ljk1LDAuNjIsNDguMDcsMS4xNyw0OC4wN3oiLz4mI3hhOwkJPC9nPiYjeGE7CQk8ZyBpZD0ic2hhcGU3MDg2LTQyIiB0cmFuc2Zvcm09InRyYW5zbGF0ZSg4Ljc1MTU1LC00MC44NjczKSI+JiN4YTsJCQk8dGl0bGUgaWQ9InRpdGxlMzExNzMzIj5TaGVldC43MDg2PC90aXRsZT4mI3hhOwkJCTxwYXRoIGlkPSJwYXRoMzExNzM1IiBpbmtzY2FwZTpjb25uZWN0b3ItY3VydmF0dXJlPSIwIiBzdHlsZT0iZmlsbDojQkIxNDFBOyIgZD0iTTEuMjksNDguMDdjLTAuMzgsMC0wLjYxLTAuMS0wLjg2LTAuMTUgICAgIGMtMC4wOS0wLjA1LTAuMi0wLjEtMC4zMS0wLjE0Yy0wLjAzLDAtMC4wMywwLTAuMDcsMEwwLDQ3LjczYzAuMDUtMC4wNSwwLjA1LTAuMDUsMC4wOS0wLjA1YzAsMCwwLjAzLDAsMC4wNywwICAgICBjMC4xOCwwLjA1LDAuNjEsMC4xLDEuMTMsMC4xYzAuNDgsMCwwLjkxLTAuMDUsMS4xMy0wLjFjMC4wMywwLDAuMDMsMCwwLjA3LDBzMC4wNCwwLDAuMDQsMC4wNWMwLDAsMCwwLjA1LTAuMDQsMC4wNSAgICAgYzAsMC0wLjA0LDAtMC4wNywwYy0wLjA3LDAuMDQtMC4xOCwwLjA5LTAuMzEsMC4xNEMxLjksNDcuOTcsMS42Myw0OC4wNywxLjI5LDQ4LjA3eiBNMC42MSw0Ny44N2MwLjE5LDAuMDUsMC40MSwwLjEsMC42OCwwLjEgICAgIHMwLjQ4LTAuMDUsMC42OC0wLjFjLTAuMjMsMC0wLjQ1LDAtMC42OCwwQzEuMDIsNDcuODcsMC44LDQ3Ljg3LDAuNjEsNDcuODd6Ii8+JiN4YTsJCTwvZz4mI3hhOwkJPGcgaWQ9InNoYXBlNzA4Ny00NCIgdHJhbnNmb3JtPSJ0cmFuc2xhdGUoOS4zMzQ4NywtNDEuODQwNCkiPiYjeGE7CQkJPHRpdGxlIGlkPSJ0aXRsZTMxMTczOCI+U2hlZXQuNzA4NzwvdGl0bGU+JiN4YTsJCQk8cGF0aCBpZD0icGF0aDMxMTc0MCIgaW5rc2NhcGU6Y29ubmVjdG9yLWN1cnZhdHVyZT0iMCIgc3R5bGU9ImZpbGw6I0JBOEQ1NzsiIGQ9Ik0xLjE3LDQ3LjQ4YzAsMC4xNS0wLjEsMC4zLTAuMjEsMC4yNSAgICAgYy0wLjA0LDAtMC4wNywwLjA5LTAuMTUsMC4xNGMtMC4wNiwwLjEtMC4xMywwLjItMC4yNCwwLjJjLTAuMDcsMC0wLjE4LTAuMS0wLjI0LTAuMmMtMC4wNy0wLjA1LTAuMTEtMC4xNC0wLjExLTAuMTQgICAgIEMwLjA3LDQ3Ljc4LDAsNDcuNjMsMCw0Ny40OGwwLDBDMS4xNyw0Ny40OCwxLjE3LDQ3LjQ4LDEuMTcsNDcuNDhMMS4xNyw0Ny40OHoiLz4mI3hhOwkJPC9nPiYjeGE7CQk8ZyBpZD0ic2hhcGU3MDg4LTQ2IiB0cmFuc2Zvcm09InRyYW5zbGF0ZSg3LjAwMTYxLC00Mi44MTM0KSI+JiN4YTsJCQk8dGl0bGUgaWQ9InRpdGxlMzExNzQzIj5TaGVldC43MDg4PC90aXRsZT4mI3hhOwkJCTxwYXRoIGlkPSJwYXRoMzExNzQ1IiBpbmtzY2FwZTpjb25uZWN0b3ItY3VydmF0dXJlPSIwIiBzdHlsZT0iZmlsbDojRkZCOTAwOyIgZD0iTTYuMDMsNDUuNTRjMCwyLjUzLDAsMi41MywwLDIuNTMgICAgIGMtMC4yNiwwLTAuMjYsMC0wLjI2LDBjLTAuMTQtMy4wNC0wLjE0LTMuMDQtMC4xNC0zLjA0QzQuOCw0NS4xNyw0LjgsNDUuMTcsNC44LDQ1LjE3Yy0xLjE5LDAuMTUtMi4zOCwwLjE1LTMuNTYsMCAgICAgYy0wLjgzLTAuMTQtMC44My0wLjE0LTAuODMtMC4xNGMtMC4xOCwzLTAuMTgsMy0wLjE4LDNjLTAuMjMsMC0wLjIzLDAtMC4yMywwYzAtMi40OSwwLTIuNDksMC0yLjQ5YzAtMS41MSwxLjA1LTIuNzMsMi4zMS0yLjczICAgICBjMS4zOCwwLDEuMzgsMCwxLjM4LDBDNC45OSw0Mi44MSw2LjAzLDQ0LjAzLDYuMDMsNDUuNTR6Ii8+JiN4YTsJCTwvZz4mI3hhOwkJPGcgaWQ9InNoYXBlNzA4OS00OCIgdHJhbnNmb3JtPSJ0cmFuc2xhdGUoMTAuODkwNCwtNDQuMTc1NikiPiYjeGE7CQkJPHRpdGxlIGlkPSJ0aXRsZTMxMTc0OCI+U2hlZXQuNzA4OTwvdGl0bGU+JiN4YTsJCQk8cGF0aCBpZD0icGF0aDMxMTc1MCIgaW5rc2NhcGU6Y29ubmVjdG9yLWN1cnZhdHVyZT0iMCIgc3R5bGU9ImZpbGw6I0ZGQjkwMDsiIGQ9Ik0wLjk3LDQ4LjA3YzAsMC0wLjA2LTAuMDMtMC4xNi0wLjEgICAgIGMtMC4wMywwLTAuMDYtMC4wMi0wLjEzLTAuMDZjLTAuMDItMC4wNC0wLjA2LTAuMDQtMC4wNi0wLjA0cy0wLjA0LTAuMDItMC4wNi0wLjAyYzAsMCwwLDAtMC4wNCwwYy0wLjEzLTAuMDQtMC4yNSwwLTAuMzUsMCAgICAgYy0wLjA0LDAtMC4wNywwLTAuMSwwcy0wLjA3LDAtMC4wNywwbDAsMGMwLTAuMDQsMC0wLjA0LDAtMC4wNHMwLjA3LTAuMDMsMC4xNy0wLjA2YzAuMS0wLjAzLDAuMjItMC4wNywwLjM5LTAuMDMgICAgIGMwLDAsMC4wMiwwLDAuMDYsMGMwLDAsMCwwLDAuMDQsMC4wM2MwLjAyLDAsMC4wNiwwLjAzLDAuMDksMC4wM2MwLjA2LDAuMDcsMC4xLDAuMDksMC4xMiwwLjEzYzAuMDQsMC4wNCwwLjA4LDAuMSwwLjEsMC4xICAgICBDMC45Nyw0OC4wNCwwLjk3LDQ4LjA3LDAuOTcsNDguMDdMMC45Nyw0OC4wN0MwLjk3LDQ4LjA3LDAuOTcsNDguMDcsMC45Nyw0OC4wN3oiLz4mI3hhOwkJPC9nPiYjeGE7CQk8ZyBpZD0ic2hhcGU3MDkwLTUwIiB0cmFuc2Zvcm09InRyYW5zbGF0ZSg4LjE2ODI0LC00NC4xODE3KSI+JiN4YTsJCQk8dGl0bGUgaWQ9InRpdGxlMzExNzUzIj5TaGVldC43MDkwPC90aXRsZT4mI3hhOwkJCTxwYXRoIGlkPSJwYXRoMzExNzU1IiBpbmtzY2FwZTpjb25uZWN0b3ItY3VydmF0dXJlPSIwIiBzdHlsZT0iZmlsbDojRkZCOTAwOyIgZD0iTTAuOTUsNDcuODVjMCwwLTAuMDYsMC0wLjE2LTAuMDMgICAgIGMtMC4wNCwwLTAuMSwwLTAuMTYsMGMtMC4wMiwwLTAuMDYsMC0wLjEsMEgwLjUxSDAuNDdjLTAuMTIsMC4wMy0wLjIxLDAuMS0wLjMxLDAuMTZjLTAuMDMsMC4wMy0wLjA2LDAuMDMtMC4wOSwwLjA3ICAgICBjLTAuMDMsMC0wLjAzLDAtMC4wMywwYzAsMC4wMi0wLjA0LDAuMDItMC4wNCwwbDAsMGMwLDAsMC4wNC0wLjA3LDAuMS0wLjEzYzAuMDktMC4xLDAuMTktMC4xNiwwLjM1LTAuMjRoMC4wMiAgICAgYzAuMDQsMCwwLjA0LDAsMC4wNiwwYzAuMDQsMCwwLjEsMCwwLjE0LDBjMC4wNiwwLDAuMDgsMC4wNCwwLjE2LDAuMDRjMC4wMiwwLjA0LDAuMDgsMC4wNiwwLjA4LDAuMDYgICAgIGMwLjA0LDAuMDQsMC4wNiwwLjA0LDAuMDYsMC4wNHMwLDAsMCwwLjAzQzAuOTcsNDcuODUsMC45NSw0Ny44NSwwLjk1LDQ3Ljg1eiIvPiYjeGE7CQk8L2c+JiN4YTsJCTxnIGlkPSJzaGFwZTcwOTEtNTIiIHRyYW5zZm9ybT0idHJhbnNsYXRlKDkuMzM0ODcsLTQyLjQyNDIpIj4mI3hhOwkJCTx0aXRsZSBpZD0idGl0bGUzMTE3NTgiPlNoZWV0LjcwOTE8L3RpdGxlPiYjeGE7CQkJPHBhdGggaWQ9InBhdGgzMTE3NjAiIGlua3NjYXBlOmNvbm5lY3Rvci1jdXJ2YXR1cmU9IjAiIHN0eWxlPSJmaWxsOiNEOUIwN0Y7IiBkPSJNMC43OCw0Ni4zMmMwLDEuNzUsMCwxLjc1LDAsMS43NSAgICAgYy0wLjc4LDAtMC43OCwwLTAuNzgsMGMwLTAuMDQsMC4wNS0wLjExLDAuMS0wLjE1YzAuMTMtMC4xMSwwLjIzLTAuMywwLjI4LTAuNTNjMC4wMy0wLjc2LDAuMDMtMC43NiwwLjAzLTAuNzYgICAgIEMwLjQxLDQ2LjQsMC42OSw0Ni4zMiwwLjc4LDQ2LjMyeiIvPiYjeGE7CQk8L2c+JiN4YTsJCTxnIGlkPSJzaGFwZTcwOTItNTQiIHRyYW5zZm9ybT0idHJhbnNsYXRlKDIuMzM1MSwtMjQuNTIwNCkiPiYjeGE7CQkJPHRpdGxlIGlkPSJ0aXRsZTMxMTc2MyI+U2hlZXQuNzA5MjwvdGl0bGU+JiN4YTsJCQk8cGF0aCBpZD0icGF0aDMxMTc2NSIgaW5rc2NhcGU6Y29ubmVjdG9yLWN1cnZhdHVyZT0iMCIgc3R5bGU9ImZpbGw6I0U2MUUyNzsiIGQ9Ik00LjA2LDQ4LjA3bDYuMDUtNS45bC00LjEyLTQuMjJMMCw0My44OCAgICAgTDQuMDYsNDguMDd6Ii8+JiN4YTsJCTwvZz4mI3hhOwkJPGcgaWQ9InNoYXBlNzA5My01NiIgdHJhbnNmb3JtPSJ0cmFuc2xhdGUoMi4zMzUxLC0yNC41MjA0KSI+JiN4YTsJCQk8dGl0bGUgaWQ9InRpdGxlMzExNzY4Ij5TaGVldC43MDkzPC90aXRsZT4mI3hhOwkJCTxwYXRoIGlkPSJwYXRoMzExNzcwIiBpbmtzY2FwZTpjb25uZWN0b3ItY3VydmF0dXJlPSIwIiBzdHlsZT0iZmlsbDojRUQ0RTVBOyIgZD0iTTQuMDYsNDguMDdsNi4wNS01Ljg0TDAsNDMuOTNMNC4wNiw0OC4wN3oiLz4mI3hhOwkJPC9nPiYjeGE7CQk8ZyBpZD0ic2hhcGU3MDk0LTU4IiB0cmFuc2Zvcm09InRyYW5zbGF0ZSgwLjM5MDcxNSwtMzAuOTQyNCkiPiYjeGE7CQkJPHRpdGxlIGlkPSJ0aXRsZTMxMTc3MyI+U2hlZXQuNzA5NDwvdGl0bGU+JiN4YTsJCQk8cGF0aCBpZD0icGF0aDMxMTc3NSIgaW5rc2NhcGU6Y29ubmVjdG9yLWN1cnZhdHVyZT0iMCIgc3R5bGU9ImZpbGw6I0NFOUM1RTsiIGQ9Ik0wLDQ2LjRsMi4zNiwxLjY3bDQuMDYtNC42NGwtMy4yNC0yLjM3TDAsNDYuNCAgICAgeiIvPiYjeGE7CQk8L2c+JiN4YTsJCTxnIGlkPSJzaGFwZTcwOTUtNjAiIHRyYW5zZm9ybT0idHJhbnNsYXRlKDMuMTgyNzQsLTM0LjcxNzQpIj4mI3hhOwkJCTx0aXRsZSBpZD0idGl0bGUzMTE3NzgiPlNoZWV0LjcwOTU8L3RpdGxlPiYjeGE7CQkJPHBhdGggaWQ9InBhdGgzMTE3ODAiIGlua3NjYXBlOmNvbm5lY3Rvci1jdXJ2YXR1cmU9IjAiIHN0eWxlPSJmaWxsOiNFNkU3RTg7IiBkPSJNMC4zOCw0NC45NWMwLjYzLTAuODYsMS44Ni0xLjA5LDIuNzYtMC40MiAgICAgYzAuODksMC42NCwxLjA3LDEuODUsMC40NCwyLjc0Yy0wLjY3LDAuODUtMS44NiwxLjA3LTIuNzYsMC40NUMtMC4wNyw0Ny4wOS0wLjI2LDQ1Ljg3LDAuMzgsNDQuOTV6Ii8+JiN4YTsJCTwvZz4mI3hhOwkJPGcgaWQ9InNoYXBlNzA5Ni02MiIgdHJhbnNmb3JtPSJ0cmFuc2xhdGUoNS40NDYxMSwtMjYuNTQzMikiPiYjeGE7CQkJPHRpdGxlIGlkPSJ0aXRsZTMxMTc4MyI+U2hlZXQuNzA5NjwvdGl0bGU+JiN4YTsJCQk8cGF0aCBpZD0icGF0aDMxMTc4NSIgaW5rc2NhcGU6Y29ubmVjdG9yLWN1cnZhdHVyZT0iMCIgc3R5bGU9ImZpbGw6I0NEOUI1RTsiIGQ9Ik0xLjUzLDQ2Ljk1YzAuOTIsMC44NywxLjM3LDAuOTQsMi40MiwxLjA5ICAgICBjMC42MywwLjEsMC44NS0wLjA4LDAuNjMtMC4zYzAuNTUsMC4yNiwxLjExLTAuMTIsMC43MS0wLjNjMC4xNCwwLDAuNTEtMC4xMSwwLjUxLTAuMzRjMC4wMy0wLjE4LTAuMzctMC4yMi0wLjUxLTAuMjIgICAgIGMwLjE0LTAuMiwwLjExLTAuNDUtMC4zOC0wLjQ5Yy0wLjM4LTAuMDMtMC42LTAuMjMtMC42LTAuMjNjMC40NS0wLjExLDAuNi0wLjQxLDAuNDktMC41OWMtMC40OSwwLjAzLTEuMjMtMC4xNi0xLjgyLTAuMTEgICAgIGMtMC4xMSwwLTAuMjIsMC4wMy0wLjMzLDAuMDdjLTIuMzgtMS40Ny0yLjM4LTEuNDctMi4zOC0xLjQ3QzAsNDYuMTMsMCw0Ni4xMywwLDQ2LjEzTDEuNTMsNDYuOTV6Ii8+JiN4YTsJCTwvZz4mI3hhOwkJPGcgaWQ9InNoYXBlNzA5Ny02NCIgdHJhbnNmb3JtPSJ0cmFuc2xhdGUoMCwtMzAuMzY3MSkiPiYjeGE7CQkJPHRpdGxlIGlkPSJ0aXRsZTMxMTc4OCI+U2hlZXQuNzA5NzwvdGl0bGU+JiN4YTsJCQk8cGF0aCBpZD0icGF0aDMxMTc5MCIgaW5rc2NhcGU6Y29ubmVjdG9yLWN1cnZhdHVyZT0iMCIgc3R5bGU9ImZpbGw6I0NFOUM1RTsiIGQ9Ik0yLjI1LDQ1LjQyYzAuNjgsMC40MiwwLjg2LDEuMjgsMC40OSwxLjk5ICAgICBjLTAuNDIsMC42NC0xLjMzLDAuODYtMi4wMSwwLjQ1QzAsNDcuNDktMC4xOSw0Ni41OCwwLjIsNDUuOTFDMC42NSw0NS4xOSwxLjUyLDQ0Ljk2LDIuMjUsNDUuNDJ6Ii8+JiN4YTsJCTwvZz4mI3hhOwkJPGcgaWQ9InNoYXBlNzA5OC02NiIgdHJhbnNmb3JtPSJ0cmFuc2xhdGUoMC43Nzk1OTEsLTI3LjYzNDEpIj4mI3hhOwkJCTx0aXRsZSBpZD0idGl0bGUzMTE3OTMiPlNoZWV0LjcwOTg8L3RpdGxlPiYjeGE7CQkJPHBhdGggaWQ9InBhdGgzMTE3OTUiIGlua3NjYXBlOmNvbm5lY3Rvci1jdXJ2YXR1cmU9IjAiIHN0eWxlPSJmaWxsOiNDRTlDNUU7IiBkPSJNNi4yMiw0OC4wN2wwLjM5LTEuODNsLTUuMTMtMy40M0wwLDQ1LjE2ICAgICBMNi4yMiw0OC4wN3oiLz4mI3hhOwkJPC9nPiYjeGE7CQk8ZyBpZD0ic2hhcGU3MDk5LTY4IiB0cmFuc2Zvcm09InRyYW5zbGF0ZSgxLjE2ODQ3LC0zMi4zMDQ2KSI+JiN4YTsJCQk8dGl0bGUgaWQ9InRpdGxlMzExNzk4Ij5TaGVldC43MDk5PC90aXRsZT4mI3hhOwkJCTxwYXRoIGlkPSJwYXRoMzExODAwIiBpbmtzY2FwZTpjb25uZWN0b3ItY3VydmF0dXJlPSIwIiBzdHlsZT0iZmlsbDojRTZFN0U4OyIgZD0iTTAsNDUuOTVsMy4yMSwyLjEybDMuNC0zLjk4bC0yLjczLTEuNjdIMi40MiAgICAgTDAsNDUuOTV6Ii8+JiN4YTsJCTwvZz4mI3hhOwkJPGcgaWQ9InNoYXBlNzEwMC03MCIgdHJhbnNmb3JtPSJ0cmFuc2xhdGUoMTIuODM0OCwtMzEuMTM3KSI+JiN4YTsJCQk8dGl0bGUgaWQ9InRpdGxlMzExODAzIj5TaGVldC43MTAwPC90aXRsZT4mI3hhOwkJCTxwYXRoIGlkPSJwYXRoMzExODA1IiBpbmtzY2FwZTpjb25uZWN0b3ItY3VydmF0dXJlPSIwIiBzdHlsZT0iZmlsbDojQ0U5QzVFOyIgZD0iTTYuMjIsNDYuNzVsLTIuMzQsMS4zMkwwLDQzLjU0bDMuMTEtMi4yOCAgICAgTDYuMjIsNDYuNzV6Ii8+JiN4YTsJCTwvZz4mI3hhOwkJPGcgaWQ9InNoYXBlNzEwMS03MiIgdHJhbnNmb3JtPSJ0cmFuc2xhdGUoMTIuMzI5MSwtMzQuOTA3NSkiPiYjeGE7CQkJPHRpdGxlIGlkPSJ0aXRsZTMxMTgwOCI+U2hlZXQuNzEwMTwvdGl0bGU+JiN4YTsJCQk8cGF0aCBpZD0icGF0aDMxMTgxMCIgaW5rc2NhcGU6Y29ubmVjdG9yLWN1cnZhdHVyZT0iMCIgc3R5bGU9ImZpbGw6I0U2RTdFODsiIGQ9Ik0zLjYsNDQuOTFjLTAuNjYtMC44Ni0xLjg1LTEuMDUtMi43OS0wLjQxICAgICBjLTAuODksMC42Ny0xLjA4LDEuODYtMC40LDIuNzdjMC42MywwLjg4LDEuODYsMS4wNywyLjc2LDAuNDNDNC4wMiw0Ny4wNyw0LjIsNDUuODQsMy42LDQ0LjkxeiIvPiYjeGE7CQk8L2c+JiN4YTsJCTxnIGlkPSJzaGFwZTcxMDItNzQiIHRyYW5zZm9ybT0idHJhbnNsYXRlKDEzLjIyMzYsLTIyLjcwMSkiPiYjeGE7CQkJPHRpdGxlIGlkPSJ0aXRsZTMxMTgxMyI+U2hlZXQuNzEwMjwvdGl0bGU+JiN4YTsJCQk8cGF0aCBpZD0icGF0aDMxMTgxNSIgaW5rc2NhcGU6Y29ubmVjdG9yLWN1cnZhdHVyZT0iMCIgc3R5bGU9ImZpbGw6I0NEOUI1RTsiIGQ9Ik0zLjI5LDQ1LjEzYy0wLjE4LDEuMi0wLjQ3LDEuNTMtMS4xNCwyLjMgICAgIGMtMC40LDAuNDctMC42OCwwLjQ3LTAuNjQsMC4xOGMtMC4yNiwwLjU1LTAuOSwwLjU4LTAuNzIsMC4yMmMtMC4xMSwwLjA3LTAuNDMsMC4yNS0wLjU3LDAuMDdjLTAuMTUtMC4xMSwwLjExLTAuNCwwLjIyLTAuNDcgICAgIGMtMC4yMi0wLjA3LTAuMzctMC4yOSwwLTAuNjJjMC4yNC0wLjI2LDAuMzEtMC41NSwwLjMxLTAuNTVDMC4zMyw0Ni40NCwwLjA0LDQ2LjMzLDAsNDYuMTFjMC40LTAuMjUsMC44My0wLjg3LDEuMjktMS4yICAgICBjMC4xMS0wLjA3LDAuMjItMC4xNSwwLjMzLTAuMThjMC44NS0yLjU3LDAuODUtMi41NywwLjg1LTIuNTdjMS40MiwxLjM2LDEuNDIsMS4zNiwxLjQyLDEuMzZMMy4yOSw0NS4xM3oiLz4mI3hhOwkJPC9nPiYjeGE7CQk8ZyBpZD0ic2hhcGU3MTAzLTc2IiB0cmFuc2Zvcm09InRyYW5zbGF0ZSgxNy4wODA3LC0zMC43MjEyKSI+JiN4YTsJCQk8dGl0bGUgaWQ9InRpdGxlMzExODE4Ij5TaGVldC43MTAzPC90aXRsZT4mI3hhOwkJCTxwYXRoIGlkPSJwYXRoMzExODIwIiBpbmtzY2FwZTpjb25uZWN0b3ItY3VydmF0dXJlPSIwIiBzdHlsZT0iZmlsbDojQ0U5QzVFOyIgZD0iTTAuNTIsNDUuODZjLTAuNSwwLjM0LTAuNjgsMS4xMS0wLjM1LDEuNjYgICAgIGMwLjMxLDAuNTMsMC45OSwwLjcyLDEuNTMsMC4zOGMwLjUzLTAuMzEsMC42Ni0xLjA0LDAuMzUtMS42MUMxLjczLDQ1LjcxLDEuMDUsNDUuNTEsMC41Miw0NS44NnoiLz4mI3hhOwkJPC9nPiYjeGE7CQk8ZyBpZD0ic2hhcGU3MTA0LTc4IiB0cmFuc2Zvcm09InRyYW5zbGF0ZSgxNC45NzM2LC0yNS40OTM0KSI+JiN4YTsJCQk8dGl0bGUgaWQ9InRpdGxlMzExODIzIj5TaGVldC43MTA0PC90aXRsZT4mI3hhOwkJCTxwYXRoIGlkPSJwYXRoMzExODI1IiBpbmtzY2FwZTpjb25uZWN0b3ItY3VydmF0dXJlPSIwIiBzdHlsZT0iZmlsbDojQ0U5QzVFOyIgZD0iTTEuNTEsNDguMDdMMCw0Ni44OWwxLjctNi4wMmwyLjU4LDEuMDYgICAgIEwxLjUxLDQ4LjA3eiIvPiYjeGE7CQk8L2c+JiN4YTsJCTxnIGlkPSJzaGFwZTcxMDUtODAiIHRyYW5zZm9ybT0idHJhbnNsYXRlKDExLjg2MjYsLTMyLjQ5OTMpIj4mI3hhOwkJCTx0aXRsZSBpZD0idGl0bGUzMTE4MjgiPlNoZWV0LjcxMDU8L3RpdGxlPiYjeGE7CQkJPHBhdGggaWQ9InBhdGgzMTE4MzAiIGlua3NjYXBlOmNvbm5lY3Rvci1jdXJ2YXR1cmU9IjAiIHN0eWxlPSJmaWxsOiNFNkU3RTg7IiBkPSJNNi40Miw0NmwtMy4wOCwyLjA3TDAsNDQuMjZsMi42NC0xLjY0aDEuNDcgICAgIEw2LjQyLDQ2eiIvPiYjeGE7CQk8L2c+JiN4YTsJPC9nPiYjeGE7PC9nPiYjeGE7PC9zdmc+;fontStyle=1" parent="1" vertex="1">
          <mxGeometry x="-241" y="-1027" width="22.63" height="57" as="geometry" />
        </mxCell>
        <mxCell id="VHQm3ld0HByzxrR_ddXe-70" value="" style="edgeStyle=orthogonalEdgeStyle;rounded=0;orthogonalLoop=1;jettySize=auto;html=1;strokeColor=#FF0000;" parent="1" source="A0nYaDOjtjgqWgvlFO7J-142" target="VHQm3ld0HByzxrR_ddXe-31" edge="1">
          <mxGeometry relative="1" as="geometry" />
        </mxCell>
        <mxCell id="A0nYaDOjtjgqWgvlFO7J-142" value="" style="sketch=0;pointerEvents=1;shadow=0;dashed=0;html=1;strokeColor=none;fillColor=#434445;aspect=fixed;labelPosition=center;verticalLabelPosition=bottom;verticalAlign=top;align=center;outlineConnect=0;shape=mxgraph.vvd.laptop;" parent="1" vertex="1">
          <mxGeometry x="-168" y="-1017" width="50" height="36" as="geometry" />
        </mxCell>
        <mxCell id="A0nYaDOjtjgqWgvlFO7J-143" value="" style="edgeStyle=orthogonalEdgeStyle;rounded=0;orthogonalLoop=1;jettySize=auto;html=1;strokeColor=#FF0000;" parent="1" source="A0nYaDOjtjgqWgvlFO7J-142" target="A0nYaDOjtjgqWgvlFO7J-144" edge="1">
          <mxGeometry relative="1" as="geometry">
            <Array as="points">
              <mxPoint x="-124" y="-999" />
              <mxPoint x="-124" y="-999" />
            </Array>
            <mxPoint x="-89" y="-998.5" as="sourcePoint" />
          </mxGeometry>
        </mxCell>
        <mxCell id="A0nYaDOjtjgqWgvlFO7J-144" value="" style="shape=image;verticalLabelPosition=bottom;labelBackgroundColor=default;verticalAlign=top;aspect=fixed;imageAspect=0;image=https://gremlin.awsworkshop.io/images/gremlin_mascot.png;" parent="1" vertex="1">
          <mxGeometry x="-66" y="-1013" width="53.05" height="29" as="geometry" />
        </mxCell>
        <mxCell id="A0nYaDOjtjgqWgvlFO7J-145" value="" style="edgeLabel;html=1;align=center;verticalAlign=middle;resizable=0;points=[];fillColor=#FFFF00;" parent="1" vertex="1" connectable="0">
          <mxGeometry x="-41.364705875154414" y="-803.0542040967641" as="geometry" />
        </mxCell>
        <mxCell id="A0nYaDOjtjgqWgvlFO7J-146" value="" style="edgeStyle=orthogonalEdgeStyle;rounded=0;orthogonalLoop=1;jettySize=auto;html=1;strokeColor=#009900;" parent="1" source="k0CTzh7-vUOgCoUulJSG-6" target="A0nYaDOjtjgqWgvlFO7J-142" edge="1">
          <mxGeometry relative="1" as="geometry">
            <mxPoint x="-245" y="-1173" as="targetPoint" />
            <Array as="points">
              <mxPoint x="-146" y="-899" />
            </Array>
            <mxPoint x="-226.4074074074074" y="-899" as="sourcePoint" />
          </mxGeometry>
        </mxCell>
        <mxCell id="A0nYaDOjtjgqWgvlFO7J-148" value="" style="edgeStyle=orthogonalEdgeStyle;rounded=0;orthogonalLoop=1;jettySize=auto;html=1;strokeColor=#6600CC;" parent="1" target="A0nYaDOjtjgqWgvlFO7J-149" edge="1">
          <mxGeometry relative="1" as="geometry">
            <mxPoint x="1234.0588235294117" y="-588" as="sourcePoint" />
            <mxPoint x="1414" y="52" as="targetPoint" />
            <Array as="points">
              <mxPoint x="1234" y="-660" />
              <mxPoint x="1234" y="-660" />
            </Array>
          </mxGeometry>
        </mxCell>
        <mxCell id="A0nYaDOjtjgqWgvlFO7J-149" value="" style="shape=image;verticalLabelPosition=bottom;labelBackgroundColor=default;verticalAlign=top;aspect=fixed;imageAspect=0;image=https://d0.awsstatic.com/partner-network/partner-logos/600x400_Dynatrace_Logo.png;clipPath=inset(26% 41% 43% 39.67%);" parent="1" vertex="1">
          <mxGeometry x="1209.98" y="-922" width="43.02" height="46" as="geometry" />
        </mxCell>
        <mxCell id="A0nYaDOjtjgqWgvlFO7J-150" value="" style="rounded=0;whiteSpace=wrap;html=1;fillColor=#FFFFFF;" parent="1" vertex="1">
          <mxGeometry x="928" y="-588" width="343" height="570" as="geometry" />
        </mxCell>
        <mxCell id="A0nYaDOjtjgqWgvlFO7J-151" value="" style="rounded=1;whiteSpace=wrap;html=1;absoluteArcSize=1;arcSize=14;strokeWidth=2;strokeColor=#007FFF;" parent="1" vertex="1">
          <mxGeometry x="1028" y="-542" width="219" height="488" as="geometry" />
        </mxCell>
        <mxCell id="A0nYaDOjtjgqWgvlFO7J-152" value="&lt;b&gt;Orchest&lt;/b&gt;" style="image;sketch=0;aspect=fixed;html=1;points=[];align=center;fontSize=12;image=img/lib/mscae/Kubernetes.svg;" parent="1" vertex="1">
          <mxGeometry x="1217" y="-606" width="39.58" height="38" as="geometry" />
        </mxCell>
        <mxCell id="A0nYaDOjtjgqWgvlFO7J-153" value="" style="shape=image;verticalLabelPosition=bottom;labelBackgroundColor=default;verticalAlign=top;aspect=fixed;imageAspect=0;image=https://www.itopstimes.com/wp-content/uploads/2023/10/Screen-Shot-2023-10-13-at-9.49.43-AM.png;strokeColor=#FF0000;clipPath=inset(0.67% 14.64% 31.67% 14.64%);" parent="1" vertex="1">
          <mxGeometry x="1298" y="-68.94" width="40.74" height="41.77" as="geometry" />
        </mxCell>
        <mxCell id="A0nYaDOjtjgqWgvlFO7J-154" value="" style="edgeStyle=orthogonalEdgeStyle;rounded=0;orthogonalLoop=1;jettySize=auto;html=1;strokeColor=#009900;" parent="1" source="A0nYaDOjtjgqWgvlFO7J-156" edge="1">
          <mxGeometry relative="1" as="geometry">
            <Array as="points">
              <mxPoint x="1015" y="-384" />
              <mxPoint x="1015" y="-384" />
            </Array>
            <mxPoint x="977.1111111111109" y="-380" as="sourcePoint" />
            <mxPoint x="1028" y="-383.9767441860465" as="targetPoint" />
          </mxGeometry>
        </mxCell>
        <mxCell id="A0nYaDOjtjgqWgvlFO7J-155" value="" style="edgeStyle=orthogonalEdgeStyle;rounded=0;orthogonalLoop=1;jettySize=auto;html=1;strokeColor=#FF0000;" parent="1" source="A0nYaDOjtjgqWgvlFO7J-153" target="A0nYaDOjtjgqWgvlFO7J-162" edge="1">
          <mxGeometry relative="1" as="geometry">
            <mxPoint x="1308" y="-51" as="sourcePoint" />
            <mxPoint x="1209.6000000000001" y="-51.07200000000006" as="targetPoint" />
            <Array as="points">
              <mxPoint x="1256" y="-40" />
              <mxPoint x="1256" y="-40" />
            </Array>
          </mxGeometry>
        </mxCell>
        <mxCell id="A0nYaDOjtjgqWgvlFO7J-156" value="" style="shape=image;verticalLabelPosition=bottom;labelBackgroundColor=default;verticalAlign=top;aspect=fixed;imageAspect=0;image=https://www.civo.com/assets/public/developers/icons/pulumi-icon-33745961ed512997b163f4414fd7f6ba4953d4af48cff30b2a7735430549da1c.png;clipPath=inset(20.5% 22% 21% 22.5%);" parent="1" vertex="1">
          <mxGeometry x="960" y="-402" width="34.15" height="36" as="geometry" />
        </mxCell>
        <mxCell id="A0nYaDOjtjgqWgvlFO7J-157" value="" style="edgeStyle=orthogonalEdgeStyle;rounded=0;orthogonalLoop=1;jettySize=auto;html=1;strokeColor=#009900;" parent="1" source="A0nYaDOjtjgqWgvlFO7J-158" target="A0nYaDOjtjgqWgvlFO7J-151" edge="1">
          <mxGeometry relative="1" as="geometry">
            <mxPoint x="970.0526315789475" y="-142.72000000000025" as="targetPoint" />
            <Array as="points">
              <mxPoint x="1003" y="-104" />
              <mxPoint x="1003" y="-104" />
            </Array>
          </mxGeometry>
        </mxCell>
        <mxCell id="A0nYaDOjtjgqWgvlFO7J-158" value="" style="shape=image;verticalLabelPosition=bottom;labelBackgroundColor=default;verticalAlign=top;aspect=fixed;imageAspect=0;image=https://brandslogos.com/wp-content/uploads/images/large/ansible-logo.png;clipPath=inset(0% 0.41% 19.33% 0% round 49%);" parent="1" vertex="1">
          <mxGeometry x="950" y="-120" width="41.88" height="41.71" as="geometry" />
        </mxCell>
        <mxCell id="A0nYaDOjtjgqWgvlFO7J-159" value="" style="edgeStyle=orthogonalEdgeStyle;rounded=0;orthogonalLoop=1;jettySize=auto;html=1;strokeColor=#009900;" parent="1" source="A0nYaDOjtjgqWgvlFO7J-160" target="A0nYaDOjtjgqWgvlFO7J-151" edge="1">
          <mxGeometry relative="1" as="geometry">
            <Array as="points">
              <mxPoint x="1006" y="-528" />
              <mxPoint x="1006" y="-528" />
            </Array>
          </mxGeometry>
        </mxCell>
        <mxCell id="A0nYaDOjtjgqWgvlFO7J-160" value="" style="shape=image;verticalLabelPosition=bottom;labelBackgroundColor=default;verticalAlign=top;aspect=fixed;imageAspect=0;image=data:image/png,iVBORw0KGgoAAAANSUhEUgAAACcAAAAzCAYAAAAU5BG4AAAAAXNSR0IArs4c6QAAAARnQU1BAACxjwv8YQUAAAAJcEhZcwAADsMAAA7DAcdvqGQAAA33SURBVGhDzZgJrJ1lmcf/39nvvrV36e3ldqGCpexYyIhkpJWoUQZEE0nGsGVMxBiDmQVZMjLj6IwhI2OiDssYRIOiGBwVcaHEDBiVAZG2IrWU9l663rZ3384+v/97zrnlXi69vbMk87Tf/c753vd73/+z/Z/nPVEZ0f9T+V8BV2KFEn+K3KNIivMnHqsO/g/kvwWuWJImciWNzJQ0zn06XwJgpLAS4CLu9clIzelI7XVxNXFPxBhYpiwLXAFQhycK2jOaVyoZV1tjTDE2LRlQdU4Q5gnLFQtlHR0tsEmk9W1xdTXFlwXylMHtY5OXjua0oTeN66L5YJYSthidKmpssqiNK1PqboxXB04uJwXngclsSTuGcqpjwdb6OLF1YqwGsHavLeTvCxd1LBYJysMjBbUlY1rfnlAdrj+ZvCk4B/cRNN03nld7cxI34j6eOc47klK2KI0yyfPyIM4zWFsoCZJ0nKTgHjOq14nnjLJuMVfWBgC2ZWIB+GKyKLgQWyywfwotmxJKsJHfZx1lmV3HKxNkxVCuADjGFi7OHC+aYKAuEVOG95PRCRAOu5Hpoma4zmhPkTTE7iIA3wDOmThEfOznxUbcmEqQabxILIv4156ZooayBLn/sVs57vjhc7kUFCj5mYGUmOMYYHWeqCGZUD38kgSFNzRQW3CW9TauSKkVgAtlHjh/MD0M4Mp0Jq50Kib+q539Z3Hb8VxRh/Cn3VWKJxQr5tVy4A9KD+1Vojhb4btYGtMkNbX+Ao139Ckq5hQDZIltUoBrSsTxAIsCztY6OlFUxLqbOtNviMF54KbzZe0dw1W81YAmFWCRporEHpY0QC9oyzQP7dPKF3+g7he/o9i+/6ws4JWcMMTj5Nuu07GNl2v43K2aaOlSvJAPwwlQNabiqgOgref1DgzntAJqOnMlwfw6mQNnrY8CYABTdzQnsA6BnwAwET84U9AMdy9UjMXVvfd59f/wDmV2bKuAaV1JFjRVfGUGHpmFpQ9KDdL4Rddr8M9u0/HudfMANgEwgyV5A6Ypa+BwThf2pOe5dw7cJNmz63hODY0JJQmyVoCZnwZmi5qiAnjfEsAax4/ovC+ej7WOSZdeQ6rmpYGdFZBxNHcI5phMMqk4Ig0f1/RlH9TOG76qbF0zG5YCwBSathKHJmWvPYFhCoTUhfBoTQJMT85iGcaUxO9Um+DS44CaJnX9ssVxdvY9fYrtBVjfBukt50kbzpJwmwpYK0ziSnF55VQ7cdGl+hce1Zqffln5lAewCFeezJvmsml8NWExig/Pw5QgAVwRn45Dtiua48Ertqzjb4S6aeBhDsC6Xtup5Ct86VqLdVjlN7j1d8/hxsNolalM9Ave3SAtKdyNtOz4vjqO7A3WD4LGUwVTUXUHvjdDB65ENQngMJBeGy/hzligDSfNGBbLArpqNBUSCb31p3dT0fkSxwJe8whID78Uxp2hJ4TBQDHcbfbMaUoP/E49P/sqSp6Y5zjP8cdLGWN9KtLgWC58tsQmYNXfDM4oT4p5HYMrMOrMrAGz2KL6j4dwUz+TsBoLKYW1EkS9wc4TxqKqBSJikkxkAyVHBpUsZQOYMMSGdm0NjY0zhceeO5DVFDkQOzRewGpF2ppYmOMsZTyAq6GzKxqmRyvWOj4gDWKx4QNoMcaKgHi9FhZr4jIzy7yJfbh9b3Czp8UMBioK07hy0BRP5qSZFmv/WD6EWcx9mctLHeAsfsGWy3H5szktns/qzJ9/G67hwYbrpM2fkFa9H7cC4uCraIRZagBjPCvNSMcAFCdZzrxeOu8mqe0cNe3eq45XtgdL1fziuwm6Jg3ORsSPomf2zZQPTha0sS8DQ5vBpRm03jdN+WFemUS4+N7blX7oC9ITr6rct7YCGo2j3z4tfR46mRqWzljvrMHNAN0OsLf+qfSFf1e5Efrw/IkxRT/8uvS5T2r3fU/r8MaLKW/FAGJFOhGqh+dNQl17DmZ1cV9dJSEsFbzcrURVE1PHqj88q9TjJ4Dt2rVL27Zt04FDh1S+8DLprx5m9dNwHfSS4r1BgF14pXT3j1RuaNb27dv11FNPaWgWAr7qRunWf9aqx+5R/ehRlV3GvE/4WxVbBDT+OzdqOqmJ2xwPlsjQ7ie/rejj96rc2ROeffr227V161Z97cEHCR3idNMl0mW4bYz48xKEpq67TeVMHTqWdMstt2jLli165FsPK6pvVHnjZjUcfE6Nh6CVauzNCRsU8ZorkTE6QsKaObLAd2vhwu52x1KagOVX9vCwwk9tHR1a3d+v+gay1FIHtzS2VtQsQcQ8Lq/sDau7+LS0tmrNunWqrzcHIbhZPefC+tmqlSpJaLHDZpyN1e8+AgS2npolNPlsgib0QpJ4cpSGJqYm2NhsXtZdd96p+++7T39+7bXhe+ix6E6CVhEKgC/KkhCMmSr+7jOf0QP336+rr746KK8cE3BpROnyHP+rRFtFxmjXvKxxxTbQ1m4m+Aq4wGLvpljUyRsVCxq9lEUf/5qi2ekwvrq3V+++4gp1dVGyrM0fd0i/egwG9Wq8ZMr7AYHPuwa3adMmbbn8crW3U8rMnYcGVMgd1eyKVaHOZvCIgVhKGCCHnhdRX5vpbGMrGuI6jSrf25AIcQf3BSM0QohpGsZ9F23Fdbjt3r+HT00ZlWaRD4oGdiv65j9Jr/xS6lyHC7DcGkrbI/+g6LF/C+BOzAfYzmelOz6kw9d8VmMr+4xGDT7geh6SxaVrW5PqpSvKUA1CV2JruV16lcrbyWADc+HCQCej+Dk5O6E/+dc74TS6jy3XMtgICR+RtlExxrDcaQCzS31GdDczO8nLtEyXkJ3nXWo9yOI/YtF/1NDHvq5XLvuAislkCHjTiDsTW2+Qg9TmbppOVx8kgPOHsdmSXuDotxo3x5npQ4wL/wHa6ALfc4mktt6MlvZujsudjWt63WpWIdgNLAjLxblKJNIR6MVzeU1DGOCD1+mlv3hQsQL1E45rT3ECozO25MjS4eGC3t5fbSAQvxbEPt4IopFJWmq+U0HUk+Y4SHaEkuOUclOJh0W2qgtuqzsdEHWVLJoT5hUMlBjrgZjXrCFQmfsWHjW0UQq5484MJTFV5TnfBjHMWZ3za/QcOC/nI12JhspaOPb2ozVJjC2IF9s3jftcz4toFy6+5HYzCZflphiDHrLjfKeeura6YhQwcQFf+z13JDxOomgznbA95HAbpvvu5Myy8JAz71sr1utvSWpyygcSZzo8hdkb3VUYXAt8V202xIFGGTjrLGpt79sY309CACp5SFr7DkBAJyRUkBJuQJeosVMJMtSHHHfCNkiuUNYo55aNC6xmmQfOWnSAvh1XjlJvQ0HmmRdr9kr1uNU+t5jdx7drpOt0jd5K03njI9J7Pyt96pc68InvApauhZNXkDJ+Z3ocZRwmPjtYcnTfhzganN2VCkfQhTIPnMUmX0VH3EIgjGNuAzQlYFCQE/w1cAncRTI8ThZ/7q6/1ZP5lfr12vfo0ZeO6tabP1qZ537PYsvVr1KiszewgBWehTaOY7ENsEMH5+M3QlsEnKUOLfpaiAG4bphez/zniflugtvutfjOieui1Wv0xN1f1Lved5VuvOlGfejqq9Sx88csQgZE5hWkRBym2pRvXRXem+SwMg1N9dMCdXPVytdCWRScxQfcfsi5i1IxNlHSKHFYbOvGVdUJFvr7M1fV64Fr1uvjpyd1wdSA7tzco3veQXaiWAhcS5lEwZXZVF1QtozVDKwn/CRWmbKYzPHcm4nXPwZBj+CZxh1Pq/dL76QROKM6ilhr1zqsQVekjH9QieNTPs/J1C5Nrt6sl296Qq1tLeqk1DVxvKsWhjeVk+CuiJm7kxK3hpNRmw/KFc48IVYNAvfhIxMajwXALPF6pbJjOn1sj/qbY2pGmaWAWZYEFwTjpvfvVv3Df435qs8Win8LM3PUEub1ku5UanCXWp98SMlxqsbJnTUnJ3crTK4Xfy397Dtc/1LZ/FzoJE+Z4BSlONVhSWH5iEA9vieUsAD+w3dJ76FG91FBqlViMVky5pQDxDSFvICvXAVupmS5A0ljwhxt71IAi7w/BTlfAJgbUNAK0yWHGOAYcDJZ2q0p+Ky1g/aBTG3AYo45n5A2XU4SDFY2r/aCc1JACVcHk7A7aA+30B23YfUO+kDOFksBs5xazNXEHYSrjBuBdPXk7qphADWABtYMH5qkc3ul9RyCQmeyvK0sy3uj9iuST/Nx2N9v17cA1sFYjY4i4Nqxsif6tx1IOtxjS1tqoSwTHBt4DxvJZwDTgWOnVuAdvqGOsqzBeF4zQH2nH1yuLB9c2m4EjOMvVAu7lA85ulC7tEipSgbfV1Z3vPr+f245Z5p9VKQtaiOwbQwDyb1G6wLoTjLZUgaw23YbtImm0zF3ck5YVE4N3DRHw92/lX78FekFPq//MCWM7POG1EthMK07Xzr7igrgAqja6f0MqpsDD/VeT3AGeeZ70sDvK+udgpwaOLszw2m5gxPTXQC86i+lnzxAMjDWTctuEF1w33oA2qNjWPbt13Aq4/PLz0t/84x00zeqcceWoXQtbcpTA5fGOqtpgS65Ujr/3dIB2D4Bso/9AsAEPF+VJnt9rrDn9z8lbb0BRT4vPfZp6VlaqIYVnD3OwYpUBSu6aAc3X5auEAslD+nOUDHsGv9GtxOrHBuQruAY2HeW9KMv4f5bIemPSGfQrm+4AAIGWIaKYlC1BvQUZPngamLSzeNPjnlBbF3zoIFnCUInhIH4ee134GWJ9F/oXaAWlCYx1QAAAABJRU5ErkJggg==;" parent="1" vertex="1">
          <mxGeometry x="962.71" y="-546.23" width="27.12" height="35.46" as="geometry" />
        </mxCell>
        <mxCell id="A0nYaDOjtjgqWgvlFO7J-161" value="" style="outlineConnect=0;gradientColor=none;html=1;whiteSpace=wrap;fontSize=12;fontStyle=0;strokeColor=#6600CC;fillColor=none;verticalAlign=top;align=center;fontColor=#858B94;dashed=1;spacingTop=3;" parent="1" vertex="1">
          <mxGeometry x="1069" y="-464" width="154" height="376" as="geometry" />
        </mxCell>
        <mxCell id="A0nYaDOjtjgqWgvlFO7J-162" value="" style="aspect=fixed;sketch=0;html=1;dashed=0;whitespace=wrap;verticalLabelPosition=bottom;verticalAlign=top;fillColor=#2875E2;strokeColor=#ffffff;points=[[0.005,0.63,0],[0.1,0.2,0],[0.9,0.2,0],[0.5,0,0],[0.995,0.63,0],[0.72,0.99,0],[0.5,1,0],[0.28,0.99,0]];shape=mxgraph.kubernetes.icon2;kubernetesLabel=1;prIcon=netpol" parent="1" vertex="1">
          <mxGeometry x="1162" y="-75" width="50" height="48" as="geometry" />
        </mxCell>
        <mxCell id="A0nYaDOjtjgqWgvlFO7J-163" value="" style="edgeStyle=orthogonalEdgeStyle;rounded=0;orthogonalLoop=1;jettySize=auto;html=1;strokeColor=#FF0000;" parent="1" source="A0nYaDOjtjgqWgvlFO7J-174" target="A0nYaDOjtjgqWgvlFO7J-166" edge="1">
          <mxGeometry relative="1" as="geometry">
            <mxPoint x="1302.119999999999" y="-303" as="sourcePoint" />
            <Array as="points" />
            <mxPoint x="1206" y="-303" as="targetPoint" />
          </mxGeometry>
        </mxCell>
        <mxCell id="A0nYaDOjtjgqWgvlFO7J-164" value="" style="aspect=fixed;sketch=0;html=1;dashed=0;whitespace=wrap;verticalLabelPosition=bottom;verticalAlign=top;fillColor=#2875E2;strokeColor=#ffffff;points=[[0.005,0.63,0],[0.1,0.2,0],[0.9,0.2,0],[0.5,0,0],[0.995,0.63,0],[0.72,0.99,0],[0.5,1,0],[0.28,0.99,0]];shape=mxgraph.kubernetes.icon2;kubernetesLabel=1;prIcon=ns" parent="1" vertex="1">
          <mxGeometry x="1050" y="-559.87" width="50" height="48" as="geometry" />
        </mxCell>
        <mxCell id="A0nYaDOjtjgqWgvlFO7J-165" value="" style="edgeStyle=orthogonalEdgeStyle;rounded=0;orthogonalLoop=1;jettySize=auto;html=1;strokeColor=#009900;" parent="1" source="A0nYaDOjtjgqWgvlFO7J-166" target="A0nYaDOjtjgqWgvlFO7J-168" edge="1">
          <mxGeometry relative="1" as="geometry">
            <mxPoint x="1156" y="-303" as="sourcePoint" />
            <mxPoint x="1137" y="-303" as="targetPoint" />
            <Array as="points" />
          </mxGeometry>
        </mxCell>
        <mxCell id="A0nYaDOjtjgqWgvlFO7J-166" value="" style="aspect=fixed;sketch=0;html=1;dashed=0;whitespace=wrap;verticalLabelPosition=bottom;verticalAlign=top;fillColor=#2875E2;strokeColor=#ffffff;points=[[0.005,0.63,0],[0.1,0.2,0],[0.9,0.2,0],[0.5,0,0],[0.995,0.63,0],[0.72,0.99,0],[0.5,1,0],[0.28,0.99,0]];shape=mxgraph.kubernetes.icon2;kubernetesLabel=1;prIcon=svc" parent="1" vertex="1">
          <mxGeometry x="1163" y="-334" width="43" height="41.28" as="geometry" />
        </mxCell>
        <mxCell id="A0nYaDOjtjgqWgvlFO7J-167" value="" style="edgeStyle=orthogonalEdgeStyle;rounded=0;orthogonalLoop=1;jettySize=auto;html=1;strokeColor=#009900;" parent="1" source="A0nYaDOjtjgqWgvlFO7J-168" target="A0nYaDOjtjgqWgvlFO7J-171" edge="1">
          <mxGeometry relative="1" as="geometry">
            <Array as="points" />
            <mxPoint x="1113" y="-264" as="sourcePoint" />
          </mxGeometry>
        </mxCell>
        <mxCell id="A0nYaDOjtjgqWgvlFO7J-168" value="" style="aspect=fixed;sketch=0;html=1;dashed=0;whitespace=wrap;verticalLabelPosition=bottom;verticalAlign=top;fillColor=#2875E2;strokeColor=#ffffff;points=[[0.005,0.63,0],[0.1,0.2,0],[0.9,0.2,0],[0.5,0,0],[0.995,0.63,0],[0.72,0.99,0],[0.5,1,0],[0.28,0.99,0]];shape=mxgraph.kubernetes.icon2;kubernetesLabel=1;prIcon=deploy" parent="1" vertex="1">
          <mxGeometry x="1088" y="-337" width="50" height="48" as="geometry" />
        </mxCell>
        <mxCell id="A0nYaDOjtjgqWgvlFO7J-169" value="" style="aspect=fixed;sketch=0;html=1;dashed=0;whitespace=wrap;verticalLabelPosition=bottom;verticalAlign=top;fillColor=#2875E2;strokeColor=#ffffff;points=[[0.005,0.63,0],[0.1,0.2,0],[0.9,0.2,0],[0.5,0,0],[0.995,0.63,0],[0.72,0.99,0],[0.5,1,0],[0.28,0.99,0]];shape=mxgraph.kubernetes.icon2;kubernetesLabel=1;prIcon=etcd" parent="1" vertex="1">
          <mxGeometry x="1088" y="-143" width="50" height="48" as="geometry" />
        </mxCell>
        <mxCell id="A0nYaDOjtjgqWgvlFO7J-170" value="" style="edgeStyle=orthogonalEdgeStyle;rounded=0;orthogonalLoop=1;jettySize=auto;html=1;strokeColor=#6600CC;" parent="1" source="A0nYaDOjtjgqWgvlFO7J-171" target="A0nYaDOjtjgqWgvlFO7J-169" edge="1">
          <mxGeometry relative="1" as="geometry" />
        </mxCell>
        <mxCell id="A0nYaDOjtjgqWgvlFO7J-171" value="" style="aspect=fixed;sketch=0;html=1;dashed=0;whitespace=wrap;verticalLabelPosition=bottom;verticalAlign=top;fillColor=#2875E2;strokeColor=#ffffff;points=[[0.005,0.63,0],[0.1,0.2,0],[0.9,0.2,0],[0.5,0,0],[0.995,0.63,0],[0.72,0.99,0],[0.5,1,0],[0.28,0.99,0]];shape=mxgraph.kubernetes.icon2;kubernetesLabel=1;prIcon=pod" parent="1" vertex="1">
          <mxGeometry x="1088" y="-211" width="50" height="48" as="geometry" />
        </mxCell>
        <mxCell id="A0nYaDOjtjgqWgvlFO7J-172" value="" style="edgeStyle=orthogonalEdgeStyle;rounded=0;orthogonalLoop=1;jettySize=auto;html=1;strokeColor=#6600CC;" parent="1" source="A0nYaDOjtjgqWgvlFO7J-169" target="A0nYaDOjtjgqWgvlFO7J-173" edge="1">
          <mxGeometry relative="1" as="geometry">
            <mxPoint x="1204" y="-147" as="sourcePoint" />
            <mxPoint x="1292" y="-119.52173913043453" as="targetPoint" />
          </mxGeometry>
        </mxCell>
        <mxCell id="A0nYaDOjtjgqWgvlFO7J-173" value="" style="shape=image;verticalLabelPosition=bottom;labelBackgroundColor=default;verticalAlign=top;aspect=fixed;imageAspect=0;image=https://b2discourse.pi-hole.net/optimized/3X/9/f/9f56ec283e4a1298953b844103024a1c7147474a_2_500x500.png;clipPath=inset(10.67% 2% 11.33% 2.33%);" parent="1" vertex="1">
          <mxGeometry x="1294.88" y="-134.8" width="40.47" height="33" as="geometry" />
        </mxCell>
        <mxCell id="A0nYaDOjtjgqWgvlFO7J-174" value="" style="shape=image;verticalLabelPosition=bottom;labelBackgroundColor=default;verticalAlign=top;aspect=fixed;imageAspect=0;image=https://mvallim.github.io/kubernetes-under-the-hood/documentation/images/metallb-logo.png;clipPath=inset(15.17% 75% 17.42% 6% round 49%);" parent="1" vertex="1">
          <mxGeometry x="1302.12" y="-332" width="36.1" height="38" as="geometry" />
        </mxCell>
        <mxCell id="A0nYaDOjtjgqWgvlFO7J-176" value="" style="edgeStyle=orthogonalEdgeStyle;rounded=0;orthogonalLoop=1;jettySize=auto;html=1;strokeColor=#009900;exitX=0.5;exitY=0;exitDx=0;exitDy=0;entryX=1;entryY=0.5;entryDx=0;entryDy=0;" parent="1" source="A0nYaDOjtjgqWgvlFO7J-174" target="k0CTzh7-vUOgCoUulJSG-6" edge="1">
          <mxGeometry relative="1" as="geometry">
            <mxPoint x="-228.96296296296305" y="-899" as="targetPoint" />
            <Array as="points">
              <mxPoint x="1320" y="-954" />
              <mxPoint x="-146" y="-954" />
              <mxPoint x="-146" y="-899" />
            </Array>
            <mxPoint x="1682" y="-514" as="sourcePoint" />
          </mxGeometry>
        </mxCell>
        <mxCell id="A0nYaDOjtjgqWgvlFO7J-177" value="" style="edgeStyle=orthogonalEdgeStyle;rounded=0;orthogonalLoop=1;jettySize=auto;html=1;strokeColor=#009900;" parent="1" source="A0nYaDOjtjgqWgvlFO7J-149" target="k0CTzh7-vUOgCoUulJSG-6" edge="1">
          <mxGeometry relative="1" as="geometry">
            <mxPoint x="-226.82999999999993" y="-889.962962962963" as="targetPoint" />
            <Array as="points">
              <mxPoint x="1235" y="-899" />
            </Array>
            <mxPoint x="1497" y="-878" as="sourcePoint" />
          </mxGeometry>
        </mxCell>
        <mxCell id="A0nYaDOjtjgqWgvlFO7J-178" value="" style="edgeStyle=orthogonalEdgeStyle;rounded=0;orthogonalLoop=1;jettySize=auto;html=1;strokeColor=#009900;" parent="1" source="N_ae5W9qRV80UMjD5rNb-125" target="A0nYaDOjtjgqWgvlFO7J-160" edge="1">
          <mxGeometry relative="1" as="geometry">
            <mxPoint x="798" y="-540" as="sourcePoint" />
            <mxPoint x="1349" y="-543" as="targetPoint" />
            <Array as="points">
              <mxPoint x="980" y="-717" />
            </Array>
          </mxGeometry>
        </mxCell>
        <mxCell id="A0nYaDOjtjgqWgvlFO7J-179" value="" style="edgeStyle=orthogonalEdgeStyle;rounded=0;orthogonalLoop=1;jettySize=auto;html=1;strokeColor=#009900;" parent="1" source="VHQm3ld0HByzxrR_ddXe-69" target="A0nYaDOjtjgqWgvlFO7J-156" edge="1">
          <mxGeometry relative="1" as="geometry">
            <mxPoint x="871.0900000000001" y="-404" as="sourcePoint" />
            <mxPoint x="960" y="-466" as="targetPoint" />
            <Array as="points">
              <mxPoint x="939" y="-385" />
              <mxPoint x="939" y="-385" />
            </Array>
          </mxGeometry>
        </mxCell>
        <mxCell id="A0nYaDOjtjgqWgvlFO7J-180" value="" style="edgeStyle=orthogonalEdgeStyle;rounded=0;orthogonalLoop=1;jettySize=auto;html=1;strokeColor=#FF0000;" parent="1" source="8N1gZI2geE5Co_WE50Yg-59" edge="1">
          <mxGeometry relative="1" as="geometry">
            <mxPoint x="840" y="-393" as="sourcePoint" />
            <mxPoint x="928" y="-288.0232558139535" as="targetPoint" />
            <Array as="points">
              <mxPoint x="877" y="-288" />
              <mxPoint x="877" y="-288" />
            </Array>
          </mxGeometry>
        </mxCell>
        <mxCell id="A0nYaDOjtjgqWgvlFO7J-182" value="" style="edgeStyle=orthogonalEdgeStyle;rounded=0;orthogonalLoop=1;jettySize=auto;html=1;strokeColor=#FF0000;entryX=1;entryY=0.5;entryDx=0;entryDy=0;" parent="1" source="A0nYaDOjtjgqWgvlFO7J-74" target="A0nYaDOjtjgqWgvlFO7J-174" edge="1">
          <mxGeometry relative="1" as="geometry">
            <mxPoint x="1572" y="-313" as="targetPoint" />
            <Array as="points">
              <mxPoint x="1386" y="88" />
              <mxPoint x="1386" y="-313" />
            </Array>
            <mxPoint x="977" y="-88" as="sourcePoint" />
          </mxGeometry>
        </mxCell>
        <mxCell id="yvz_mEQcSD7JRhoXDO8C-1" value="" style="rounded=0;whiteSpace=wrap;html=1;" parent="1" vertex="1">
          <mxGeometry x="-462" y="-563" width="349" height="456" as="geometry" />
        </mxCell>
        <mxCell id="yvz_mEQcSD7JRhoXDO8C-6" value="" style="shape=image;verticalLabelPosition=bottom;labelBackgroundColor=default;verticalAlign=top;aspect=fixed;imageAspect=0;image=https://uxwing.com/wp-content/themes/uxwing/download/file-and-folder-type/yaml-file-icon.png;" parent="1" vertex="1">
          <mxGeometry x="-433" y="-167.47" width="32.06" height="34.06" as="geometry" />
        </mxCell>
        <mxCell id="yvz_mEQcSD7JRhoXDO8C-7" value="" style="edgeStyle=orthogonalEdgeStyle;rounded=0;orthogonalLoop=1;jettySize=auto;html=1;strokeColor=#FF0000;" parent="1" source="k0CTzh7-vUOgCoUulJSG-58" target="dZKMA7ej_25IAb3C-dLl-66" edge="1">
          <mxGeometry relative="1" as="geometry">
            <Array as="points">
              <mxPoint x="53" y="-93" />
              <mxPoint x="53" y="-93" />
            </Array>
            <mxPoint x="-166.99999999999818" y="-115" as="sourcePoint" />
            <mxPoint x="340" y="11.028571428571468" as="targetPoint" />
          </mxGeometry>
        </mxCell>
        <mxCell id="yvz_mEQcSD7JRhoXDO8C-8" value="" style="rounded=0;whiteSpace=wrap;html=1;" parent="1" vertex="1">
          <mxGeometry x="-429.95" y="-538" width="151.95" height="121" as="geometry" />
        </mxCell>
        <mxCell id="yvz_mEQcSD7JRhoXDO8C-14" value="" style="shape=image;verticalLabelPosition=bottom;labelBackgroundColor=default;verticalAlign=top;aspect=fixed;imageAspect=0;image=data:image/png,iVBORw0KGgoAAAANSUhEUgAAABoAAAAbCAYAAABiFp9rAAAAAXNSR0IArs4c6QAAAARnQU1BAACxjwv8YQUAAAAJcEhZcwAADsMAAA7DAcdvqGQAAANKSURBVEhLvVY9TBNhGH7u2rv+ohRQEEiMihswkBB0Ek1MTIwuLiYmTk4m4qgJiw4ODi66qXEzDjoZF2NiWFQaBxV0UBA0oUYQqfLTH9re+bx3PXrXFlqI+iSX++6+73uf7/3/lGis1cR/gFp8/3PU1ijH6WVnSflSBfDxta32eTcmShowOoLIH++A2cJ3TxPM1iCU72naQoF/bAHq+yS0xzNcTLLY+oTViSwtClg914XVs/sBP0+u8CkYQKYABEUNwkfBpgnl6wq05wnodyaBKOc0ri1DJdEStWgOIDPcA+PgTuD3anFiAwixRtLpZYQvxKEmuafBq52XiJoYER2pR4O2Fiv54kSdaNRtsvOjUNM5j2ZeWppLNNkSieAXNdkTRerWAGV595eI6HjxiWWurZA4ELKuBmSHey2ZDlwakejMvvp84kbYTwtQTIRvBwyYfHcTB+VEiwZyJztth24G23Xo9z4hfGoEany+REYic3cEuROUSdkCWzIj1uiO2eFaLxoDCFx9C/3uJNSfKUldL/gjd7Sdsu1YK0o2rWS08qQcYhonbxwIyZU30J5IoppI3TyAwpFdXt+SwNwRKn64fCQZbyWjG7EAT/wRSLAScGyhgmQAxiBJ5rimHExmB+vbKqJBezhNH0wifDEO5eUca5peP4n4qa2KRsosF7tNRDPm+lpQ6G+Bj7UtdGMcoaFRkiQ4WYNEQFnKbKb44Sb6wZ8+l0vFjHujSF/uRb6/GeqXNHzvkpwwapMIGFj+8QUObJk2EQm0Z9/WImQNknwM0/SlXoZqB8CyUheJgBaRym61EcKudVLj6OTUg0NAtiwgBI5Js4zKMMf1VA4ePnr4KYPIzi1bIxY/dSaDwPUxlnnN+uWBmFEeiaJ6SCSR73/moBRrpVFUgW88CeU1M9wJ5a2Ae9VXc1YiuxthaSRaJTIIXaNWU0t2yd8s5IATiwgPxddM5qBEJGCzUuezVj+RvoKGKmasBvEhzaW+mEX09AhJKvdVb+XSZdt4RzjWbrdyOY7UwYpWztDl3UGZWi618jJNHFQnEhRvP0ZnEIW+Jqvoei4nvEOoDHHfhyT02xPcwINs+nLihhCm+VhRX20ptdqAwEFtor8C4A/250odYSyyigAAAABJRU5ErkJggg==;clipPath=inset(12.96% 11.54% 5.56% 7.69% round 49%);" parent="1" vertex="1">
          <mxGeometry x="-338" y="-465" width="25.772727272727273" height="27" as="geometry" />
        </mxCell>
        <mxCell id="yvz_mEQcSD7JRhoXDO8C-16" value="" style="shape=image;verticalLabelPosition=bottom;labelBackgroundColor=default;verticalAlign=top;aspect=fixed;imageAspect=0;image=data:image/png,iVBORw0KGgoAAAANSUhEUgAAABoAAAAbCAYAAABiFp9rAAAAAXNSR0IArs4c6QAAAARnQU1BAACxjwv8YQUAAAAJcEhZcwAADsMAAA7DAcdvqGQAAANKSURBVEhLvVY9TBNhGH7u2rv+ohRQEEiMihswkBB0Ek1MTIwuLiYmTk4m4qgJiw4ODi66qXEzDjoZF2NiWFQaBxV0UBA0oUYQqfLTH9re+bx3PXrXFlqI+iSX++6+73uf7/3/lGis1cR/gFp8/3PU1ijH6WVnSflSBfDxta32eTcmShowOoLIH++A2cJ3TxPM1iCU72naQoF/bAHq+yS0xzNcTLLY+oTViSwtClg914XVs/sBP0+u8CkYQKYABEUNwkfBpgnl6wq05wnodyaBKOc0ri1DJdEStWgOIDPcA+PgTuD3anFiAwixRtLpZYQvxKEmuafBq52XiJoYER2pR4O2Fiv54kSdaNRtsvOjUNM5j2ZeWppLNNkSieAXNdkTRerWAGV595eI6HjxiWWurZA4ELKuBmSHey2ZDlwakejMvvp84kbYTwtQTIRvBwyYfHcTB+VEiwZyJztth24G23Xo9z4hfGoEany+REYic3cEuROUSdkCWzIj1uiO2eFaLxoDCFx9C/3uJNSfKUldL/gjd7Sdsu1YK0o2rWS08qQcYhonbxwIyZU30J5IoppI3TyAwpFdXt+SwNwRKn64fCQZbyWjG7EAT/wRSLAScGyhgmQAxiBJ5rimHExmB+vbKqJBezhNH0wifDEO5eUca5peP4n4qa2KRsosF7tNRDPm+lpQ6G+Bj7UtdGMcoaFRkiQ4WYNEQFnKbKb44Sb6wZ8+l0vFjHujSF/uRb6/GeqXNHzvkpwwapMIGFj+8QUObJk2EQm0Z9/WImQNknwM0/SlXoZqB8CyUheJgBaRym61EcKudVLj6OTUg0NAtiwgBI5Js4zKMMf1VA4ePnr4KYPIzi1bIxY/dSaDwPUxlnnN+uWBmFEeiaJ6SCSR73/moBRrpVFUgW88CeU1M9wJ5a2Ae9VXc1YiuxthaSRaJTIIXaNWU0t2yd8s5IATiwgPxddM5qBEJGCzUuezVj+RvoKGKmasBvEhzaW+mEX09AhJKvdVb+XSZdt4RzjWbrdyOY7UwYpWztDl3UGZWi618jJNHFQnEhRvP0ZnEIW+Jqvoei4nvEOoDHHfhyT02xPcwINs+nLihhCm+VhRX20ptdqAwEFtor8C4A/250odYSyyigAAAABJRU5ErkJggg==;clipPath=inset(12.96% 11.54% 5.56% 7.69% round 49%);" parent="1" vertex="1">
          <mxGeometry x="-394" y="-464.1700000000001" width="25.772727272727273" height="27" as="geometry" />
        </mxCell>
        <mxCell id="yvz_mEQcSD7JRhoXDO8C-17" value="" style="edgeStyle=orthogonalEdgeStyle;rounded=0;orthogonalLoop=1;jettySize=auto;html=1;strokeColor=#FF0000;" parent="1" source="yvz_mEQcSD7JRhoXDO8C-27" target="yvz_mEQcSD7JRhoXDO8C-20" edge="1">
          <mxGeometry relative="1" as="geometry">
            <Array as="points">
              <mxPoint x="-151" y="-484" />
              <mxPoint x="-151" y="-272" />
            </Array>
            <mxPoint x="-231" y="-280" as="targetPoint" />
          </mxGeometry>
        </mxCell>
        <mxCell id="yvz_mEQcSD7JRhoXDO8C-18" value="" style="edgeStyle=orthogonalEdgeStyle;rounded=0;orthogonalLoop=1;jettySize=auto;html=1;strokeColor=#009900;" parent="1" source="yvz_mEQcSD7JRhoXDO8C-8" target="yvz_mEQcSD7JRhoXDO8C-20" edge="1">
          <mxGeometry relative="1" as="geometry">
            <Array as="points">
              <mxPoint x="-325" y="-399" />
              <mxPoint x="-325" y="-399" />
            </Array>
            <mxPoint x="-164.94999999999982" y="-438.4625000000001" as="sourcePoint" />
            <mxPoint x="-144" y="-400.0000000000002" as="targetPoint" />
          </mxGeometry>
        </mxCell>
        <mxCell id="yvz_mEQcSD7JRhoXDO8C-19" value="" style="edgeStyle=orthogonalEdgeStyle;rounded=0;orthogonalLoop=1;jettySize=auto;html=1;strokeColor=#FF8000;" parent="1" source="yvz_mEQcSD7JRhoXDO8C-20" target="yvz_mEQcSD7JRhoXDO8C-8" edge="1">
          <mxGeometry relative="1" as="geometry">
            <Array as="points">
              <mxPoint x="-376" y="-396" />
              <mxPoint x="-376" y="-396" />
            </Array>
            <mxPoint x="-218" y="-386" as="sourcePoint" />
            <mxPoint x="-237" y="-414.9200000000001" as="targetPoint" />
          </mxGeometry>
        </mxCell>
        <mxCell id="yvz_mEQcSD7JRhoXDO8C-20" value="" style="rounded=0;whiteSpace=wrap;html=1;" parent="1" vertex="1">
          <mxGeometry x="-430" y="-375" width="224" height="186" as="geometry" />
        </mxCell>
        <mxCell id="yvz_mEQcSD7JRhoXDO8C-21" value="&lt;b&gt;app&lt;/b&gt;" style="image;aspect=fixed;html=1;points=[];align=center;fontSize=12;image=img/lib/azure2/general/Folder_Blank.svg;" parent="1" vertex="1">
          <mxGeometry x="-366.13" y="-349" width="46.82" height="38" as="geometry" />
        </mxCell>
        <mxCell id="yvz_mEQcSD7JRhoXDO8C-22" value="" style="edgeStyle=orthogonalEdgeStyle;rounded=0;orthogonalLoop=1;jettySize=auto;html=1;strokeColor=#FF8000;" parent="1" source="yvz_mEQcSD7JRhoXDO8C-23" target="yvz_mEQcSD7JRhoXDO8C-25" edge="1">
          <mxGeometry relative="1" as="geometry" />
        </mxCell>
        <mxCell id="yvz_mEQcSD7JRhoXDO8C-23" value="&lt;b&gt;config&lt;/b&gt;" style="image;aspect=fixed;html=1;points=[];align=center;fontSize=12;image=img/lib/azure2/general/Folder_Blank.svg;" parent="1" vertex="1">
          <mxGeometry x="-290.21000000000004" y="-264.5" width="46.82" height="38" as="geometry" />
        </mxCell>
        <mxCell id="yvz_mEQcSD7JRhoXDO8C-24" value="" style="edgeStyle=orthogonalEdgeStyle;rounded=0;orthogonalLoop=1;jettySize=auto;html=1;strokeColor=#FF8000;" parent="1" source="yvz_mEQcSD7JRhoXDO8C-25" target="yvz_mEQcSD7JRhoXDO8C-21" edge="1">
          <mxGeometry relative="1" as="geometry">
            <Array as="points">
              <mxPoint x="-396" y="-242" />
              <mxPoint x="-396" y="-330" />
            </Array>
          </mxGeometry>
        </mxCell>
        <mxCell id="yvz_mEQcSD7JRhoXDO8C-25" value="&lt;b&gt;utils&lt;/b&gt;" style="image;aspect=fixed;html=1;points=[];align=center;fontSize=12;image=img/lib/azure2/general/Folder_Blank.svg;" parent="1" vertex="1">
          <mxGeometry x="-367.12" y="-264.5" width="46.82" height="38" as="geometry" />
        </mxCell>
        <mxCell id="yvz_mEQcSD7JRhoXDO8C-26" value="" style="edgeStyle=orthogonalEdgeStyle;rounded=0;orthogonalLoop=1;jettySize=auto;html=1;strokeColor=#FF0000;" parent="1" source="yvz_mEQcSD7JRhoXDO8C-8" target="yvz_mEQcSD7JRhoXDO8C-27" edge="1">
          <mxGeometry relative="1" as="geometry">
            <Array as="points">
              <mxPoint x="-266" y="-484" />
              <mxPoint x="-266" y="-484" />
            </Array>
            <mxPoint x="-258.99999999999955" y="-477.4999999999998" as="sourcePoint" />
            <mxPoint x="-209.82000000000016" y="-477.4999999999998" as="targetPoint" />
          </mxGeometry>
        </mxCell>
        <mxCell id="yvz_mEQcSD7JRhoXDO8C-27" value="&lt;b&gt;tests&lt;/b&gt;" style="image;aspect=fixed;html=1;points=[];align=center;fontSize=12;image=img/lib/azure2/general/Folder_Blank.svg;" parent="1" vertex="1">
          <mxGeometry x="-234.82000000000016" y="-503" width="46.82" height="38" as="geometry" />
        </mxCell>
        <mxCell id="yvz_mEQcSD7JRhoXDO8C-28" value="" style="shape=image;verticalLabelPosition=bottom;labelBackgroundColor=default;verticalAlign=top;aspect=fixed;imageAspect=0;image=data:image/png,iVBORw0KGgoAAAANSUhEUgAAAEUAAABaCAYAAADuDZtnAAAAAXNSR0IArs4c6QAAAARnQU1BAACxjwv8YQUAAAAJcEhZcwAADsMAAA7DAcdvqGQAABGUSURBVHhe7Vx5dFzldf+NRiONVgvJWPtosawY25SWGBos2RYUDHEO0BhMjOOC3YSAKdAmTYrtEyLcxSakOAuHJZQeOY0Bg8Fw4ABhCV5ljCGl5wQ7XrWvXoR2jWZ7vfe+92ZG0pvRvNEI8sf8jp/e/r3v+3333u/e+31ji0JAHGOQoO3jCEKcFAPESTFAnBQDxEkxQJwUA8RJMUCcFAPESTFAnBQDxEkxQJwUA8RJMcAXRsr253Zj74EjaGpp165MHdNRpoBTB9OJPfs/UkoXXK0AJdqWp9TteEVpbG7TnjCP2i2/UpBRSWWVSplZ5VVSZqwwraQwIcAsBfYK2pcrSJytNcahLLpuldw3gwDBRIaUQ2UmUJlSft6UiA7GtJHiJ0QqX6ZUL1ut/EXVN+nYQY2ghnCD6Lhm+Rp5NlyDWAr4OfVdIkDeL1auv2W9snDprXRcpn0nJybETEvmjXW8rORyICMLGHAjd/YszF96OzxeBXlpozjw3uvoPNUB2BMBp4/e8NLmQ83ypfL+0uor0dzSgb0HP0JTM9mLARddJfOXQc/TccGcAlRfdxOOnrPiijm5eHPnEzjXcJbKs1I/XIzGA7tQ6iiUsqLBtJBy9Tf+DnvfOkSVtKCgOBfzlqyCe3RI7p0fAebmp+Jsw6dobmpAy7EWai81JsmiEcTgKtG5nYiw0Tbg0a65sPgby2DLvQz9Q06k2RT0DLrwleKLUP+7nUR0pzxXu+UHeHjj/XQcHWJOysNbH8fmTY9RryZTY4Zx2733oeECpAE6Rj0KrEmpyMu0oK/rNHrPd+Ls2bNEUDPdJTJk05934/bvrELGRbn4v4Y+pGcXwOvs1+6p6HMqmFOQgcPv7UJrI0mgcwR1O36Ftd9eoT1hDjEnpezSa9B0upUq5sF1K2/C50nlSLOQeBiAybElp0LxulHhmIXmMycwMzsD8DihWJMxI+sinG7rQ6/XDo9rBLmkPl4PS81EjMKOdGcD3n/5DVHLrIJcfLrnxajUKKZ+CktJ02eNcuyY54AnPTQhjORECxK8I7DCgz+eaII3OQeNPRacGUhH0+cJ+OTkOXpKQZZ1BDNTyPKEIIThHulHUeVC5M9hEhT0NrSRD/ORetMkYkrKvoNH6C8VSVLylXl/Sb2dBKstBdZE2mubJSkNPe5EDLlZRQJIT6F7PpeoWUaiR/ZZqTbtbgBWmx0WW+qYMnmbkTkDH5/sxvzLyMA72XBb8ZvnX1VfMomYqY864lxFopuMkvICVFbfjr72o3D2tuLC+QuqlaAvlZQUYXZFJZxIQftQCs739iE/M0ktJAyYxBlpdgx0n0YyhtBw6iQsFpVYbkB2Tg7mXvY1pGY7sOfVZ9DSQKOWcxSNzR+aVqGYkaIa2J/TkQVLvl6FMw2NaD9BtiWRhlH6J5DRRTeiXlx17VWoufYGPHeoExXZtpDqwfYlL82FD/e8idY/0WhFUsAjm4DL5FGKX/W4UbWsCu0d3WTX6DmS2Lodj5k2uDFVHwEZw/1v16O9mYdHqryHRNnppqHVitIFpXSNjpkUexI+fP9jbN3wEBZm96K/f4Bo0tlToRvi7mPv46Unn6KRhcq0s0oREcFl0h5MKJVZ/y75NkwID+XUvH0HP5ayzCBmpKj2ROs9drKol2qWL5Keamw+BKX/BBr/+IGIM18rrSimB7mX7di9fRc6P/s98rPtMrwyeD9rhg3H9r+IEx//SR3iiQh+b3yZvN+z/6VAmUKIiqaWNu3IBFh9YgGJSdgF1wI1DtomAz9z8Zxqep7cdNry5yxSVj7wuPJXq3+h3HT3z+hanurSS2wzK6JYSYLFoNiIwwOziD0ptPFxpOCGppctElJ4K6isVm64dT0dF/njJi4vEkJ0RFsXHbEnhRoRiZQEg4M4OK5SidGDRSYkykZxACnSEuX7sTe0ZC6NrL0M2eTtclw0PinEQyYHcVk0lMtowjaJQe583ZOPqMcGCJVgqln81/SXyokWGjlTgpomKNHE3WEYvoskaSrCUmH0DPdw9uwqtZfD2BBJI8i36JsGZYnkcZpBnik2/FY4TJkUVVTz1QpoFR3fGLWSxWGf0cHXWf1CNcSfV5F8DG8lE4zpGFLke2q2L1JMiRR/BfnDbE+kAuXK2ns2aE+oGCNJ8kxoUsJBLWemlMHf4O+zBI63G+oIRBKpf0++WSTvRCI1UZMyhhAS99zKxYGKUAXGf9yvPlEaPx2RkOknQgw/SahuuMOobjCiImUsIYXKg7XblMFRRckuJ59DRo+JksDnQgy9E65h3Jv8jNkRTIdfdYiQnIpqpad/VFm17p/pGpEjJJUqD/3HL8MSY5oUVTR1o5qrvP7OAWWICOkd8ir/8pPH5KNGKhQJ1Abp/knBpD1qBL/q0Mb1+XzQo4z6FOVHDz2m5LE0CzEFYUk3TYpUWCpdIoT0DfuUrgtDsg2M+KR31A9PVKHJ4PcvpPxSU8aRoZJa4Cf1AsUKet2cXkXrNL1DQ5Nuyk8Rn2DASTGdF9nlxahe9DWMjASSSB6vD99lH4XiHo5pyhavNPQjpgvsA8GeKsntjQ//EAnWQIDZ2zuM2h//gKLoRVrOd2zwGQxTpPCMnES+5GB9745bkJAw9vXR0VH8eMM/Ir2UnDCOhFs6tXciQ6mjiP7SewJFO48M69ZvRNNnTXKcWVaAB3/0gNQnGB6Kuh3Fem4lIWRmzhQpPO2gRsI+Kdznm+g1jro8eOGZR1VpyUjC5k2PSK4lEtQsvhKlC8qpJykapj2fRwL2bLc/vYO+Z6PvurDj6Z/CyymLcfB6vVi8iMvke6HTClG7+Xp/jgcTVVyoSQojI52I+WnEElNTzS66B3eu/qZ6YRIwIVcvuZG+w2rjQfWyalxTUw13qISVtg+HqEkJBTvZknse2ERHms6y/makYd2aB9TE9iQ2RiWjNaJsGavM1UtuofKz1AsUMx189wCOnzgzQbXNIKak2BITsXf/QRz+/SGpIBvlG269Qfawp8h80Le/+0Pp3VBglaFRIWxelaWOjer2p1/QJMRNm24/EvHKq29I5xhBS4OFRUxJsSZasfruB4kA0m2q6Io7V6EtbSHtv4ViMn5spA+9x+K+Up1FDBHlhiJEJ2Pdmu9rM5D8nSHUbvm+ZN6EGLIrW2t/hsbGpgnSwudqJo6vKyhxcJ0mIvS4ZICl1VdQ7+ykIwus4yhPS0vFv23ZhsEmniO2orCyED2WPOR4utGaUIJ5C9Pgcv0O3We6pDHcqL1vHaA31Tlknj9mqDYlkEZk0jjVKdKlzynbk8igcmqyRFILukFm4ywTcUjGzpdew6YH/wlDw8NyT0eCNgMQDqZICcAildV7gvcnTp7Bo//K06XpUvni2ZfAYkkQw5bqG8BIQgbmVq9EzbUD2P/Be+g8xY3mrLxOUL2UtdmfB9Erz3vaJMfC3/MKGbUb7ptgd9gebd60jcpMxH/teAUrb70ZRYX5Y0bJBD8nPOQbS+RY+ZoEAT/CgubWdv+8C+sv6zH3EDt2F5fnITV/HnzugGPHE13wunCqLw1zq27BNavW4PoV18HBiSUZIqncRKoOJ6h54xUJAv6eOpKsvec21O3YJsnq8YQweFK9dEGZHJ8nian/8IjYOR1cX663SnRoP8gUKcGwBkkJ6y/rseonOHHzt9biQu+A3B8Pnv3zeUbhScrGUOZ8lF9xM2686x+wcv3duPTKS4ERIsjtQ0FpIdmQbWMy93VPbZ10VJLRS5shPHzkD+TVkjRqYIlpbNKz+0RKSQwkRXSXe5HQ2NIqH0lLs+Pu+zfQFbL2pDZ33PsdvHO0x3DKMxgsOVbPEBSSnnM0bDf22nCxYwHHCjJF0XG8QewMk2Bmhk+1Saq6GE1vWKxakzPssVEfhrBrT0D9Owfgdrux+d+30RB8WK7xpHrTUBbKM/2KGxF4oj3N6oZiz0bu7DxRQe7paCbI/R1HNqj+nYM4eSrgs7hcLrq2X+6Fg2lSArDiyCf/S8aVDJtMVGmT6lMo0u2z4LIrl2jinxD1BLl0HKkgl9HZ1SWqzsR0dXXLNb4XSnUY5iWFRU7mb2343v0baZ8iPTuLetiTUSZLK6LFyFA/Csrmo/gSh0je3rf2yShnFv46ElpbO2AhQpKSkvDczkBAG04lTZOiuuH0QdZ79kl4ipKCsJrr/xYDw2OjUrPg5RjHm86ipIyCQmlUdCoUGFXInwqMwUj0G13F7xcZIQpJCQrvmRAykstWLEdDf8qYJVzRYmDUg3nz5tERlxXdBDk7maqxtdCAoPpTPBzvq2eCiSQaJcOtiTNNChsyCe9FZxlO5JRdDmWkVzufGlLI6PYMsl8SPcGqyqkSwn/Zppw63YD6dw+KWoazJwzTpDBk2GPxpvjmjnvvwuHT50X0Y4HUZBsufD5IR2qjolo1EASfosBGVXvp5dfpjEYdMuKTpSWiIkUtlEYI6oFjR48iPz02hDCGhgaRV1hCR1Q+9Wo0hjY4GVZSXET+pA///TwZWV5nS9f0+CoUopMUXYWSLPhk3xFcUpyO3mFejDN1sMR1nOtD0VwmRlEXF5tEsHQVF+ejubkFF07zclSyiRFk9KIiheFXIRohXH0dSEqhQDBGsAa55tFAImpx0HxwFBXixV2v0XFkqsOImhS/CpEl/+1TdbCM9MAaFHxNBT6vB23HqWd52ZZJiLrJjIMPuZWlZFOALXpcRvWdTHUY0UvKmFEoCUWZLowqalw0FTCx7MRJ1SbxPI0QPONQWVaMXbu16J1ch5rlSyZVHUbUpDBk7QhFxSyqu7c/D/fA2SlLy7DTjVk5meoJNcxMMMgIGFmgrNSBrT/5T01K3BRlh17rEowpkcKsr71njQzNJOuYm5eAZuOMQcQYdPlQkEOhgwYzcz+sOupUh9oxnB7leqlSsjRigqdECoNtS24lVZyGu/958lnMn8maG720WGzJGO47z0e0hc6jGkFVHS1lQcTUPcGJba6LM2IpYUyZFJaWr19TJZadg8M/7HkNzuGBqNUo2+Ylw/2sJvKeiKY6dASrjoAJISmu3bLBlBpOmRRG7cb7kFPBH7Wg/WQHHJlOtPVx+G8O7OtUFM2gI3IG2cguqIi4MeNVJ4ARU8QyYkIKV/y+v7+NpGVYenj39uewZG4Wjp0dm0mfDOzrsM8jvR2hT6Fj3XrO/o3zrAeGUbfjCVNSwogJKQyOOllM1bmXNDy79WHc/NVCdIsRnhysbuzrsM+jqs7k7rgOdtb2vjUuo0b14EHArJQwYv4jKJnk4ukKilvyinKxePntONUxgBn6DwxCoMdtx5yUTpKyl+VdXlLOWftI4P/hlb78nDqiZnkV9rz5W/XcJGImKTq4IvIjAvIxuk534uDbL8CRY0PbYGju+YcJpeT8sdpJbztdYdfPBsP/w6sgQvj70RLCiDkpDKmQI0+OO1u78fqvf46/qbChecQ4mm5w2lA8g3ModN+E58lqwysakKGVK8a5NGIJC4WYq48OHg14JRNaulQbQUZvxZ2r0YpyWEd7JIPPaB+x4aszB/Hir3kY5snyQTQ2H5nUODIh6hIMbcUBhxvOfuzZ/0ZEhIbDtEgKgxslvw9mVWJjSw3e/ZudyB74lDzWVDT3uuTnuJfneoiQZzRCRiPyKSYQwipDNigWhAhYUqYb6hJTfQFeqZJbsUjZ+EidcuNdj9K5tlobZfLcZDBa4R3Je2bwhZDCUJdyFqorJ2WtLS8t1VZC0rXJFhzz2tsx63dlBWZh1Ottw+ELI4XhX2CsrbwO9HaZUrv1ccMlnCwZfjKCVk5zOeEWKU8F02Zow4GXZb39QT26T7apeVOZKmEnz+N37dlQT/x/DniEcolTxpPt04UvhRSGDKePPI7jZ1rQxb9K1cmRUYQ2cuAC5xxHuYUMdv1jYkzD4EsjRQeTw3PGgf8BQ59lpGrxyoCSQiGC3XWzMUy0+NJJGQ8micFkfFEkjMefHSl/DiCljWM84qQYIE6KAeKkGCBOigHipBggTsoEAP8PSSo+0h6fxasAAAAASUVORK5CYII=;clipPath=inset(15.56% 9.42% 4.44% 15.22%);" parent="1" vertex="1">
          <mxGeometry x="-398.1" y="-514.95" width="25.21" height="34.91" as="geometry" />
        </mxCell>
        <mxCell id="jJeJy1seHARlF9KhycA6-23" value="" style="edgeStyle=orthogonalEdgeStyle;rounded=0;orthogonalLoop=1;jettySize=auto;html=1;strokeColor=#009900;" parent="1" source="jJeJy1seHARlF9KhycA6-9" target="k0CTzh7-vUOgCoUulJSG-6" edge="1">
          <mxGeometry relative="1" as="geometry">
            <mxPoint x="-369" y="-807" as="targetPoint" />
            <Array as="points">
              <mxPoint x="536" y="-435" />
              <mxPoint x="33" y="-435" />
              <mxPoint x="33" y="-649" />
              <mxPoint x="-367" y="-649" />
            </Array>
          </mxGeometry>
        </mxCell>
        <mxCell id="jJeJy1seHARlF9KhycA6-9" value="" style="rounded=0;whiteSpace=wrap;html=1;fillColor=#FFFFFF;" parent="1" vertex="1">
          <mxGeometry x="445" y="-279" width="172" height="185" as="geometry" />
        </mxCell>
        <mxCell id="jJeJy1seHARlF9KhycA6-10" value="" style="shape=image;verticalLabelPosition=bottom;labelBackgroundColor=default;verticalAlign=top;aspect=fixed;imageAspect=0;image=https://i.pinimg.com/736x/d5/64/32/d564328a375317ef161e79aa5292648c.jpg;fontStyle=1" parent="1" vertex="1">
          <mxGeometry x="525" y="-78.81" width="10.78" height="21.81" as="geometry" />
        </mxCell>
        <mxCell id="jJeJy1seHARlF9KhycA6-12" value="" style="shape=image;verticalLabelPosition=bottom;labelBackgroundColor=default;verticalAlign=top;aspect=fixed;imageAspect=0;image=https://seeklogo.com/images/E/elastic-logstash-logo-EC5646BB13-seeklogo.com.png;fontStyle=1" parent="1" vertex="1">
          <mxGeometry x="471.64" y="-12" width="21.36" height="24" as="geometry" />
        </mxCell>
        <mxCell id="jJeJy1seHARlF9KhycA6-13" value="" style="shape=image;verticalLabelPosition=bottom;labelBackgroundColor=default;verticalAlign=top;aspect=fixed;imageAspect=0;image=https://static-00.iconduck.com/assets.00/elasticsearch-icon-1839x2048-s0i8mk51.png;clipPath=inset(0% 0.19% 0.33% 0%);" parent="1" vertex="1">
          <mxGeometry x="518.39" y="-16" width="25.85" height="28.8" as="geometry" />
        </mxCell>
        <mxCell id="jJeJy1seHARlF9KhycA6-14" value="" style="shape=image;verticalLabelPosition=bottom;labelBackgroundColor=default;verticalAlign=top;aspect=fixed;imageAspect=0;image=https://logodix.com/logo/1938616.png;clipPath=inset(13.14% 34.33% 42.34% 35.33%);" parent="1" vertex="1">
          <mxGeometry x="571.91" y="-15.300000000000011" width="20.37" height="27.3" as="geometry" />
        </mxCell>
        <mxCell id="jJeJy1seHARlF9KhycA6-15" value="" style="edgeStyle=orthogonalEdgeStyle;rounded=0;orthogonalLoop=1;jettySize=auto;html=1;strokeColor=#FF0000;" parent="1" source="A0nYaDOjtjgqWgvlFO7J-79" target="jJeJy1seHARlF9KhycA6-10" edge="1">
          <mxGeometry relative="1" as="geometry">
            <mxPoint x="530" y="-53" as="targetPoint" />
            <Array as="points">
              <mxPoint x="530" y="-38" />
              <mxPoint x="530" y="-38" />
            </Array>
            <mxPoint x="531" y="-27" as="sourcePoint" />
          </mxGeometry>
        </mxCell>
        <mxCell id="jJeJy1seHARlF9KhycA6-17" value="" style="shape=image;verticalLabelPosition=bottom;labelBackgroundColor=default;verticalAlign=top;aspect=fixed;imageAspect=0;image=data:image/png,iVBORw0KGgoAAAANSUhEUgAAACIAAAAqCAYAAADWFImvAAAAAXNSR0IArs4c6QAAAARnQU1BAACxjwv8YQUAAAAJcEhZcwAADsMAAA7DAcdvqGQAAAEVSURBVFhH7ZgBCoMwDEXbnURvoicRT6I30ZuoJ9GbuH7JGA3RdRqYjDwIZlrso2mKzK8BdwMedP05JsIxEY6JcP5bZFkW17atK8vS5Xm+BX4fgpNVk2EYcFKLkWXZOs8zjYxRF8FkksQriqKgkTGqIl3XiZPzwKpxVPfINE2UHTOOI2VvVEX6vqfsmFA+yt6oiaRK7EIlugQ6Aa9KCWxmicsikEAnSJNKIW1UkCSCbuAvgEDTNOJkUmAl9iRA0qei9367YpMhcHIiJPC8qioXVonuuCjfZdP5AIalxF79U1Bt31Aqyr5HVQRlOYuqyBVMhGMinNuIJJ2sdV1TdgzOkbMtbP8GcEyEYyIcE+GYCMdEYpx7AgHtDoCGSEdaAAAAAElFTkSuQmCC;" parent="1" vertex="1">
          <mxGeometry x="466.39333333333343" y="-265.0033333333331" width="34" height="42" as="geometry" />
        </mxCell>
        <mxCell id="VHQm3ld0HByzxrR_ddXe-1" value="" style="rounded=1;arcSize=10;dashed=0;fillColor=#E6E6E6;gradientColor=none;strokeWidth=2;" parent="1" vertex="1">
          <mxGeometry x="103.77" y="212" width="1038.23" height="1277" as="geometry" />
        </mxCell>
        <mxCell id="VHQm3ld0HByzxrR_ddXe-2" value="" style="dashed=0;html=1;shape=mxgraph.aws3.cloud;fillColor=#F58536;gradientColor=none;dashed=0;" parent="1" vertex="1">
          <mxGeometry x="131" y="208" width="52" height="36" as="geometry" />
        </mxCell>
        <mxCell id="VHQm3ld0HByzxrR_ddXe-3" value="Region" style="sketch=0;outlineConnect=0;gradientColor=none;html=1;whiteSpace=wrap;fontSize=12;fontStyle=0;shape=mxgraph.aws4.group;grIcon=mxgraph.aws4.group_region;strokeColor=#879196;fillColor=none;verticalAlign=top;align=left;spacingLeft=30;fontColor=#879196;dashed=1;" parent="1" vertex="1">
          <mxGeometry x="136" y="246" width="955" height="1182" as="geometry" />
        </mxCell>
        <mxCell id="VHQm3ld0HByzxrR_ddXe-4" value="" style="rounded=1;arcSize=10;dashed=1;strokeColor=#F59D56;fillColor=none;gradientColor=none;dashPattern=8 4;strokeWidth=2;" parent="1" vertex="1">
          <mxGeometry x="213" y="270" width="827" height="1126" as="geometry" />
        </mxCell>
        <mxCell id="VHQm3ld0HByzxrR_ddXe-31" value="" style="shape=image;verticalLabelPosition=bottom;labelBackgroundColor=default;verticalAlign=top;aspect=fixed;imageAspect=0;image=data:image/png,iVBORw0KGgoAAAANSUhEUgAAADgAAAA3CAYAAABZ0InLAAAAAXNSR0IArs4c6QAAAARnQU1BAACxjwv8YQUAAAAJcEhZcwAADsMAAA7DAcdvqGQAABFYSURBVGhD7ZppcJVlssc7Z8tCEkIghAQCIQs7hE2CIm6X0VIRURi9wlVmHBWX8pM1VbeuVdZYZY1+4HrHba46paUM6LAjoLJdQUEJBMIWwr6TACELIZzs5Ez/+uQNJzGEgOjUnZqueuqc857nPG//n+7+d/fznrDI6LhAVWW5/LOKq+n1n1b+BfD/u/wL4I2UQCDQPH4p+dlY1O/3yzfffCOZmZly8uRJCQ8P1xEtGRlpEhcXKy5XWNNMVSLs8vsbLT8LwEuXLsm6devkzTfflF69esmJEyckIiJCYmLiZPqM30h29k3SST+DEXAO2J8D6A0B2NjYKBcvXjRgSHFxsbzzzjsyf/58aWhokJqaGgXhMpDTHn9GHv+PadIzOVE8bpd4vV6JiorUV3czwBsJ9IYA3Lt3r3z//fcGEjl16pR8/fXXcujQIamrq7NrCIr37z9S7r33HunZM0ljUdRd42TUmFGSkZ4qURHhOucywBsB9CcDrK6uNldcuHChVFZW2rWqqiopKyszcK0JxeuNku7dEyQyMkItHpDOnTurVR+XKQ9NluSkRLM0LssA4E8GCcDrEXVLG2vXrg2MHTs24PP5QHLNw+PxBG677VeBJV+sDJwtLgtUVlYFqmrqAnX1DQF1+eb7XK9ckwV1vnz33Xdy+vRpizdi78svv5RVq1ZJRUXFddN/dHScPPjQVMm+6SYJj+kkXrdXMtN6y6CB/SU2trNa8/rd9poAQvcvvPCCnDt3TnTnLeZgyPPnz9vnmJgYI41Qqa2tNZJRC1uqwAURNgMCunDhgtTX10tCQqIkJ/eUyNhYaahrkBHDsmTGjCckK2uo/tZ73W7bYYDE2vvvvy+vv/663HnnnRIfHy/ffvutEQkKDho0SO6++24jjVApLCqSXTt3Krn0l969e9tGIAAsLy+XDRs2GEmxCcwZP368bliFHDt2Rh5+eIr8+teTJTExQTfOI263uwXQjkjwblcRlNm+fbssWLBA0tLS5HdPPSVFhYWyadMm+y46OloeeeQRue+++8y6kAzStWtXiYyKst9mZmSYUlgM98aabBIbggccP35crzfKqFGjlIQS5dNP50hOzibpP6CfZEeNlpjoKAWpCntIJ7Z8h0C6vb6IP7z8X//Z9LFtKS0tlY8++kh++OEHefbZZ+WWm2+WRYsWWWoAzF133dXsuouWLrXrOxQUsXqzzh06bJhZefXqNbJ27f/Jtm3bZP/+/VYEpKdnSFFRoaWW8+fL1VUT5NZbx6mVRPLycnUD3dIrpY/myk5qwcvW66gVO1SLcvO8vDyLL9wQ+sd6WAMLAjAlJcXcL1rj8NixY+a+S5YssffxXbqoglHSpUu8nCs5Jxt1A1avXm1rJCR0k4EDB0qnTp3MTbds2WKxPWDAAI09jxTsKdA4LxR/dY1U19RLfQPkFrDBva8mPwKItQ4fPiwHDx60ceDAATl7ttQIAWudPn3GgCQnJzfH0yGdj3KaLuSFmTNl0gMPSN++fSUpKVl32mXfde/eXd14qkybNl3ZcZD9npisra3Te5aZhRHmUfGwedSzdXrfM8WlGuvHVJ+j+npUDh49JiVl5arTJQPZHtAWLgrtf/XVVzJnzhxzR3YzJydHCgr2q0vtVRY9YTe97bbx6i4e2bFjhyX3k2rh4VnDDRRx161bN61UelqsOZXM1q1b7f3AAQM1jvvKaE0Jt9xyi+zZky9Lly4xhiYlzNBaNTW1j+mxefNmCXO5NQWVy76CfNm5I0/X2SKbczdbDKf06i1ujclQae22PwI4d+5cmT17trkjCuEufn+lVR5YNz8/X1L69NEb+OSgWpe4u6A5sKam2siGOQDro3POnDljvwcsMQcTx8bGGLF01nFKQX3xxRcWk3hHRkamjBkzRo4cOSrLl68wfahZNUuohav0Hn45evSQbMvdpmumyNCsLPF6fFoxqAUVV1vk0yJNoNjLL7+sDPapzJo1yxQjgeNmAH7vvT/LmjWrJVWZtLuSwQllvkJlU9yXGBo+fLiBxPUeUDfFmjBlUlJSM7vi8itXrrT0wcYQBmwKYNgUYrm8/LzOL5YJEybIxIkTLX5xQ+6BJyxevEzuvnei/PY3M6RLXGdLIR4dXo9L3Kor+ByQbZIMX44YMVJGjhxpANl5lL/nnnssPvZr3tqgFQ3UDjgE14U9qWogJOKT35DbqDczNE0MGTLErpM21q5ZY2EAcMAhrLdx40ZzWzZq3LhxpgMxXKYxl5qaauvFxkbJJY3Zi5XVctFfLdUax+hBbds6HlvkwdYBC7Dly5drhRKrFUWW5UAUhMq50dmzZ40lHYJwpEitQ/xQvbD7jqAE1x2LIayH1fAW5jMHoI710YHOpESJqK/GblCUuGobNP6rxaexiEF82noFtBDQ6lO/v+yi7SZ6Ei/KcFNGMMmGGa2/9NJL6q5rLF4Rvnc2h/w3b948SwOQgSNsxJEjRyw2HYCJiYkydepUueOOO8zSkBYkxxqEBmGDlc+VlEltTZCwAgGX8kOj+PVzdG29RGiQXopotDXJm6HSoTzYWrpoXqPiINZwJSoYSjUsgKA0FsalSObOgGWZB8nYrut81mEuZESKwCWpST2eljWt9R7NonWsgiFN1OsG8J682JZcF8BQAeDTTz8tzz33nCqYpIq7zBLUq08++aRVPs545plnrLKJ1YIagJAP86hJ3333XUtLrd39SgJzaiNlwIKhhWWbvgyRDgFkAczvuFVrwRKTJk1Si6ZaQUxczp8/Xz788EP54IMPmgfFOq5LzmMtPGDEiBGagqIMJJ1HW8JmAKmxMdiiOUCCLw5vtIFOpUMAS0pKLOGT2J3E3VqwWmxspAIkPuqMIYmljz/+uHmQflgDVkSgfVosNqU9AUBlZYXs3LlDdu/ebe+DoC6TyZWkQwBJ0m+//bZ88sknzZ1CewKxABgAkZGRLQbu2bpnbE8gGn5DGqIoWLZsmRSeLRK1ZdOM1tLSkj9KE20J7QxW7IiQJ3E7ciCAgu51WWBFTgWwZEcEQoLE0tPT7bcUBuerahRecF1HZXdRsXi04nL59Lo6RKDpvgYQit+3b59ROIOFQoV8BAvieljTkbYchGrEIRNcEdJwNs6rsQrDDtP26bXXXjPrXEko/TgtIE7JwRTy5F8Ok0vefk9KCk/JjrytkpGepp1HhvQo2CcR2/MUnFpWyceU09saQPLSG2+8YRUIlQvBHmpNqB2lyUevvPJK01WNIWVQCutgegjCJTWQJ48fPyHr16+z0zVnLdILZJStyqao4u0BLCkpNTBsKGHRq1eKPProI/ZdQ0OtFOzOlWOH90u/AUPl0X9/VJIS4iQya4C4lcXDGoPrcl97t2LFClusX79+pqDTBpmoqVGMXadHc+IH5YYOHWpJmrwFuTjXIQ3ck9+FDtyNzfBoJ6Ltqs1H8CZ+F+rOFBXEMNfZeNyaDUaYl5mZJpn9+sjJ4wdka+4WKeyaIBX33if+SROl+uGJUjOF8UDQgtA3pdLzzz9vpRmlEkIRm6mgY9VSKBwq3AT3YTPi47u0sAY7l5TUQ7Kzs1t4A+TDcURormMdvIA6lVcHZEJCd7n//vttUyn3qHAcsuGehMBILRLmKlMfOLBXC/9T2gB0U+8MaNEdPLtBDCAt0GOPPSajR4+28ssRkvhTmqyxGlUG8ekIcZqbm2udARvDQ5ZQYU06+lByIpafeOIJrT17N10JAqRFIukTv46H4AUAo/qZMWOGxT/eRQmHsFlZ6lVbtQralLtLys7TFGgeVVwB8YmvCaQBRFncAQbkhnzmwIejCjafTS0uLlHmy7Mb4Sq4zPr1621DcG0IATB06qxBwc0ckrpjQbyEIw/mINS5OTlbDARz8vMLrPc8evSofUfOCw+PML1YorR0u+bCXdbtI4BEb2+YR+q1+K7W2tStLZOFmNetr/reZqo4SrBrWI7j+DD9oW1Jk1RVBY8RCgoK5NVXXzWwuCAHUk4FA0uyltfr07iLN2Vg6aqqatu40GqI48JZs/7blGdd7h0Z6dO6tNLW4BRvwYLF+tlvv+vUKVrvR+MbzMVsJCOgOnJWU1tXL74Gr4Qri3IdnZoBIsQROYzFmICgnDOZneU0rUePHhYfxCVz+Q7lUYj3SLrS90MPTbbYwXU4amidS9mM22+/3dyOzmPIkJFGXM690ae8vMwOqPy6QdnZo2xTqWhCJeDS4ltBAdLOaSi8dQ3WaQbIBxbkBtx48ODBZmo6cF4hFJSgN8MlaZcgC3pC+kTcCLZzyIZ4woW6diWNeK0WRdFQIW5nzpxpRTab9+CDD8qUKVPMPUkNEBKdPUcYxedKZdr06VJd5ddwOdu0QlCwNsM5bWvEJRgql6lPBSuQLni2R/7iJp999pksXrzYPjvCZrBgriqG4rAunx3he+KHYnvjxg3WtLYnjj78Dpdft269/O1v8zQH7jMPQkgrLnKczmG0Fu7urGOA7UorgHyBxTjTxO+5GUyJZejXQoW57DpH76EduiOFhUGS4WifdVqLc3CLy/n9FxVIMHXU1zeYDpy9UICw6a3lSiDbkmaAoRboqFz7L4KCy+OeuDabAyBnA6+mN0U8vyWMnHhvT1pY8JcSzj+dBhiah3ywZHsSsOb2khUEL774oqWb1sVHW/IPAYiyxDfFOIRFgUEZFypYMtQNL6iF8/fssdgmD19tQxz5hwCsqLgg//OnP8lbb71lRTUVjnOeA6jYzrFWtoW2W0WnirQs+8y6kD/+8XWL76uRF9IMEHqF9tsK6hstuFrJuRJj5iC5XCYN0s2t48ZZyqDC4Tr8EB/fWcaNGyuTJ0+2Q+XMzH72nenbDn80A8TsHKGTdH8JkFcSiIPek7KOcxr6VBpuqqv09EztDYdbriZ97Nq1W05oKVjXzkGVJXoS8pYtm+X3vw8+p6MUgtXoJgDLYqQNyqnrYdtrEdyOgoARfMJUranmoHnXX/7ykQKNaZqpnqA8XlZaIkm90ixHOhJKxHZ1woRf2RFDly7J6vfd9IpbVq1aaecf57SCKCw8bRXMOvV7J6cBlKqF4bjXTxVnTaogWi0eZ48Zc5PGY1e1rDYDqlun6O4Ksru9xsQk6tzBatnB1kq5Nbdam6T6oBPDLLhw4SJlpXp1hYvy3p8/lYULPpfZcz433+aMKaDXZ//1c6lo1KJZmQ+LogzH6zxzoEi+ESAJE0KENRkIBXx+/m6JS/BqRz9DMtPTbRP4H1gYgNRePHDxaPdAH8i/pwyoAWxyUfze42kUT7hXxo4fq4rHS1V9nbkFBQq1HQVsVbVf5v/1f6VUyYHcxTM+jhKIFyj/WmOX+aQLvIL3y5atkLztO1s88/NX+rUUPCW9UgcaCHfTnxG8ANF5gOE0gWvhWvNyjO9ze5pctsmC7D6TIpWqs0cMloH901XhWr2xxp+CbGgIHvoCuOjYccnZtk7mao3aTysKqpITJ4JPmfiPGk1pR4VSbO3atc39X1hYrHijlTDcwfoTE7i0/embNlIyMjMklr+pKCiA+NQYcIQP0ArGpfp7fB6J0Ou+CDaB0GmyIBZvbHQp2TjdtEuq9X1NrYKra5CGS406gs/GH3t8upZWe2TpkuXqmsE8ZaWtcs9hrTs5+YL+6ekADTE5hTufL2j7xCPrurpaBXZci/l5TS7vktvvvEuyRmabmzXquuaCvAbCJEqJkL9hRkb4JFxHZGS4phTt/XSDPWo9m6vgfdrk+hQ4ZzrGDzwA9V8oM1fETbAUPVWtWutSPY+gebihQ0EqPvs+Z2OOnD5zVq1cL3X6HQ9A6nXe4gVzVZmLkjVsiBSrRfJ37ZI0zWWpOnhYSmuV2b+//Slhc06OkkWy3Dr+35REEggpGTB4oCQm97BDKY8qF3S9oCUgD5dLAaiVABdlIH3i1c/MDRKeTbT3HpsfJn8HMR8QG2TNrAUAAAAASUVORK5CYII=;clipPath=inset(0% 0% 0% 0%);" parent="1" vertex="1">
          <mxGeometry x="-166.35000000000002" y="-1123" width="47.86" height="47.00535714285715" as="geometry" />
        </mxCell>
        <mxCell id="VHQm3ld0HByzxrR_ddXe-35" value="" style="rounded=0;whiteSpace=wrap;html=1;" parent="1" vertex="1">
          <mxGeometry x="232.59000000000003" y="303" width="170" height="303" as="geometry" />
        </mxCell>
        <mxCell id="VHQm3ld0HByzxrR_ddXe-45" value="" style="rounded=0;whiteSpace=wrap;html=1;" parent="1" vertex="1">
          <mxGeometry x="461.77" y="298" width="533.23" height="1044" as="geometry" />
        </mxCell>
        <mxCell id="VHQm3ld0HByzxrR_ddXe-46" value="" style="rounded=1;arcSize=10;dashed=0;fillColor=none;gradientColor=none;strokeWidth=2;" parent="1" vertex="1">
          <mxGeometry x="512.77" y="327" width="389.23" height="590" as="geometry" />
        </mxCell>
        <mxCell id="VHQm3ld0HByzxrR_ddXe-47" value="" style="dashed=0;html=1;shape=mxgraph.aws3.virtual_private_cloud;fillColor=#F58536;gradientColor=none;dashed=0;" parent="1" vertex="1">
          <mxGeometry x="532.77" y="307" width="52" height="36" as="geometry" />
        </mxCell>
        <mxCell id="VHQm3ld0HByzxrR_ddXe-48" value="" style="rounded=1;arcSize=10;dashed=0;fillColor=none;gradientColor=none;strokeWidth=2;" parent="1" vertex="1">
          <mxGeometry x="625.77" y="369" width="250" height="387" as="geometry" />
        </mxCell>
        <mxCell id="VHQm3ld0HByzxrR_ddXe-49" value="" style="dashed=0;html=1;shape=mxgraph.aws3.permissions;fillColor=#D9A741;gradientColor=none;dashed=0;" parent="1" vertex="1">
          <mxGeometry x="635.77" y="350" width="30" height="35" as="geometry" />
        </mxCell>
        <mxCell id="VHQm3ld0HByzxrR_ddXe-50" value="" style="rounded=1;arcSize=10;dashed=1;strokeColor=#ff0000;fillColor=none;gradientColor=none;dashPattern=8 4;strokeWidth=2;" parent="1" vertex="1">
          <mxGeometry x="652.77" y="402" width="199.5" height="199.5" as="geometry" />
        </mxCell>
        <mxCell id="VHQm3ld0HByzxrR_ddXe-51" value="EC2 instance contents" style="points=[[0,0],[0.25,0],[0.5,0],[0.75,0],[1,0],[1,0.25],[1,0.5],[1,0.75],[1,1],[0.75,1],[0.5,1],[0.25,1],[0,1],[0,0.75],[0,0.5],[0,0.25]];outlineConnect=0;gradientColor=none;html=1;whiteSpace=wrap;fontSize=12;fontStyle=0;container=1;pointerEvents=0;collapsible=0;recursiveResize=0;shape=mxgraph.aws4.group;grIcon=mxgraph.aws4.group_ec2_instance_contents;strokeColor=#D86613;fillColor=none;verticalAlign=top;align=left;spacingLeft=30;fontColor=#D86613;dashed=0;" parent="1" vertex="1">
          <mxGeometry x="680.77" y="421" width="152" height="164" as="geometry" />
        </mxCell>
        <mxCell id="VHQm3ld0HByzxrR_ddXe-52" value="" style="rounded=1;arcSize=10;dashed=1;strokeColor=#ff0000;fillColor=none;gradientColor=none;dashPattern=8 4;strokeWidth=2;" parent="1" vertex="1">
          <mxGeometry x="655.77" y="622" width="199.5" height="102" as="geometry" />
        </mxCell>
        <mxCell id="VHQm3ld0HByzxrR_ddXe-53" value="" style="outlineConnect=0;dashed=0;verticalLabelPosition=bottom;verticalAlign=top;align=center;html=1;shape=mxgraph.aws3.rds;fillColor=#2E73B8;gradientColor=none;" parent="1" vertex="1">
          <mxGeometry x="678.77" y="642" width="60" height="58" as="geometry" />
        </mxCell>
        <mxCell id="VHQm3ld0HByzxrR_ddXe-55" value="Balancer" style="sketch=0;outlineConnect=0;fontColor=#232F3E;gradientColor=none;strokeColor=#ffffff;fillColor=#232F3E;dashed=0;verticalLabelPosition=middle;verticalAlign=bottom;align=center;html=1;whiteSpace=wrap;fontSize=10;fontStyle=1;spacing=3;shape=mxgraph.aws4.productIcon;prIcon=mxgraph.aws4.elastic_load_balancing;" parent="1" vertex="1">
          <mxGeometry x="535.77" y="371" width="58" height="75" as="geometry" />
        </mxCell>
        <mxCell id="VHQm3ld0HByzxrR_ddXe-56" value="" style="outlineConnect=0;dashed=0;verticalLabelPosition=bottom;verticalAlign=top;align=center;html=1;shape=mxgraph.aws3.codepipeline;fillColor=#759C3E;gradientColor=none;" parent="1" vertex="1">
          <mxGeometry x="252.99" y="323" width="38.23" height="37" as="geometry" />
        </mxCell>
        <mxCell id="VHQm3ld0HByzxrR_ddXe-57" value="" style="rounded=0;whiteSpace=wrap;html=1;" parent="1" vertex="1">
          <mxGeometry x="264.09000000000003" y="382" width="109" height="192" as="geometry" />
        </mxCell>
        <mxCell id="VHQm3ld0HByzxrR_ddXe-58" value="" style="outlineConnect=0;dashed=0;verticalLabelPosition=bottom;verticalAlign=top;align=center;html=1;shape=mxgraph.aws3.codedeploy;fillColor=#759C3E;gradientColor=none;" parent="1" vertex="1">
          <mxGeometry x="292.36" y="492" width="49" height="43" as="geometry" />
        </mxCell>
        <mxCell id="VHQm3ld0HByzxrR_ddXe-76" value="" style="edgeStyle=orthogonalEdgeStyle;rounded=0;orthogonalLoop=1;jettySize=auto;html=1;strokeColor=#FF0000;" parent="1" source="VHQm3ld0HByzxrR_ddXe-59" edge="1" target="VHQm3ld0HByzxrR_ddXe-79">
          <mxGeometry relative="1" as="geometry">
            <mxPoint x="49.61000000000013" y="435.0666666666666" as="targetPoint" />
            <Array as="points">
              <mxPoint x="67" y="435" />
              <mxPoint x="67" y="435" />
            </Array>
          </mxGeometry>
        </mxCell>
        <mxCell id="VHQm3ld0HByzxrR_ddXe-59" value="" style="outlineConnect=0;dashed=0;verticalLabelPosition=bottom;verticalAlign=top;align=center;html=1;shape=mxgraph.aws3.codebuild;fillColor=#759C3E;gradientColor=none;" parent="1" vertex="1">
          <mxGeometry x="294.36" y="412" width="47" height="45" as="geometry" />
        </mxCell>
        <mxCell id="VHQm3ld0HByzxrR_ddXe-61" value="" style="edgeStyle=orthogonalEdgeStyle;rounded=0;orthogonalLoop=1;jettySize=auto;html=1;strokeColor=#6600CC;" parent="1" source="VHQm3ld0HByzxrR_ddXe-51" target="A0nYaDOjtjgqWgvlFO7J-74" edge="1">
          <mxGeometry relative="1" as="geometry">
            <mxPoint x="732.7692307692305" y="558" as="sourcePoint" />
            <mxPoint x="738.3899999999999" y="169" as="targetPoint" />
            <Array as="points">
              <mxPoint x="741" y="112" />
            </Array>
          </mxGeometry>
        </mxCell>
        <mxCell id="VHQm3ld0HByzxrR_ddXe-69" value="" style="shape=image;verticalLabelPosition=bottom;labelBackgroundColor=default;verticalAlign=top;aspect=fixed;imageAspect=0;image=https://www.svgrepo.com/download/353929/jenkins.svg;clipPath=inset(0% 20% 16% 19.33%);" parent="1" vertex="1">
          <mxGeometry x="627.32" y="-412" width="39" height="54" as="geometry" />
        </mxCell>
        <mxCell id="VHQm3ld0HByzxrR_ddXe-73" value="" style="edgeStyle=orthogonalEdgeStyle;rounded=0;orthogonalLoop=1;jettySize=auto;html=1;strokeColor=#FF0000;exitX=1;exitY=0.5;exitDx=0;exitDy=0;" parent="1" target="VHQm3ld0HByzxrR_ddXe-51" edge="1" source="VHQm3ld0HByzxrR_ddXe-31">
          <mxGeometry relative="1" as="geometry">
            <mxPoint x="-223" y="-1165" as="sourcePoint" />
            <mxPoint x="947" y="458" as="targetPoint" />
            <Array as="points">
              <mxPoint x="-11" y="-1099" />
              <mxPoint x="1574" y="-1100" />
              <mxPoint x="1574" y="503" />
            </Array>
          </mxGeometry>
        </mxCell>
        <mxCell id="VHQm3ld0HByzxrR_ddXe-77" value="" style="edgeStyle=orthogonalEdgeStyle;rounded=0;orthogonalLoop=1;jettySize=auto;html=1;strokeColor=#009900;" parent="1" edge="1">
          <mxGeometry relative="1" as="geometry">
            <mxPoint x="341" y="513" as="sourcePoint" />
            <mxPoint x="462" y="513" as="targetPoint" />
            <Array as="points">
              <mxPoint x="429" y="513" />
              <mxPoint x="429" y="513" />
            </Array>
          </mxGeometry>
        </mxCell>
        <mxCell id="VHQm3ld0HByzxrR_ddXe-79" value="" style="rounded=0;whiteSpace=wrap;html=1;" parent="1" vertex="1">
          <mxGeometry x="-290" y="375" width="240.61" height="303" as="geometry" />
        </mxCell>
        <mxCell id="VHQm3ld0HByzxrR_ddXe-80" value="" style="shape=image;verticalLabelPosition=bottom;labelBackgroundColor=default;verticalAlign=top;aspect=fixed;imageAspect=0;image=https://www.svgrepo.com/download/354365/sonarqube.svg;clipPath=inset(37.33% 0% 38% 0%);" parent="1" vertex="1">
          <mxGeometry x="-244.8" y="412" width="152.04" height="37.5" as="geometry" />
        </mxCell>
        <mxCell id="VHQm3ld0HByzxrR_ddXe-81" value="" style="shape=image;verticalLabelPosition=bottom;labelBackgroundColor=default;verticalAlign=top;aspect=fixed;imageAspect=0;image=https://static-00.iconduck.com/assets.00/trivy-icon-624x1024-xmts1w4z.png;clipPath=inset(0.67% 1.37% 30% 1.37%);" parent="1" vertex="1">
          <mxGeometry x="-193.63" y="494" width="49.69" height="58.07" as="geometry" />
        </mxCell>
        <mxCell id="VHQm3ld0HByzxrR_ddXe-84" value="" style="shape=image;verticalLabelPosition=bottom;labelBackgroundColor=default;verticalAlign=top;aspect=fixed;imageAspect=0;image=https://www.splunk.com/content/dam/splunk2/en_us/images/logos/snyk-logo.png;clipPath=inset(6.92% 42% 36.92% 42%);" parent="1" vertex="1">
          <mxGeometry x="-196" y="582" width="47.34" height="72" as="geometry" />
        </mxCell>
        <mxCell id="VHQm3ld0HByzxrR_ddXe-85" value="" style="edgeStyle=orthogonalEdgeStyle;rounded=0;orthogonalLoop=1;jettySize=auto;html=1;strokeColor=#B266FF;entryX=0;entryY=0.75;entryDx=0;entryDy=0;" parent="1" source="VHQm3ld0HByzxrR_ddXe-79" target="VHQm3ld0HByzxrR_ddXe-57" edge="1">
          <mxGeometry relative="1" as="geometry">
            <mxPoint x="261" y="445" as="sourcePoint" />
            <mxPoint x="59.61000000000013" y="445.0666666666666" as="targetPoint" />
          </mxGeometry>
        </mxCell>
        <mxCell id="VHQm3ld0HByzxrR_ddXe-89" value="" style="shape=image;verticalLabelPosition=bottom;labelBackgroundColor=default;verticalAlign=top;aspect=fixed;imageAspect=0;image=https://cdn3.iconfinder.com/data/icons/design-thinking-96/24/project_management_report_setting_business_and_finance_document_gear_cog-512.png;clipPath=inset(5% 5% 5.33% 4.67%);" parent="1" vertex="1">
          <mxGeometry x="-367.26000000000005" y="-163" width="32.26" height="32" as="geometry" />
        </mxCell>
        <mxCell id="VHQm3ld0HByzxrR_ddXe-92" value="" style="rounded=0;whiteSpace=wrap;html=1;fillColor=#FFFFFF;" parent="1" vertex="1">
          <mxGeometry x="466.39" y="-200" width="133.61" height="85" as="geometry" />
        </mxCell>
        <mxCell id="VHQm3ld0HByzxrR_ddXe-93" value="BD" style="shape=image;verticalLabelPosition=bottom;labelBackgroundColor=default;verticalAlign=top;aspect=fixed;imageAspect=0;image=https://brandlogos.net/wp-content/uploads/2021/11/postgresql-logo.png;clipPath=inset(16.67% 17.33% 18% 20.33%);fontStyle=1" parent="1" vertex="1">
          <mxGeometry x="552.22" y="-181.75" width="30.53" height="32" as="geometry" />
        </mxCell>
        <mxCell id="VHQm3ld0HByzxrR_ddXe-94" value="" style="image;sketch=0;aspect=fixed;html=1;points=[];align=center;fontSize=12;image=img/lib/mscae/Cache_Redis_Product.svg;" parent="1" vertex="1">
          <mxGeometry x="486.21000000000004" y="-181.75" width="27.38" height="23" as="geometry" />
        </mxCell>
        <mxCell id="VHQm3ld0HByzxrR_ddXe-99" value="" style="edgeStyle=orthogonalEdgeStyle;rounded=0;orthogonalLoop=1;jettySize=auto;html=1;strokeColor=#0000FF;" parent="1" source="dZKMA7ej_25IAb3C-dLl-89" target="dZKMA7ej_25IAb3C-dLl-63" edge="1">
          <mxGeometry relative="1" as="geometry">
            <mxPoint x="385" y="24" as="targetPoint" />
            <Array as="points">
              <mxPoint x="-338" y="832" />
              <mxPoint x="-338" y="-28" />
            </Array>
            <mxPoint x="674" y="846" as="sourcePoint" />
          </mxGeometry>
        </mxCell>
        <mxCell id="VHQm3ld0HByzxrR_ddXe-101" value="" style="edgeStyle=orthogonalEdgeStyle;rounded=0;orthogonalLoop=1;jettySize=auto;html=1;strokeColor=#0000FF;" parent="1" source="dZKMA7ej_25IAb3C-dLl-92" target="A0nYaDOjtjgqWgvlFO7J-150" edge="1">
          <mxGeometry relative="1" as="geometry">
            <mxPoint x="932.2799999999997" y="982.625" as="targetPoint" />
            <Array as="points">
              <mxPoint x="1477" y="827" />
              <mxPoint x="1477" y="-226" />
            </Array>
            <mxPoint x="876.2800000000002" y="841" as="sourcePoint" />
          </mxGeometry>
        </mxCell>
        <mxCell id="VHQm3ld0HByzxrR_ddXe-102" value="" style="outlineConnect=0;dashed=0;verticalLabelPosition=bottom;verticalAlign=top;align=center;html=1;shape=mxgraph.aws3.iam;fillColor=#759C3E;gradientColor=none;" parent="1" vertex="1">
          <mxGeometry x="1106" y="272" width="24" height="46" as="geometry" />
        </mxCell>
        <mxCell id="VHQm3ld0HByzxrR_ddXe-107" value="" style="edgeStyle=orthogonalEdgeStyle;rounded=0;orthogonalLoop=1;jettySize=auto;html=1;strokeColor=#FF0000;" parent="1" source="dZKMA7ej_25IAb3C-dLl-97" target="k0CTzh7-vUOgCoUulJSG-6" edge="1">
          <mxGeometry relative="1" as="geometry">
            <mxPoint x="1292" y="838.4999999999995" as="targetPoint" />
            <Array as="points">
              <mxPoint x="1720" y="1039" />
              <mxPoint x="1720" y="-1154" />
              <mxPoint x="-415" y="-1154" />
            </Array>
            <mxPoint x="1219" y="839" as="sourcePoint" />
          </mxGeometry>
        </mxCell>
        <mxCell id="VHQm3ld0HByzxrR_ddXe-109" value="" style="edgeStyle=orthogonalEdgeStyle;rounded=0;orthogonalLoop=1;jettySize=auto;html=1;strokeColor=#B266FF;" parent="1" source="VHQm3ld0HByzxrR_ddXe-35" target="VHQm3ld0HByzxrR_ddXe-111" edge="1">
          <mxGeometry relative="1" as="geometry">
            <mxPoint x="317" y="598" as="sourcePoint" />
            <mxPoint x="317.59000000000015" y="655" as="targetPoint" />
            <Array as="points">
              <mxPoint x="299" y="621" />
              <mxPoint x="299" y="621" />
            </Array>
          </mxGeometry>
        </mxCell>
        <mxCell id="VHQm3ld0HByzxrR_ddXe-115" value="" style="edgeStyle=orthogonalEdgeStyle;rounded=0;orthogonalLoop=1;jettySize=auto;html=1;strokeColor=#FF3333;" parent="1" source="VHQm3ld0HByzxrR_ddXe-111" target="dZKMA7ej_25IAb3C-dLl-23" edge="1">
          <mxGeometry relative="1" as="geometry">
            <mxPoint x="1031" y="974" as="targetPoint" />
            <Array as="points">
              <mxPoint x="314" y="1554" />
              <mxPoint x="1068" y="1554" />
            </Array>
          </mxGeometry>
        </mxCell>
        <mxCell id="VHQm3ld0HByzxrR_ddXe-111" value="" style="rounded=0;whiteSpace=wrap;html=1;" parent="1" vertex="1">
          <mxGeometry x="237" y="642" width="164" height="157" as="geometry" />
        </mxCell>
        <mxCell id="VHQm3ld0HByzxrR_ddXe-112" value="" style="sketch=0;points=[[0,0,0],[0.25,0,0],[0.5,0,0],[0.75,0,0],[1,0,0],[0,1,0],[0.25,1,0],[0.5,1,0],[0.75,1,0],[1,1,0],[0,0.25,0],[0,0.5,0],[0,0.75,0],[1,0.25,0],[1,0.5,0],[1,0.75,0]];outlineConnect=0;fontColor=#232F3E;fillColor=#DD344C;strokeColor=#ffffff;dashed=0;verticalLabelPosition=bottom;verticalAlign=top;align=center;html=1;fontSize=12;fontStyle=0;aspect=fixed;shape=mxgraph.aws4.resourceIcon;resIcon=mxgraph.aws4.guardduty;" parent="1" vertex="1">
          <mxGeometry x="260" y="661" width="45" height="45" as="geometry" />
        </mxCell>
        <mxCell id="VHQm3ld0HByzxrR_ddXe-113" value="" style="sketch=0;points=[[0,0,0],[0.25,0,0],[0.5,0,0],[0.75,0,0],[1,0,0],[0,1,0],[0.25,1,0],[0.5,1,0],[0.75,1,0],[1,1,0],[0,0.25,0],[0,0.5,0],[0,0.75,0],[1,0.25,0],[1,0.5,0],[1,0.75,0]];outlineConnect=0;fontColor=#232F3E;fillColor=#DD344C;strokeColor=#ffffff;dashed=0;verticalLabelPosition=bottom;verticalAlign=top;align=center;html=1;fontSize=12;fontStyle=0;aspect=fixed;shape=mxgraph.aws4.resourceIcon;resIcon=mxgraph.aws4.security_hub;" parent="1" vertex="1">
          <mxGeometry x="295.09" y="724" width="47" height="47" as="geometry" />
        </mxCell>
        <mxCell id="VHQm3ld0HByzxrR_ddXe-116" value="" style="sketch=0;points=[[0,0,0],[0.25,0,0],[0.5,0,0],[0.75,0,0],[1,0,0],[0,1,0],[0.25,1,0],[0.5,1,0],[0.75,1,0],[1,1,0],[0,0.25,0],[0,0.5,0],[0,0.75,0],[1,0.25,0],[1,0.5,0],[1,0.75,0]];outlineConnect=0;fontColor=#232F3E;fillColor=#8C4FFF;strokeColor=#ffffff;dashed=0;verticalLabelPosition=bottom;verticalAlign=top;align=center;html=1;fontSize=12;fontStyle=0;aspect=fixed;shape=mxgraph.aws4.resourceIcon;resIcon=mxgraph.aws4.transit_gateway;" parent="1" vertex="1">
          <mxGeometry x="150" y="979" width="33" height="33" as="geometry" />
        </mxCell>
        <mxCell id="VHQm3ld0HByzxrR_ddXe-117" value="" style="outlineConnect=0;dashed=0;verticalLabelPosition=bottom;verticalAlign=top;align=center;html=1;shape=mxgraph.aws3.waf;fillColor=#759C3E;gradientColor=none;" parent="1" vertex="1">
          <mxGeometry x="1097" y="756" width="37" height="35" as="geometry" />
        </mxCell>
        <mxCell id="VHQm3ld0HByzxrR_ddXe-118" value="" style="outlineConnect=0;dashed=0;verticalLabelPosition=bottom;verticalAlign=top;align=center;html=1;shape=mxgraph.aws3.config;fillColor=#759C3E;gradientColor=none;" parent="1" vertex="1">
          <mxGeometry x="1100" y="672" width="29" height="34" as="geometry" />
        </mxCell>
        <mxCell id="VHQm3ld0HByzxrR_ddXe-119" value="" style="sketch=0;points=[[0,0,0],[0.25,0,0],[0.5,0,0],[0.75,0,0],[1,0,0],[0,1,0],[0.25,1,0],[0.5,1,0],[0.75,1,0],[1,1,0],[0,0.25,0],[0,0.5,0],[0,0.75,0],[1,0.25,0],[1,0.5,0],[1,0.75,0]];outlineConnect=0;fontColor=#232F3E;fillColor=#01A88D;strokeColor=#ffffff;dashed=0;verticalLabelPosition=bottom;verticalAlign=top;align=center;html=1;fontSize=12;fontStyle=0;aspect=fixed;shape=mxgraph.aws4.resourceIcon;resIcon=mxgraph.aws4.codeguru_2;" parent="1" vertex="1">
          <mxGeometry x="336" y="659" width="47" height="47" as="geometry" />
        </mxCell>
        <mxCell id="VHQm3ld0HByzxrR_ddXe-120" value="" style="edgeStyle=orthogonalEdgeStyle;rounded=0;orthogonalLoop=1;jettySize=auto;html=1;strokeColor=#0000FF;" parent="1" edge="1">
          <mxGeometry relative="1" as="geometry">
            <mxPoint x="344" y="642" as="sourcePoint" />
            <mxPoint x="344" y="606" as="targetPoint" />
            <Array as="points">
              <mxPoint x="344" y="615" />
              <mxPoint x="344" y="615" />
            </Array>
          </mxGeometry>
        </mxCell>
        <mxCell id="VHQm3ld0HByzxrR_ddXe-121" value="" style="outlineConnect=0;dashed=0;verticalLabelPosition=bottom;verticalAlign=top;align=center;html=1;shape=mxgraph.aws3.cloudtrail;fillColor=#759C3E;gradientColor=none;" parent="1" vertex="1">
          <mxGeometry x="1100" y="574" width="30" height="36.5" as="geometry" />
        </mxCell>
        <mxCell id="dZKMA7ej_25IAb3C-dLl-18" value="" style="rounded=0;whiteSpace=wrap;html=1;" vertex="1" parent="1">
          <mxGeometry x="517.08" y="955" width="387.92" height="343" as="geometry" />
        </mxCell>
        <mxCell id="dZKMA7ej_25IAb3C-dLl-94" value="" style="edgeStyle=orthogonalEdgeStyle;rounded=0;orthogonalLoop=1;jettySize=auto;html=1;strokeColor=#0000FF;" edge="1" parent="1" source="dZKMA7ej_25IAb3C-dLl-18" target="k0CTzh7-vUOgCoUulJSG-58">
          <mxGeometry relative="1" as="geometry">
            <mxPoint x="513" y="1231" as="sourcePoint" />
            <mxPoint x="468.59000000000015" y="993.5" as="targetPoint" />
            <Array as="points">
              <mxPoint x="-382" y="1211" />
            </Array>
          </mxGeometry>
        </mxCell>
        <mxCell id="dZKMA7ej_25IAb3C-dLl-19" value="" style="outlineConnect=0;dashed=0;verticalLabelPosition=bottom;verticalAlign=top;align=center;html=1;shape=mxgraph.aws3.s3;fillColor=#E05243;gradientColor=none;" vertex="1" parent="1">
          <mxGeometry x="548.59" y="975" width="37.41" height="37" as="geometry" />
        </mxCell>
        <mxCell id="dZKMA7ej_25IAb3C-dLl-98" value="" style="edgeStyle=orthogonalEdgeStyle;rounded=0;orthogonalLoop=1;jettySize=auto;html=1;strokeColor=#9933FF;" edge="1" parent="1" source="dZKMA7ej_25IAb3C-dLl-21" target="dZKMA7ej_25IAb3C-dLl-97">
          <mxGeometry relative="1" as="geometry" />
        </mxCell>
        <mxCell id="dZKMA7ej_25IAb3C-dLl-21" value="" style="outlineConnect=0;dashed=0;verticalLabelPosition=bottom;verticalAlign=top;align=center;html=1;shape=mxgraph.aws3.cloudwatch;fillColor=#759C3E;gradientColor=none;" vertex="1" parent="1">
          <mxGeometry x="1099" y="917" width="36" height="42" as="geometry" />
        </mxCell>
        <mxCell id="dZKMA7ej_25IAb3C-dLl-22" value="" style="edgeStyle=orthogonalEdgeStyle;rounded=0;orthogonalLoop=1;jettySize=auto;html=1;strokeColor=#B266FF;" edge="1" parent="1" source="dZKMA7ej_25IAb3C-dLl-23" target="dZKMA7ej_25IAb3C-dLl-21">
          <mxGeometry relative="1" as="geometry" />
        </mxCell>
        <mxCell id="dZKMA7ej_25IAb3C-dLl-23" value="" style="outlineConnect=0;dashed=0;verticalLabelPosition=bottom;verticalAlign=top;align=center;html=1;shape=mxgraph.aws3.lambda_function;fillColor=#F58534;gradientColor=none;" vertex="1" parent="1">
          <mxGeometry x="1047.83" y="918" width="34" height="40" as="geometry" />
        </mxCell>
        <mxCell id="dZKMA7ej_25IAb3C-dLl-24" value="" style="rounded=0;whiteSpace=wrap;html=1;" vertex="1" parent="1">
          <mxGeometry x="607.75" y="1021" width="205" height="221" as="geometry" />
        </mxCell>
        <mxCell id="dZKMA7ej_25IAb3C-dLl-25" value="" style="shape=image;verticalLabelPosition=bottom;labelBackgroundColor=default;verticalAlign=top;aspect=fixed;imageAspect=0;image=https://cdn3.iconfinder.com/data/icons/design-thinking-96/24/project_management_report_setting_business_and_finance_document_gear_cog-512.png;clipPath=inset(5% 5% 5.33% 4.67%);" vertex="1" parent="1">
          <mxGeometry x="691.2599999999999" y="1170" width="32.26" height="32" as="geometry" />
        </mxCell>
        <mxCell id="dZKMA7ej_25IAb3C-dLl-26" value="" style="rounded=0;whiteSpace=wrap;html=1;fillColor=#FFFFFF;" vertex="1" parent="1">
          <mxGeometry x="627.75" y="1043.5900000000001" width="160" height="98.41" as="geometry" />
        </mxCell>
        <mxCell id="dZKMA7ej_25IAb3C-dLl-27" value="" style="dashed=0;outlineConnect=0;html=1;align=center;labelPosition=center;verticalLabelPosition=bottom;verticalAlign=top;shape=mxgraph.weblogos.html5" vertex="1" parent="1">
          <mxGeometry x="697.25" y="1068.8799999999999" width="30" height="36.66" as="geometry" />
        </mxCell>
        <mxCell id="dZKMA7ej_25IAb3C-dLl-28" value="" style="shape=image;verticalLabelPosition=bottom;labelBackgroundColor=default;verticalAlign=top;aspect=fixed;imageAspect=0;image=https://www.kindpng.com/picc/m/464-4640184_css3-png-download-css-icon-transparent-png.png;clipPath=inset(4% 7.95% 3.67% 8.3%);" vertex="1" parent="1">
          <mxGeometry x="652.75" y="1074.8000000000002" width="25.81" height="30.16" as="geometry" />
        </mxCell>
        <mxCell id="dZKMA7ej_25IAb3C-dLl-29" value="" style="shape=image;verticalLabelPosition=bottom;labelBackgroundColor=default;verticalAlign=top;aspect=fixed;imageAspect=0;image=https://uxwing.com/wp-content/themes/uxwing/download/file-and-folder-type/yaml-file-icon.png;" vertex="1" parent="1">
          <mxGeometry x="633.71" y="1170" width="32.06" height="34.06" as="geometry" />
        </mxCell>
        <mxCell id="dZKMA7ej_25IAb3C-dLl-30" value="" style="shape=image;verticalLabelPosition=bottom;labelBackgroundColor=default;verticalAlign=top;aspect=fixed;imageAspect=0;image=https://cdn3.iconfinder.com/data/icons/design-thinking-96/24/project_management_report_setting_business_and_finance_document_gear_cog-512.png;clipPath=inset(5% 5% 5.33% 4.67%);" vertex="1" parent="1">
          <mxGeometry x="749.0199999999999" y="1164" width="32.26" height="32" as="geometry" />
        </mxCell>
        <mxCell id="dZKMA7ej_25IAb3C-dLl-31" value="" style="shape=image;verticalLabelPosition=bottom;labelBackgroundColor=default;verticalAlign=top;aspect=fixed;imageAspect=0;image=https://johobase.com/jb/wp-content/uploads/vue_logo-e1618799122232.png;clipPath=inset(7.33% 1% 6.33% 0%);" vertex="1" parent="1">
          <mxGeometry x="738.44" y="1074" width="40.14" height="35" as="geometry" />
        </mxCell>
        <mxCell id="dZKMA7ej_25IAb3C-dLl-32" value="" style="edgeStyle=orthogonalEdgeStyle;rounded=0;orthogonalLoop=1;jettySize=auto;html=1;strokeColor=#FF66FF;" edge="1" parent="1" source="dZKMA7ej_25IAb3C-dLl-24" target="A0nYaDOjtjgqWgvlFO7J-26">
          <mxGeometry relative="1" as="geometry">
            <Array as="points">
              <mxPoint x="64" y="1118" />
              <mxPoint x="64" y="1" />
            </Array>
            <mxPoint x="605.75" y="1275.8000000000002" as="sourcePoint" />
            <mxPoint x="441" y="127" as="targetPoint" />
          </mxGeometry>
        </mxCell>
        <mxCell id="dZKMA7ej_25IAb3C-dLl-33" value="&lt;b&gt;HTTP Request.&lt;/b&gt;" style="edgeLabel;html=1;align=center;verticalAlign=middle;resizable=0;points=[];fillColor=#FFFF00;strokeColor=#FFFF00;" vertex="1" connectable="0" parent="dZKMA7ej_25IAb3C-dLl-32">
          <mxGeometry x="0.4579" relative="1" as="geometry">
            <mxPoint x="82" y="-234" as="offset" />
          </mxGeometry>
        </mxCell>
        <mxCell id="dZKMA7ej_25IAb3C-dLl-34" value="" style="edgeStyle=orthogonalEdgeStyle;rounded=0;orthogonalLoop=1;jettySize=auto;html=1;strokeColor=#009900;" edge="1" parent="1" source="A0nYaDOjtjgqWgvlFO7J-28" target="dZKMA7ej_25IAb3C-dLl-24">
          <mxGeometry relative="1" as="geometry">
            <Array as="points">
              <mxPoint x="2" y="-215" />
              <mxPoint x="2" y="1177" />
            </Array>
            <mxPoint x="441" y="-179" as="sourcePoint" />
            <mxPoint x="605.75" y="1275.8000000000002" as="targetPoint" />
          </mxGeometry>
        </mxCell>
        <mxCell id="dZKMA7ej_25IAb3C-dLl-35" value="" style="edgeStyle=orthogonalEdgeStyle;rounded=0;orthogonalLoop=1;jettySize=auto;html=1;strokeColor=#FF8000;" edge="1" parent="1" source="dZKMA7ej_25IAb3C-dLl-24" target="A0nYaDOjtjgqWgvlFO7J-28">
          <mxGeometry relative="1" as="geometry">
            <Array as="points">
              <mxPoint x="33" y="1148" />
              <mxPoint x="33" y="-196" />
            </Array>
            <mxPoint x="718.3199999999997" y="1439" as="sourcePoint" />
            <mxPoint x="441" y="-155" as="targetPoint" />
          </mxGeometry>
        </mxCell>
        <mxCell id="dZKMA7ej_25IAb3C-dLl-60" value="" style="shape=image;verticalLabelPosition=bottom;labelBackgroundColor=default;verticalAlign=top;aspect=fixed;imageAspect=0;image=https://2.bp.blogspot.com/-qgppnNLajj0/Wg8a1vHek2I/AAAAAAAAGBc/lHHy5395iQ0N8c4nN3_wq8w4PzYXUnN5QCLcBGAs/s1600/874086.png;clipPath=inset(33.33% 2.33% 32.67% 2.33%);" vertex="1" parent="1">
          <mxGeometry x="-358.83" y="-507" width="57.48" height="20.5" as="geometry" />
        </mxCell>
        <mxCell id="dZKMA7ej_25IAb3C-dLl-63" value="" style="rounded=0;whiteSpace=wrap;html=1;fillColor=#E6E6E6;" vertex="1" parent="1">
          <mxGeometry x="197" y="-105" width="100" height="114" as="geometry" />
        </mxCell>
        <mxCell id="dZKMA7ej_25IAb3C-dLl-64" value="" style="edgeStyle=orthogonalEdgeStyle;rounded=0;orthogonalLoop=1;jettySize=auto;html=1;strokeColor=#FF0000;" edge="1" parent="1" source="dZKMA7ej_25IAb3C-dLl-66">
          <mxGeometry relative="1" as="geometry">
            <mxPoint x="130.90999999999985" y="-86" as="sourcePoint" />
            <mxPoint x="178" y="-89" as="targetPoint" />
            <Array as="points">
              <mxPoint x="174" y="-89" />
              <mxPoint x="174" y="-89" />
            </Array>
          </mxGeometry>
        </mxCell>
        <mxCell id="dZKMA7ej_25IAb3C-dLl-65" value="" style="shape=image;verticalLabelPosition=bottom;labelBackgroundColor=default;verticalAlign=top;aspect=fixed;imageAspect=0;image=https://download.logo.wine/logo/Java_(programming_language)/Java_(programming_language)-Logo.wine.png;clipPath=inset(17% 38.67% 37% 39%);" vertex="1" parent="1">
          <mxGeometry x="212.39999999999998" y="-90" width="25.42" height="34.9" as="geometry" />
        </mxCell>
        <mxCell id="dZKMA7ej_25IAb3C-dLl-66" value="" style="shape=image;verticalLabelPosition=bottom;labelBackgroundColor=default;verticalAlign=top;aspect=fixed;imageAspect=0;image=https://dzone.com/storage/temp/12434118-spring-boot-logo.png;" vertex="1" parent="1">
          <mxGeometry x="118" y="-105.43" width="36.15" height="32.43" as="geometry" />
        </mxCell>
        <mxCell id="dZKMA7ej_25IAb3C-dLl-67" value="" style="shape=image;verticalLabelPosition=bottom;labelBackgroundColor=default;verticalAlign=top;aspect=fixed;imageAspect=0;image=https://download.logo.wine/logo/Java_(programming_language)/Java_(programming_language)-Logo.wine.png;clipPath=inset(17% 38.67% 37% 39%);" vertex="1" parent="1">
          <mxGeometry x="214.42999999999995" y="-42.19999999999999" width="25.42" height="34.9" as="geometry" />
        </mxCell>
        <mxCell id="dZKMA7ej_25IAb3C-dLl-68" value="" style="shape=image;verticalLabelPosition=bottom;labelBackgroundColor=default;verticalAlign=top;aspect=fixed;imageAspect=0;image=https://download.logo.wine/logo/Java_(programming_language)/Java_(programming_language)-Logo.wine.png;clipPath=inset(17% 38.67% 37% 39%);" vertex="1" parent="1">
          <mxGeometry x="254.90999999999997" y="-89" width="25.42" height="34.9" as="geometry" />
        </mxCell>
        <mxCell id="dZKMA7ej_25IAb3C-dLl-69" value="" style="shape=image;verticalLabelPosition=bottom;labelBackgroundColor=default;verticalAlign=top;aspect=fixed;imageAspect=0;image=https://download.logo.wine/logo/Java_(programming_language)/Java_(programming_language)-Logo.wine.png;clipPath=inset(17% 38.67% 37% 39%);" vertex="1" parent="1">
          <mxGeometry x="257" y="-39.96000000000001" width="23.25" height="31.92" as="geometry" />
        </mxCell>
        <mxCell id="dZKMA7ej_25IAb3C-dLl-72" value="" style="shape=image;verticalLabelPosition=bottom;labelBackgroundColor=default;verticalAlign=top;aspect=fixed;imageAspect=0;image=https://logowik.com/content/uploads/images/hashicorp9742.jpg;clipPath=inset(8.22% 21% 8.22% 21%);" vertex="1" parent="1">
          <mxGeometry x="296.5" y="-826.55" width="31.05" height="33.55" as="geometry" />
        </mxCell>
        <mxCell id="dZKMA7ej_25IAb3C-dLl-73" value="" style="rounded=0;whiteSpace=wrap;html=1;" vertex="1" parent="1">
          <mxGeometry x="325" y="-795" width="89" height="172" as="geometry" />
        </mxCell>
        <mxCell id="dZKMA7ej_25IAb3C-dLl-74" value="" style="edgeStyle=orthogonalEdgeStyle;rounded=0;orthogonalLoop=1;jettySize=auto;html=1;" edge="1" parent="1" source="dZKMA7ej_25IAb3C-dLl-76" target="dZKMA7ej_25IAb3C-dLl-75">
          <mxGeometry relative="1" as="geometry">
            <mxPoint x="369.04000000000025" y="-767" as="sourcePoint" />
            <mxPoint x="369.04000000000025" y="-721" as="targetPoint" />
            <Array as="points" />
          </mxGeometry>
        </mxCell>
        <mxCell id="dZKMA7ej_25IAb3C-dLl-75" value="" style="shape=image;verticalLabelPosition=bottom;labelBackgroundColor=default;verticalAlign=top;aspect=fixed;imageAspect=0;image=https://cdn.freebiesupply.com/logos/thumbs/2x/vagrant-logo.png;clipPath=inset(0% 20% 17.56% 18.67%);" vertex="1" parent="1">
          <mxGeometry x="355.92" y="-716" width="24.8" height="25" as="geometry" />
        </mxCell>
        <mxCell id="dZKMA7ej_25IAb3C-dLl-76" value="" style="shape=image;verticalLabelPosition=bottom;labelBackgroundColor=default;verticalAlign=top;aspect=fixed;imageAspect=0;image=https://static-00.iconduck.com/assets.00/consul-icon-253x256-x7gbz0b2.png;clipPath=inset(0% 0% 0% 0.99% round 49%);" vertex="1" parent="1">
          <mxGeometry x="355.04" y="-770" width="26.55" height="27.13" as="geometry" />
        </mxCell>
        <mxCell id="dZKMA7ej_25IAb3C-dLl-96" value="" style="edgeStyle=orthogonalEdgeStyle;rounded=0;orthogonalLoop=1;jettySize=auto;html=1;strokeColor=#9933FF;" edge="1" parent="1" source="dZKMA7ej_25IAb3C-dLl-77" target="dZKMA7ej_25IAb3C-dLl-99">
          <mxGeometry relative="1" as="geometry">
            <mxPoint x="648" y="848" as="targetPoint" />
            <Array as="points">
              <mxPoint x="1649" y="-658" />
              <mxPoint x="1649" y="855" />
            </Array>
          </mxGeometry>
        </mxCell>
        <mxCell id="dZKMA7ej_25IAb3C-dLl-77" value="" style="shape=image;verticalLabelPosition=bottom;labelBackgroundColor=default;verticalAlign=top;aspect=fixed;imageAspect=0;image=https://static-00.iconduck.com/assets.00/file-type-terraform-icon-1821x2048-mbxeegff.png;" vertex="1" parent="1">
          <mxGeometry x="353.6" y="-673" width="25.79" height="29" as="geometry" />
        </mxCell>
        <mxCell id="dZKMA7ej_25IAb3C-dLl-78" value="" style="rounded=0;whiteSpace=wrap;html=1;" vertex="1" parent="1">
          <mxGeometry x="-474" y="-944" width="173" height="112" as="geometry" />
        </mxCell>
        <mxCell id="dZKMA7ej_25IAb3C-dLl-79" value="" style="shape=image;verticalLabelPosition=bottom;labelBackgroundColor=none;verticalAlign=top;aspect=fixed;imageAspect=0;image=data:image/svg+xml,PHN2ZyB4bWxuczpkYz0iaHR0cDovL3B1cmwub3JnL2RjL2VsZW1lbnRzLzEuMS8iIHhtbG5zOmNjPSJodHRwOi8vY3JlYXRpdmVjb21tb25zLm9yZy9ucyMiIHhtbG5zOnJkZj0iaHR0cDovL3d3dy53My5vcmcvMTk5OS8wMi8yMi1yZGYtc3ludGF4LW5zIyIgeG1sbnM6c3ZnPSJodHRwOi8vd3d3LnczLm9yZy8yMDAwL3N2ZyIgeG1sbnM9Imh0dHA6Ly93d3cudzMub3JnLzIwMDAvc3ZnIiB4bWxuczp4bGluaz0iaHR0cDovL3d3dy53My5vcmcvMTk5OS94bGluayIgeG1sbnM6c29kaXBvZGk9Imh0dHA6Ly9zb2RpcG9kaS5zb3VyY2Vmb3JnZS5uZXQvRFREL3NvZGlwb2RpLTAuZHRkIiB4bWxuczppbmtzY2FwZT0iaHR0cDovL3d3dy5pbmtzY2FwZS5vcmcvbmFtZXNwYWNlcy9pbmtzY2FwZSIgdmVyc2lvbj0iMS4xIiBpZD0iTGF5ZXJfMSIgeD0iMHB4IiB5PSIwcHgiIHZpZXdCb3g9IjAgMCA1MC44NDk5OTggNTEuMDkiIHhtbDpzcGFjZT0icHJlc2VydmUiIHNvZGlwb2RpOmRvY25hbWU9InZpc3VhbF9zdHVkaW9fY29kZS5zdmciIHdpZHRoPSI1MC44NDk5OTgiIGhlaWdodD0iNTEuMDkiIGlua3NjYXBlOnZlcnNpb249IjAuOTIuMyAoMjQwNTU0NiwgMjAxOC0wMy0xMSkiPjxtZXRhZGF0YSBpZD0ibWV0YWRhdGE0MzE4OSI+PHJkZjpSREY+PGNjOldvcmsgcmRmOmFib3V0PSIiPjxkYzpmb3JtYXQ+aW1hZ2Uvc3ZnK3htbDwvZGM6Zm9ybWF0PjxkYzp0eXBlIHJkZjpyZXNvdXJjZT0iaHR0cDovL3B1cmwub3JnL2RjL2RjbWl0eXBlL1N0aWxsSW1hZ2UiLz48ZGM6dGl0bGUvPjwvY2M6V29yaz48L3JkZjpSREY+PC9tZXRhZGF0YT48ZGVmcyBpZD0iZGVmczQzMTg3Ii8+PHNvZGlwb2RpOm5hbWVkdmlldyBwYWdlY29sb3I9IiNmZmZmZmYiIGJvcmRlcmNvbG9yPSIjNjY2NjY2IiBib3JkZXJvcGFjaXR5PSIxIiBvYmplY3R0b2xlcmFuY2U9IjEwIiBncmlkdG9sZXJhbmNlPSIxMCIgZ3VpZGV0b2xlcmFuY2U9IjEwIiBpbmtzY2FwZTpwYWdlb3BhY2l0eT0iMCIgaW5rc2NhcGU6cGFnZXNoYWRvdz0iMiIgaW5rc2NhcGU6d2luZG93LXdpZHRoPSIxOTIwIiBpbmtzY2FwZTp3aW5kb3ctaGVpZ2h0PSIxMDE3IiBpZD0ibmFtZWR2aWV3NDMxODUiIHNob3dncmlkPSJmYWxzZSIgZml0LW1hcmdpbi10b3A9IjAiIGZpdC1tYXJnaW4tbGVmdD0iMCIgZml0LW1hcmdpbi1yaWdodD0iMCIgZml0LW1hcmdpbi1ib3R0b209IjAiIGlua3NjYXBlOnpvb209IjEuMDMwMzAzIiBpbmtzY2FwZTpjeD0iLTYuNTU1IiBpbmtzY2FwZTpjeT0iLTI5Ni4wNyIgaW5rc2NhcGU6d2luZG93LXg9Ii04IiBpbmtzY2FwZTp3aW5kb3cteT0iLTgiIGlua3NjYXBlOndpbmRvdy1tYXhpbWl6ZWQ9IjEiIGlua3NjYXBlOmN1cnJlbnQtbGF5ZXI9IkxheWVyXzEiLz4mI3hhOyYjeGE7PGcgaWQ9Imc0MzE4MiIgdHJhbnNmb3JtPSJ0cmFuc2xhdGUoLTMwMy45MywtNzMuNTkpIj4mI3hhOwk8ZGVmcyBpZD0iZGVmczQzMTY3Ij4mI3hhOwkJPHJlY3QgaWQ9IlNWR0lEXzNfIiB4PSIzMDMuOTI5OTkiIHk9IjczLjU4OTk5NiIgd2lkdGg9IjUxLjI1IiBoZWlnaHQ9IjUxLjI1Ii8+JiN4YTsJPC9kZWZzPiYjeGE7CTxjbGlwUGF0aCBpZD0iU1ZHSURfNF8iPiYjeGE7CQk8dXNlIHhsaW5rOmhyZWY9IiNTVkdJRF8zXyIgc3R5bGU9Im92ZXJmbG93OnZpc2libGUiIGlkPSJ1c2U0MzE2OSIgeD0iMCIgeT0iMCIgd2lkdGg9IjEwMCUiIGhlaWdodD0iMTAwJSIvPiYjeGE7CTwvY2xpcFBhdGg+JiN4YTsJPGcgY2xpcC1wYXRoPSJ1cmwoI1NWR0lEXzRfKSIgaWQ9Imc0MzE4MCI+JiN4YTsJCTxkZWZzIGlkPSJkZWZzNDMxNzMiPiYjeGE7CQkJPHJlY3QgaWQ9IlNWR0lEXzVfIiB4PSIzMDMuOTI5OTkiIHk9IjczLjU4OTk5NiIgd2lkdGg9IjUxLjI1IiBoZWlnaHQ9IjUxLjI1Ii8+JiN4YTsJCTwvZGVmcz4mI3hhOwkJPGNsaXBQYXRoIGlkPSJTVkdJRF82XyI+JiN4YTsJCQk8dXNlIHhsaW5rOmhyZWY9IiNTVkdJRF81XyIgc3R5bGU9Im92ZXJmbG93OnZpc2libGUiIGlkPSJ1c2U0MzE3NSIgeD0iMCIgeT0iMCIgd2lkdGg9IjEwMCUiIGhlaWdodD0iMTAwJSIvPiYjeGE7CQk8L2NsaXBQYXRoPiYjeGE7CQk8cGF0aCBzdHlsZT0iZmlsbDojMDE3OWNiIiBkPSJtIDMwOS44NywxMDUuMDIgNi4yMywtNS42NiAtNi4yMywtNi4yMyBWIDEwNSBaIG0gMzEuNTEsMy4zIFYgODkuOTUgbCAtMTEuODksOS4xOSAxMS44Nyw5LjE3IGggMC4wMiB6IG0gLTE5LjM1LC0zLjQ0IC0xMi42LDkuNzggLTUuNSwtMi43IFYgODYuMzUgbCA1LjQ4LC0yLjc2IDEyLjUyLDkuODQgMTkuODIsLTE5Ljg0IDEzLjAzLDUuMjMgdiA0MC41OSBsIC0xMi45OCw1LjI3IHoiIGNsaXAtcGF0aD0idXJsKCNTVkdJRF82XykiIGlkPSJwYXRoNDMxNzgiIGlua3NjYXBlOmNvbm5lY3Rvci1jdXJ2YXR1cmU9IjAiLz4mI3hhOwk8L2c+JiN4YTs8L2c+JiN4YTs8L3N2Zz4=;" vertex="1" parent="1">
          <mxGeometry x="-450" y="-905.09" width="35.09" height="35.09" as="geometry" />
        </mxCell>
        <mxCell id="dZKMA7ej_25IAb3C-dLl-80" value="APP" style="shape=image;verticalLabelPosition=bottom;labelBackgroundColor=default;verticalAlign=top;aspect=fixed;imageAspect=0;image=https://logodownload.org/wp-content/uploads/2017/05/microsoft-edge-logo-00.png;clipPath=inset(16.33% 17% 16% 16.67% round 49%);fontStyle=1" vertex="1" parent="1">
          <mxGeometry x="-379.94000000000005" y="-912" width="41.17" height="42" as="geometry" />
        </mxCell>
        <mxCell id="dZKMA7ej_25IAb3C-dLl-86" value="" style="edgeStyle=orthogonalEdgeStyle;rounded=0;orthogonalLoop=1;jettySize=auto;html=1;strokeColor=#0000FF;" edge="1" parent="1" source="dZKMA7ej_25IAb3C-dLl-83" target="dZKMA7ej_25IAb3C-dLl-77">
          <mxGeometry relative="1" as="geometry">
            <mxPoint x="353" y="-659" as="targetPoint" />
            <Array as="points">
              <mxPoint x="368" y="-539" />
            </Array>
          </mxGeometry>
        </mxCell>
        <mxCell id="dZKMA7ej_25IAb3C-dLl-83" value="" style="shape=image;verticalLabelPosition=bottom;labelBackgroundColor=default;verticalAlign=top;aspect=fixed;imageAspect=0;image=data:image/png,iVBORw0KGgoAAAANSUhEUgAAACUAAAAkCAYAAAAOwvOmAAAAAXNSR0IArs4c6QAAAARnQU1BAACxjwv8YQUAAAAJcEhZcwAADsMAAA7DAcdvqGQAAAo+SURBVFhHtVgLcFTlGT3ZbJJ9JNk8yHsTkpBAXiQ80wTUWkEEhKJlFCrqlMpI69TWTh/TqTIyYy2O06pDnVpRh05BQdFWkaEKQYTwCI/GkATIk7yfu0k2m91k39vz3TwmYoLTKTnDDZu7997/u993vvOdPwF+AmPw8aPT7YPd6cWI2wuPb/SrIFUAtMGB0IeoEaJWISBAOQ2v14u6ujqcPHkSW7duhVarHf3i/8REUBJAz6AT5c0WnKnvw7UuG4ZcHl4RgAgGlJsYhjuzZmFhsgGx4SETgc0ElKAkoMYeOw5caMfxWrOy6MKkMOQlhkNiruwYQnnbIFxeH+5Ii8L276UhJix4xgIL8LFmjb12vFvWhqp2K+7LjcWa/DhE6YMRpA5AUKAKXiWLDnxe1YvDFT3IN4bh6XvnYBYDmwmorCNunLhuQtmNAWxYEI9HioywjnhwtLIbF3luwO5mRgKQGKnFA4sTsWFRPCo6rDhS0QUPMzcTULX3j6CK5ZlHzqzKi0Urf3/jVDP+eKwROz6pwZ8+q4dc4yDxI/VBWJEdg/ykcJSwzJ0Wx9hjbi9U7XxwD4/c+FCFS5ZhN8wk/B2pEdi4MAGVLOmzH13Dp191M4NupWSFaREYdvpQ22kbe8zthcrm8iI4SIUsBiVlklb0k8CJUVr89J40vPiDbEUK/nqqBe+cboFw26ALQiA/9NtdykNuN1SiTQFcQcPAboaIRXqMHg8XJiFCq0bDWBnVJL8EJffOBFQaLuCmWLb1f50fHo8PNV1DCqfkiA4NwqNLkiiiagw5PNQ1QMcMzgRUojchzNIVdtQISxnEFARTwcsaB7DzcA3ONlmwKicGf34oD8WZURjmNa0DI/DzupTo26PgN0M1O1qHHGM4mvtGcJWklnKJcvcxGymROrz1aL6iSQZ2nujVdSr9oUudSGBTZFNcZwIBbq50pq4Pe042I4ol2nbXbGTGhcLB+ug4XjQ8hP0SkAT9+hc34Obvv1udgSzKyExAGTNeEra0tg+7SxqhUqkoBfEonhOFUG0QrwAF1IXzjf3YV9aOcE0QflRsxDoKrWiny+OFky8gyq8JCkQgyyodOh3k5WRcOV0+BLC3tLxH7p08siYGstvrRzXn296zrThHHgXz4VpyjZfDTufg9PmwgPPwN6syMDchFCarEx+Xd+H4VRPs5JmeGV1MbfvxnbOnHdjiPk5TdN871wbTsAuB5G4m6fLEXanI5ehSjd30NesiH2zkUjXL9GF5Jy42D6IoORz5KQbkUsVzGJSamaxqH2RWb6DBNIKCxFAYqWm9Qy5U8KVkZj69Ig3fJS8nwzzkxKufN+JYjRk5cXpkJ4QpGb7UNAAbX3rb8hRsZgXUDFRcwDfAlvf//Vybf9Vr5/0fXGgfOzuKZpPd/9v3q/3rdpf5j1V1+30y0Qk3rUZFi8W/6Y1L/i1vXvZ3WRzKeQHL73/5aJ1/2a5S/+sljX43yyKQW3utDv8z71X6i3ad9p+v71POf1MxCUmiBNzBcXOU5anpHFLOiwGspnRUU78eLzRiRU6sMgWcFNRrzF6TyY5fslOtHFV7qf5SAxFYk82Fc5SYdbkxeOqedKhpFAVSlRN8/lOcHBoS7CCtk2BK9VOC4hEWrEIvLcvPDlRhMc1dPLlyvdtGLxWCBbMNqKM8SPAtVPq/nWxC6iw9fkKvlcXSnGdZ3uQ5IbOYx34GMJdd3WN1wGx1Kdr4h09rYba5sYRcXEMz8G+6FcG0kiyB5fHhW5clK070FLvzfNNop+UbDXyYC2/RTTSahpXA5nF2/uLedC4WqCzYzpc5eLlTeZaYyEAZY/z3ymcNONXQjySDhoG68cL6eTBSK+MNIWy2USs0msdpIKURcX2GHbf/ySXY81gBfrg0CTanR/HqG5ckKk9IjtLh1/dlIJnXOigRkt0iZnLfE4uwb9sivLAhCxq+psXuUVxrOieBlR370oPZnBLRIB9xloFGiAQR3xIUL2AaghlABBU9k9komhOJYZbig0sdil//BxfetTEb6SzNILlUUt2LFlqhleSbdKWR5jCT3ZZoCMY5LiyC/Mqm+Xj14VwUpkcqdvtS8wCukLf30/UKbh0UD3EDE58ZYA5VfFNhIsqoZa8dvwE7Xaq4Bhnee0tbsP9iB4pTI/F9ejF5KTniWCoheD0bYfv+SjSb7YgJDUHngAOHeP2zn9QijtPkgcUJo2tJCyqfJmGYIvfxV104TS7tZM3jIzRj34zaGTGCJVd78faZVogf0zKTToqvlPR+EvaxZUaawZCxO0bhYOeWcSq8dLQeFpZfR455+CwveVSYEoFfcWwlMavKi0wX1L8Y1CnOxJ3r5yr+fDLkDhd50Em3UN5igZljSPgwn4M9PSZUIbo8/GZ4GPgAlVwEs40GQMaL3COGQMcGGb9nyqBkHPyTI6SUmXp+3VwkkRs3YzywAWbN6fZwLAUqjlQXwgF+CzAuRZ9GmDkJIpTXy4iajKkzxZJIpo5RN3asmYsMEnUy5I2vUkTfpkA2kCdDDE7Lt85kV62eH4f1Y3yaDFnFxJ3Rkev96OX/EpTMukhNILJjdViZGTFxz5REF25EshwmutEvxwRtHKLqpXVmPM+djpnzbiV3N08uT8Zackncxp7SVrzLgTsZlCn0UNc+rDKjzeJCWqQGd6cbUJwSRtcRiNJmKw5eMSt2STBlpgQN3DHvYSbM5MDvScIMtrxAPNWLR+qgYuDPrc2k8GnZoQHKOOlgN73DDqxh9p5bnYmlbHnBoMOLQ5Vm9FGntiyMQbRerXSyLO0k28s7bPiicRDrcyKxVNyCctcUMPJtivnQFu6e/3KiCRfYOUPcYske0cFXF08luhVKnz7+x4/0WD0e+Y4RoeTXkSvd4MBVsmQjR6V0WbFaRa/EEok1koqEMVMFCXolYxdbR7ds0wYVwoVW5MzCz1eko41dtuNwLbbvu6IMzXCWdk5sKKp7hnG83sJMeFDebsOXN6x0r8FIjdagU+YdAznTZMUhls1FHiYxIBlJkyG/6kn2nBgtPZZbOTdtUHJxGBeXXbMo9kOLEuDiG8vMkwer+aZ+UkDSL17TRzcmLlTIG0jPJfwShrhpDiVTwpGbAxqHnBbHOv5XgG9VdClNJrOymWV5eVMeHiepJQPCuew4Le6eY1DaOi9ej7tIXpmL9fwunhmL1KlRRDJvnD8LGi7aQ0cwFUZI8OruYcRwlAluGdQ4ZP6FadRIjdGhiDwzhKhwgLOPhg968kMyINuyPlrk91leB7OztiBeEUfRoMTwYMRzK1fVbUcjRXN8Eys/h9nN/2HpB0a8WGwcbaZpu2862JmJkmsm7Cb5Zdu1nF5IbEuLyAfFdoTfP8hNxZZlKRO7biF7x6ALH5FbkpXZkSHUNA1Hkw+VXcOcCB4YaV02F0QrA/t/DkquHmQXXm624DgdgThRJ1cVjmXQuoh4LsuIUgg/GeKp2ixOVHTZUUtvL8QXGFj6gkQ98ln+KJYbAP4L5f0g/gOjrfoAAAAASUVORK5CYII=;" vertex="1" parent="1">
          <mxGeometry x="-92.38999999999999" y="-559.87" width="43" height="41.84" as="geometry" />
        </mxCell>
        <mxCell id="dZKMA7ej_25IAb3C-dLl-84" value="" style="dashed=0;outlineConnect=0;html=1;align=center;labelPosition=center;verticalLabelPosition=bottom;verticalAlign=top;shape=mxgraph.weblogos.github" vertex="1" parent="1">
          <mxGeometry x="-534" y="-599" width="42" height="38" as="geometry" />
        </mxCell>
        <mxCell id="dZKMA7ej_25IAb3C-dLl-90" value="" style="edgeStyle=orthogonalEdgeStyle;rounded=0;orthogonalLoop=1;jettySize=auto;html=1;strokeColor=#009900;" edge="1" parent="1" source="dZKMA7ej_25IAb3C-dLl-19" target="VHQm3ld0HByzxrR_ddXe-55">
          <mxGeometry relative="1" as="geometry">
            <mxPoint x="565" y="937" as="sourcePoint" />
            <mxPoint x="565" y="446" as="targetPoint" />
            <Array as="points">
              <mxPoint x="565" y="810" />
              <mxPoint x="565" y="810" />
            </Array>
          </mxGeometry>
        </mxCell>
        <mxCell id="dZKMA7ej_25IAb3C-dLl-89" value="" style="rounded=1;arcSize=10;dashed=0;fillColor=none;gradientColor=none;strokeWidth=2;" vertex="1" parent="1">
          <mxGeometry x="627.75" y="775" width="250" height="110" as="geometry" />
        </mxCell>
        <mxCell id="dZKMA7ej_25IAb3C-dLl-91" value="" style="outlineConnect=0;dashed=0;verticalLabelPosition=bottom;verticalAlign=top;align=center;html=1;shape=mxgraph.aws3.ecs;fillColor=#F58534;gradientColor=none;" vertex="1" parent="1">
          <mxGeometry x="678.56" y="796.63" width="56" height="60" as="geometry" />
        </mxCell>
        <mxCell id="dZKMA7ej_25IAb3C-dLl-92" value="" style="shape=image;verticalLabelPosition=bottom;labelBackgroundColor=default;verticalAlign=top;aspect=fixed;imageAspect=0;image=https://agrp.dev/wp-content/uploads/2022/04/AWS-EKS.png;clipPath=inset(1.16% 5.81% 1.16% 5.43%);" vertex="1" parent="1">
          <mxGeometry x="784.2600000000001" y="794.25" width="58.84" height="64.75" as="geometry" />
        </mxCell>
        <mxCell id="dZKMA7ej_25IAb3C-dLl-97" value="" style="sketch=0;points=[[0,0,0],[0.25,0,0],[0.5,0,0],[0.75,0,0],[1,0,0],[0,1,0],[0.25,1,0],[0.5,1,0],[0.75,1,0],[1,1,0],[0,0.25,0],[0,0.5,0],[0,0.75,0],[1,0.25,0],[1,0.5,0],[1,0.75,0]];outlineConnect=0;fontColor=#232F3E;fillColor=#E7157B;strokeColor=#ffffff;dashed=0;verticalLabelPosition=bottom;verticalAlign=top;align=center;html=1;fontSize=12;fontStyle=0;aspect=fixed;shape=mxgraph.aws4.resourceIcon;resIcon=mxgraph.aws4.sns;" vertex="1" parent="1">
          <mxGeometry x="1100.4" y="1015" width="32" height="32" as="geometry" />
        </mxCell>
        <mxCell id="dZKMA7ej_25IAb3C-dLl-100" value="" style="edgeStyle=orthogonalEdgeStyle;rounded=0;orthogonalLoop=1;jettySize=auto;html=1;strokeColor=#FF8000;" edge="1" parent="1" source="dZKMA7ej_25IAb3C-dLl-99" target="dZKMA7ej_25IAb3C-dLl-89">
          <mxGeometry relative="1" as="geometry">
            <mxPoint x="706" y="827" as="targetPoint" />
            <Array as="points">
              <mxPoint x="919" y="857" />
              <mxPoint x="919" y="857" />
            </Array>
          </mxGeometry>
        </mxCell>
        <mxCell id="dZKMA7ej_25IAb3C-dLl-99" value="" style="outlineConnect=0;dashed=0;verticalLabelPosition=bottom;verticalAlign=top;align=center;html=1;shape=mxgraph.aws3.ecr;fillColor=#F58534;gradientColor=none;" vertex="1" parent="1">
          <mxGeometry x="924" y="835" width="48" height="48" as="geometry" />
        </mxCell>
      </root>
    </mxGraphModel>
  </diagram>
</mxfile>
